<svg width="34" height="32" viewBox="0 0 34 32" fill="none" xmlns="http://www.w3.org/2000/svg">
<g clip-path="url(#clip0_1_7479)">
<path d="M8.10756 2.94914C8.12018 3.24204 7.89886 3.4389 7.55327 3.44275C7.20672 3.44659 6.97375 3.2574 6.9718 2.97123C6.97083 2.68889 7.20769 2.49394 7.54842 2.49586C7.88041 2.49778 8.09592 2.67352 8.10756 2.94914Z" fill="white"/>
<path d="M10.1895 2.95108C10.2002 3.24686 9.9837 3.43892 9.63521 3.44276C9.28962 3.44564 9.05762 3.2555 9.05762 2.96932C9.05762 2.68315 9.28962 2.493 9.63521 2.49588C9.97108 2.49876 10.1798 2.6697 10.1895 2.95108Z" fill="white"/>
<path d="M12.2842 2.98083C12.2755 3.26509 12.0377 3.45043 11.6911 3.44179C11.3582 3.4341 11.1533 3.25644 11.1514 2.97411C11.1485 2.67449 11.362 2.49394 11.7164 2.49586C12.0571 2.49683 12.293 2.69849 12.2842 2.98083Z" fill="white"/>
<path d="M5.24716 19.6233C4.79189 19.6781 4.33856 19.7626 3.89202 19.8644C3.63963 19.922 3.52896 20.1304 3.57653 20.3772C3.62701 20.6413 3.82115 20.7911 4.08908 20.7584C4.50844 20.7066 4.92585 20.623 5.34133 20.5385C5.57624 20.4905 5.7005 20.3301 5.71312 20.09C5.71506 19.8288 5.51023 19.5926 5.24716 19.6233ZM5.96648 21.471C5.9228 21.2021 5.73544 21.0494 5.46752 21.0811C5.03554 21.133 4.60454 21.2079 4.18033 21.3068C3.92017 21.3673 3.79009 21.5709 3.84057 21.8398C3.88814 22.0914 4.0619 22.2133 4.4036 22.2124C4.76374 22.1471 5.20736 22.0798 5.64322 21.98C5.89367 21.9224 6.00725 21.7216 5.96648 21.471ZM5.96648 21.471C5.9228 21.2021 5.73544 21.0494 5.46752 21.0811C5.03554 21.133 4.60454 21.2079 4.18033 21.3068C3.92017 21.3673 3.79009 21.5709 3.84057 21.8398C3.88814 22.0914 4.0619 22.2133 4.4036 22.2124C4.76374 22.1471 5.20736 22.0798 5.64322 21.98C5.89367 21.9224 6.00725 21.7216 5.96648 21.471ZM5.24716 19.6233C4.79189 19.6781 4.33856 19.7626 3.89202 19.8644C3.63963 19.922 3.52896 20.1304 3.57653 20.3772C3.62701 20.6413 3.82115 20.7911 4.08908 20.7584C4.50844 20.7066 4.92585 20.623 5.34133 20.5385C5.57624 20.4905 5.7005 20.3301 5.71312 20.09C5.71506 19.8288 5.51023 19.5926 5.24716 19.6233ZM5.24716 19.6233C4.79189 19.6781 4.33856 19.7626 3.89202 19.8644C3.63963 19.922 3.52896 20.1304 3.57653 20.3772C3.62701 20.6413 3.82115 20.7911 4.08908 20.7584C4.50844 20.7066 4.92585 20.623 5.34133 20.5385C5.57624 20.4905 5.7005 20.3301 5.71312 20.09C5.71506 19.8288 5.51023 19.5926 5.24716 19.6233ZM5.96648 21.471C5.9228 21.2021 5.73544 21.0494 5.46752 21.0811C5.03554 21.133 4.60454 21.2079 4.18033 21.3068C3.92017 21.3673 3.79009 21.5709 3.84057 21.8398C3.88814 22.0914 4.0619 22.2133 4.4036 22.2124C4.76374 22.1471 5.20736 22.0798 5.64322 21.98C5.89367 21.9224 6.00725 21.7216 5.96648 21.471ZM5.96648 21.471C5.9228 21.2021 5.73544 21.0494 5.46752 21.0811C5.03554 21.133 4.60454 21.2079 4.18033 21.3068C3.92017 21.3673 3.79009 21.5709 3.84057 21.8398C3.88814 22.0914 4.0619 22.2133 4.4036 22.2124C4.76374 22.1471 5.20736 22.0798 5.64322 21.98C5.89367 21.9224 6.00725 21.7216 5.96648 21.471ZM4.08908 20.7584C4.50844 20.7066 4.92585 20.623 5.34133 20.5385C5.57624 20.4905 5.7005 20.3301 5.71312 20.09C5.71506 19.8288 5.51023 19.5926 5.24716 19.6233C4.79189 19.6781 4.33856 19.7626 3.89202 19.8644C3.63963 19.922 3.52896 20.1304 3.57653 20.3772C3.62701 20.6413 3.82115 20.7911 4.08908 20.7584ZM31.5725 2.17843e-05C23.2601 2.17843e-05 14.9487 2.17843e-05 6.63726 2.17843e-05C6.38875 2.17843e-05 6.13927 -0.00285919 5.89562 0.0576414C4.84334 0.321731 4.20168 1.17354 4.20168 2.32305C4.19974 6.85099 4.20071 11.3789 4.20071 15.9069C4.20071 16.4514 4.35603 16.6953 4.69287 16.6847C5.02001 16.6732 5.15494 16.4495 5.15494 15.9126C5.15494 12.7224 5.16077 9.53126 5.14718 6.34106C5.14621 6.01551 5.20445 5.91659 5.55974 5.91755C10.0659 5.93196 14.5711 5.92716 19.0763 5.92716C23.5814 5.92716 28.1352 5.92908 32.6646 5.92043C32.9597 5.91947 33.0626 5.96557 33.0616 6.294C33.049 11.3847 33.0529 16.4754 33.0529 21.5661C33.0529 22.5927 32.5928 23.0527 31.5648 23.0527C27.9488 23.0536 24.3318 23.0527 20.7158 23.0527C20.1712 23.0527 20.1742 23.0527 20.213 22.5293C20.4178 19.8336 19.9412 17.2571 18.7841 14.8102C18.3094 13.8038 17.7114 12.8732 16.7727 12.2192C15.602 11.4039 14.4051 11.6507 13.5596 12.7896C11.9549 14.9504 9.89504 16.5407 7.31483 17.4021C6.02181 17.8333 4.64919 17.9303 3.31152 18.1684C2.79315 18.2606 2.4233 18.4604 2.23789 18.9501C2.18158 19.098 2.0913 19.1518 1.92628 19.1758C0.826436 19.3381 0.0168433 20.2677 -0.000629943 21.3682C-0.0239276 22.7511 1.13028 23.8017 2.53784 23.6865C2.67957 23.674 2.81741 23.6039 2.97079 23.7335C3.41248 24.1119 3.79009 24.5114 3.93085 25.1058C4.02113 25.49 4.20362 25.852 4.34244 26.2246C4.41524 26.4234 4.53173 26.6126 4.75209 26.6126C4.98895 26.6135 5.00739 26.7538 5.05884 26.9093C5.52674 28.3316 5.9956 29.7548 6.47126 31.1751C6.72171 31.9232 7.40123 32.2017 8.11277 31.8483C8.67192 31.5708 9.22912 31.2855 9.77953 30.9898C10.5221 30.5903 10.6338 29.7615 10.03 29.169C9.81933 28.9625 9.60479 28.7589 9.37958 28.5688C9.21068 28.4257 9.10972 28.2557 9.04759 28.0464C8.83791 27.3396 8.6195 26.6356 8.39914 25.9317C8.33896 25.7387 8.27489 25.5697 8.48748 25.4083C8.59717 25.3248 8.60591 25.1635 8.57484 25.0146C8.52048 24.7505 8.48068 24.4835 8.42826 24.2195C8.28362 23.4906 8.28265 23.4954 9.05827 23.4627C10.4066 23.4051 11.6579 23.7595 12.8616 24.3212C13.9818 24.8437 14.973 25.5553 15.9388 26.3197C17.0892 27.2282 18.3861 26.9967 19.2248 25.7982C19.5374 25.3507 19.7587 24.8561 19.8868 24.3318C19.9548 24.0533 20.0761 23.9967 20.344 23.9967C24.0911 24.0063 27.8381 24.0053 31.5842 24.0015C33.0878 24.0005 33.9994 23.0959 33.9994 21.615V2.4018C33.9994 0.886403 33.1073 2.17843e-05 31.5725 2.17843e-05ZM0.979813 21.6698C0.856529 20.9918 1.20405 20.3858 1.85833 20.1765C1.77484 21.0677 1.87386 21.9233 2.2806 22.7319C1.6438 22.7588 1.09339 22.3017 0.979813 21.6698ZM4.16674 23.3475C4.00462 23.3801 3.90464 23.3436 3.78912 23.239C2.80285 22.3401 2.47474 20.5625 3.07951 19.3688C3.14552 19.2392 3.21736 19.1374 3.38335 19.1096C4.49096 18.9252 5.5976 18.7312 6.74501 18.5334C6.33827 19.9739 6.48194 21.3366 7.48762 22.7588C6.85956 22.8721 6.24896 22.9854 5.63643 23.093C5.14621 23.1794 4.65405 23.2486 4.16674 23.3475ZM5.05399 25.4323C4.92779 25.0809 4.80451 24.7284 4.66084 24.3837C4.59289 24.2233 4.67637 24.2031 4.79092 24.183C5.59275 24.0428 6.39457 23.9025 7.1964 23.7633C7.28959 23.747 7.3789 23.7172 7.40123 23.867C7.43908 24.1321 7.49733 24.3952 7.56334 24.7486C7.57499 24.7928 7.50995 24.8408 7.38569 24.8782C6.68676 25.0866 5.98881 25.3017 5.29473 25.5255C5.16853 25.5658 5.10155 25.5658 5.05399 25.4323ZM8.93887 29.4407C9.58053 30.039 9.58441 30.0361 8.80976 30.4356C8.4438 30.6248 8.07298 30.8073 7.71089 31.0032C7.5313 31.1012 7.43326 31.0714 7.36822 30.8745C6.88965 29.4196 6.40622 27.9676 5.92377 26.5146C5.89853 26.4368 5.85484 26.336 5.95968 26.3014C6.40816 26.1555 6.86053 26.022 7.34201 25.8751C7.44394 25.9019 7.43908 26.0181 7.46821 26.1103C7.70798 26.892 7.97008 27.6689 8.17781 28.4593C8.29721 28.9087 8.63309 29.1555 8.93887 29.4407ZM13.6896 23.6749C12.1588 22.9009 10.56 22.414 8.81559 22.5494C8.66415 22.561 8.57484 22.4909 8.47874 22.4006C7.4517 21.4412 7.16728 19.6281 7.8565 18.4095C7.92445 18.2885 7.98949 18.1704 8.13996 18.1137C9.78826 17.4943 11.224 16.5426 12.5189 15.37C12.55 15.3422 12.5917 15.3249 12.6442 15.2932C12.2704 18.2366 12.75 21.0244 13.9343 23.7114C13.8401 23.8046 13.7644 23.7124 13.6896 23.6749ZM13.8149 20.4146C13.71 19.7568 13.5887 19.1028 13.513 18.4402C13.4897 18.2318 13.5644 18.1243 13.7382 18.0234C14.0527 17.841 14.3692 17.6527 14.6575 17.4319C14.9089 17.2398 15.0603 17.3512 15.2137 17.5385C15.6806 18.1118 15.8787 18.7927 15.9961 19.5014C16.0379 19.7539 16.0514 20.0123 16.0709 20.2014C16.0544 20.6557 16.0155 21.036 15.8738 21.4028C15.7913 21.615 15.6981 21.7005 15.4574 21.5814C15.1525 21.4316 14.8332 21.2981 14.506 21.2069C14.0828 21.0888 13.8838 20.8458 13.8149 20.4146ZM18.9899 24.0235C18.8578 24.4999 18.6724 24.9551 18.3715 25.3546C17.8648 26.0287 17.2018 26.1036 16.5261 25.5908C15.5292 24.8321 14.9943 23.7681 14.5187 22.6628C14.4585 22.5235 14.4119 22.3785 14.3381 22.1807C14.6963 22.2508 14.9827 22.4054 15.2797 22.5226C15.8097 22.7309 16.166 22.632 16.5164 22.173C16.8203 21.7745 16.9387 21.3068 16.9795 20.8276C17.0814 19.6598 16.8795 18.542 16.3242 17.4972C16.1854 17.2369 16.0146 16.9988 15.801 16.7923C15.2622 16.2718 14.8167 16.2247 14.1915 16.6252C13.9653 16.7692 13.7362 16.9104 13.4557 17.0871C13.4955 15.9751 13.6013 14.9427 14.0061 13.9612C14.1381 13.6424 14.3245 13.3582 14.5429 13.097C14.9031 12.6658 15.404 12.5592 15.9155 12.8108C16.7281 13.2112 17.2154 13.9219 17.6425 14.67C18.5297 16.2209 18.985 17.9082 19.2044 19.6637C19.3879 21.1282 19.3888 22.5859 18.9899 24.0235ZM32.6413 4.99084C28.1138 4.97739 23.5863 4.9822 19.0588 4.9822C14.5313 4.9822 10.0737 4.97643 5.58207 4.9918C5.20542 4.99276 5.13553 4.88424 5.14718 4.54525C5.17339 3.80676 5.15203 3.0673 5.15592 2.32881C5.16077 1.41938 5.64517 0.9373 6.55669 0.93634H31.6259C32.5569 0.93634 33.048 1.4213 33.0519 2.34418C33.0558 3.08267 33.0345 3.82212 33.0607 4.56061C33.0723 4.89096 32.9966 4.9918 32.6413 4.99084ZM5.96648 21.471C5.9228 21.2021 5.73544 21.0494 5.46752 21.0811C5.03554 21.133 4.60454 21.2079 4.18033 21.3068C3.92017 21.3673 3.79009 21.5709 3.84057 21.8398C3.88814 22.0914 4.0619 22.2133 4.4036 22.2124C4.76374 22.1471 5.20736 22.0798 5.64322 21.98C5.89367 21.9224 6.00725 21.7216 5.96648 21.471ZM4.08908 20.7584C4.50844 20.7066 4.92585 20.623 5.34133 20.5385C5.57624 20.4905 5.7005 20.3301 5.71312 20.09C5.71506 19.8288 5.51023 19.5926 5.24716 19.6233C4.79189 19.6781 4.33856 19.7626 3.89202 19.8644C3.63963 19.922 3.52896 20.1304 3.57653 20.3772C3.62701 20.6413 3.82115 20.7911 4.08908 20.7584ZM5.24716 19.6233C4.79189 19.6781 4.33856 19.7626 3.89202 19.8644C3.63963 19.922 3.52896 20.1304 3.57653 20.3772C3.62701 20.6413 3.82115 20.7911 4.08908 20.7584C4.50844 20.7066 4.92585 20.623 5.34133 20.5385C5.57624 20.4905 5.7005 20.3301 5.71312 20.09C5.71506 19.8288 5.51023 19.5926 5.24716 19.6233ZM5.96648 21.471C5.9228 21.2021 5.73544 21.0494 5.46752 21.0811C5.03554 21.133 4.60454 21.2079 4.18033 21.3068C3.92017 21.3673 3.79009 21.5709 3.84057 21.8398C3.88814 22.0914 4.0619 22.2133 4.4036 22.2124C4.76374 22.1471 5.20736 22.0798 5.64322 21.98C5.89367 21.9224 6.00725 21.7216 5.96648 21.471ZM5.96648 21.471C5.9228 21.2021 5.73544 21.0494 5.46752 21.0811C5.03554 21.133 4.60454 21.2079 4.18033 21.3068C3.92017 21.3673 3.79009 21.5709 3.84057 21.8398C3.88814 22.0914 4.0619 22.2133 4.4036 22.2124C4.76374 22.1471 5.20736 22.0798 5.64322 21.98C5.89367 21.9224 6.00725 21.7216 5.96648 21.471ZM5.24716 19.6233C4.79189 19.6781 4.33856 19.7626 3.89202 19.8644C3.63963 19.922 3.52896 20.1304 3.57653 20.3772C3.62701 20.6413 3.82115 20.7911 4.08908 20.7584C4.50844 20.7066 4.92585 20.623 5.34133 20.5385C5.57624 20.4905 5.7005 20.3301 5.71312 20.09C5.71506 19.8288 5.51023 19.5926 5.24716 19.6233ZM5.24716 19.6233C4.79189 19.6781 4.33856 19.7626 3.89202 19.8644C3.63963 19.922 3.52896 20.1304 3.57653 20.3772C3.62701 20.6413 3.82115 20.7911 4.08908 20.7584C4.50844 20.7066 4.92585 20.623 5.34133 20.5385C5.57624 20.4905 5.7005 20.3301 5.71312 20.09C5.71506 19.8288 5.51023 19.5926 5.24716 19.6233ZM5.96648 21.471C5.9228 21.2021 5.73544 21.0494 5.46752 21.0811C5.03554 21.133 4.60454 21.2079 4.18033 21.3068C3.92017 21.3673 3.79009 21.5709 3.84057 21.8398C3.88814 22.0914 4.0619 22.2133 4.4036 22.2124C4.76374 22.1471 5.20736 22.0798 5.64322 21.98C5.89367 21.9224 6.00725 21.7216 5.96648 21.471ZM5.96648 21.471C5.9228 21.2021 5.73544 21.0494 5.46752 21.0811C5.03554 21.133 4.60454 21.2079 4.18033 21.3068C3.92017 21.3673 3.79009 21.5709 3.84057 21.8398C3.88814 22.0914 4.0619 22.2133 4.4036 22.2124C4.76374 22.1471 5.20736 22.0798 5.64322 21.98C5.89367 21.9224 6.00725 21.7216 5.96648 21.471ZM5.24716 19.6233C4.79189 19.6781 4.33856 19.7626 3.89202 19.8644C3.63963 19.922 3.52896 20.1304 3.57653 20.3772C3.62701 20.6413 3.82115 20.7911 4.08908 20.7584C4.50844 20.7066 4.92585 20.623 5.34133 20.5385C5.57624 20.4905 5.7005 20.3301 5.71312 20.09C5.71506 19.8288 5.51023 19.5926 5.24716 19.6233Z" fill="white"/>
<path d="M31.3839 8.42783C31.3819 7.98224 31.2353 7.83435 30.7937 7.83243C30.1539 7.82859 29.5142 7.82955 28.8745 7.83243C28.4289 7.83435 28.2765 7.98032 28.2756 8.42591C28.2717 10.3485 28.2717 12.2701 28.2746 14.1927C28.2756 14.6603 28.427 14.8054 28.8891 14.8073C29.5171 14.8102 30.1452 14.8102 30.7733 14.8073C31.2363 14.8054 31.3829 14.6604 31.3839 14.1956C31.3868 13.2458 31.3848 12.296 31.3848 11.3472C31.3848 10.3984 31.3868 9.4016 31.3839 8.42783ZM30.4452 11.3088C30.4452 12.0809 30.4384 12.854 30.449 13.6261C30.452 13.8239 30.3957 13.895 30.1928 13.8815C29.888 13.8604 29.4938 13.9756 29.2997 13.8268C29.091 13.6674 29.2327 13.2592 29.2308 12.9615C29.223 11.6622 29.2347 10.3629 29.2211 9.06357C29.2191 8.81676 29.2851 8.72937 29.5346 8.75722C29.8249 8.78987 30.2054 8.63718 30.3879 8.81484C30.5714 8.99346 30.4374 9.36895 30.4423 9.65801C30.452 10.2083 30.4452 10.7585 30.4452 11.3088Z" fill="white"/>
<path d="M27.577 10.1709C27.5712 9.78104 27.3984 9.61202 27.0091 9.60722C26.3461 9.6005 25.6831 9.6005 25.0201 9.60818C24.6298 9.61202 24.4658 9.78296 24.4648 10.1748C24.4609 11.5327 24.4609 12.8915 24.4648 14.2504C24.4658 14.6432 24.6289 14.8035 25.023 14.8064C25.6627 14.8112 26.3015 14.8093 26.9412 14.8074C27.4256 14.8064 27.5751 14.6595 27.578 14.1765C27.5819 13.5206 27.5789 12.8646 27.5789 12.2087C27.5789 11.5528 27.5857 10.8499 27.577 10.1709ZM26.3859 13.8826C25.4016 13.9162 25.4016 13.922 25.4016 12.9444C25.4016 12.2308 25.4084 11.5164 25.3967 10.8028C25.3938 10.6021 25.455 10.5503 25.6549 10.5464C26.6218 10.5263 26.6208 10.5195 26.6208 11.4645V12.2376C26.6208 12.7052 26.614 13.1739 26.6247 13.6416C26.6286 13.8221 26.5742 13.8768 26.3859 13.8826Z" fill="white"/>
<path d="M23.7051 11.857C23.7022 11.5008 23.543 11.3404 23.1848 11.3356C22.4985 11.3269 21.8112 11.3269 21.1249 11.3356C20.7667 11.3404 20.6123 11.4998 20.6045 11.859C20.5948 12.2565 20.6026 12.6551 20.6016 13.0536C20.6016 13.4512 20.5968 13.8497 20.6036 14.2483C20.6104 14.6477 20.7667 14.8033 21.1618 14.8062C21.8248 14.811 22.4878 14.811 23.1508 14.8062C23.5342 14.8033 23.7012 14.6516 23.7051 14.2819C23.7128 13.4733 23.7128 12.6656 23.7051 11.857ZM22.7703 13.5827C22.7916 13.842 22.6887 13.9179 22.4509 13.8785C22.4286 13.8747 22.4043 13.8785 22.381 13.8785C21.8257 13.8785 21.5481 13.6016 21.5481 13.0478C21.5481 12.27 21.5491 12.2911 22.3208 12.2604C22.6907 12.245 22.813 12.3458 22.7712 12.7098C22.7382 12.9979 22.746 13.2937 22.7712 13.5837L22.7703 13.5827Z" fill="white"/>
<path d="M27.2461 17.2867C26.0958 17.2867 24.9455 17.2886 23.7951 17.2867C23.3758 17.2867 23.1797 17.1331 23.1797 16.8229C23.1797 16.5127 23.3816 16.3562 23.7942 16.3552C26.1181 16.3543 28.443 16.3543 30.767 16.3552C31.1795 16.3552 31.3824 16.5127 31.3834 16.821C31.3834 17.1302 31.1853 17.2858 30.7679 17.2858C29.5943 17.2887 28.4197 17.2858 27.2461 17.2858V17.2867Z" fill="white"/>
<path d="M27.316 20.65C28.478 20.65 29.6399 20.6519 30.8019 20.6481C31.032 20.6481 31.2271 20.698 31.3368 20.916C31.4746 21.1887 31.3174 21.5085 31.0126 21.5671C30.898 21.5892 30.7767 21.5853 30.6582 21.5853C28.4052 21.5853 26.1521 21.5853 23.899 21.5853C23.8165 21.5853 23.733 21.5863 23.6505 21.5815C23.3583 21.5623 23.1807 21.4154 23.1816 21.1186C23.1816 20.8209 23.3651 20.6673 23.6525 20.6548C23.9835 20.6404 24.3164 20.651 24.6484 20.651C25.5376 20.651 26.4268 20.651 27.316 20.651V20.65Z" fill="white"/>
<path d="M28.5241 18.5055C29.2706 18.5055 30.018 18.5026 30.7645 18.5055C31.1819 18.5074 31.3809 18.662 31.3809 18.9713C31.3809 19.2786 31.1732 19.4437 30.7665 19.4447C29.2609 19.4466 27.7552 19.4476 26.2496 19.4447C25.8565 19.4447 25.6381 19.2603 25.6488 18.9559C25.6585 18.6659 25.8604 18.5084 26.2477 18.5065C27.0068 18.5026 27.765 18.5055 28.5241 18.5055Z" fill="white"/>
<path d="M7.7251 8.11189C7.92604 8.11189 8.12795 8.10229 8.3289 8.11381C8.61138 8.13014 8.76378 8.29819 8.76573 8.56901C8.76767 8.84078 8.61138 9.01844 8.33375 9.02996C7.92022 9.04725 7.50474 9.04533 7.09121 9.02996C6.81067 9.02036 6.65341 8.83886 6.65244 8.57285C6.65244 8.30876 6.8029 8.13014 7.08732 8.11381C7.29992 8.10133 7.51348 8.11189 7.72607 8.11093L7.7251 8.11189Z" fill="white"/>
<path d="M10.7211 8.11101C10.9104 8.11101 11.0997 8.10621 11.289 8.11197C11.5889 8.12062 11.754 8.28771 11.7549 8.57581C11.7549 8.84662 11.5948 9.0214 11.3162 9.03101C10.9026 9.04541 10.4872 9.04637 10.0736 9.03004C9.79405 9.01852 9.63873 8.83414 9.64164 8.56717C9.64455 8.30212 9.79793 8.12734 10.0824 8.11389C10.2949 8.10333 10.5085 8.11197 10.7211 8.11197C10.7211 8.11197 10.7211 8.11197 10.7211 8.11101Z" fill="white"/>
<path d="M7.67948 13.2487C7.49019 13.2487 7.29895 13.2621 7.1116 13.2458C6.82426 13.2208 6.64759 13.0576 6.65244 12.7666C6.65827 12.4948 6.82329 12.3277 7.10092 12.3191C7.51445 12.3076 7.92993 12.3066 8.34346 12.3229C8.60362 12.3335 8.75408 12.4977 8.76573 12.756C8.77835 13.0345 8.62012 13.2045 8.35317 13.2391C8.13184 13.2669 7.90372 13.2449 7.67948 13.2449C7.67948 13.2458 7.67948 13.2477 7.67948 13.2487Z" fill="white"/>
<path d="M7.7014 11.1416C7.50046 11.1416 7.29758 11.155 7.09761 11.1378C6.80541 11.1128 6.63942 10.938 6.65204 10.6509C6.66466 10.381 6.83065 10.2206 7.11217 10.2158C7.51502 10.2091 7.91788 10.2062 8.31976 10.2178C8.59933 10.2255 8.7595 10.3916 8.76339 10.6653C8.76824 10.9582 8.59545 11.1195 8.30423 11.1397C8.10426 11.1531 7.90137 11.1426 7.70043 11.1416H7.7014Z" fill="white"/>
<path d="M10.7261 10.2168C10.927 10.2168 11.1289 10.2063 11.3299 10.2197C11.5939 10.237 11.7405 10.3945 11.7541 10.6499C11.7686 10.9256 11.6162 11.1147 11.3464 11.132C10.9222 11.1589 10.4941 11.156 10.0689 11.1349C9.79513 11.1215 9.63593 10.9361 9.64176 10.6663C9.64758 10.3983 9.80387 10.2303 10.0873 10.2178C10.2999 10.2082 10.5135 10.2159 10.727 10.2159C10.727 10.2159 10.727 10.2168 10.727 10.2178L10.7261 10.2168Z" fill="white"/>
<path d="M24.0037 18.5113C24.1338 18.5113 24.2639 18.5017 24.393 18.5132C24.6502 18.5372 24.8065 18.6832 24.825 18.9386C24.8453 19.2152 24.6852 19.3957 24.4241 19.4284C24.1455 19.4629 23.8562 19.4629 23.5776 19.4284C23.3145 19.3957 23.1621 19.2142 23.1825 18.9357C23.2009 18.6755 23.3601 18.5372 23.6154 18.5132C23.7436 18.5007 23.8746 18.5113 24.0047 18.5113H24.0037Z" fill="white"/>
<path d="M8.10756 2.94914C8.12018 3.24204 7.89886 3.4389 7.55327 3.44275C7.20672 3.44659 6.97375 3.2574 6.9718 2.97123C6.97083 2.68889 7.20769 2.49394 7.54842 2.49586C7.88041 2.49778 8.09592 2.67352 8.10756 2.94914Z" fill="white"/>
<path d="M10.1895 2.95108C10.2002 3.24686 9.9837 3.43892 9.63521 3.44276C9.28962 3.44564 9.05762 3.2555 9.05762 2.96932C9.05762 2.68315 9.28962 2.493 9.63521 2.49588C9.97108 2.49876 10.1798 2.6697 10.1895 2.95108Z" fill="white"/>
<path d="M12.2842 2.98083C12.2755 3.26509 12.0377 3.45043 11.6911 3.44179C11.3582 3.4341 11.1533 3.25644 11.1514 2.97411C11.1485 2.67449 11.362 2.49394 11.7164 2.49586C12.0571 2.49683 12.293 2.69849 12.2842 2.98083Z" fill="white"/>
<path d="M3.57716 20.3772C3.52959 20.1304 3.64025 19.922 3.89265 19.8643C4.33918 19.7626 4.79252 19.678 5.24779 19.6233C5.51086 19.5926 5.71569 19.8288 5.71374 20.09C5.70113 20.3301 5.57687 20.4905 5.34195 20.5385C4.92648 20.623 4.50906 20.7066 4.08971 20.7584C3.82178 20.7911 3.62763 20.6413 3.57716 20.3772Z" fill="white"/>
<path d="M5.64346 21.9799C5.2076 22.0798 4.76397 22.147 4.40383 22.2123C4.06213 22.2133 3.88837 22.0913 3.8408 21.8397C3.79033 21.5708 3.9204 21.3672 4.18056 21.3067C4.60477 21.2078 5.03578 21.1329 5.46776 21.081C5.73568 21.0493 5.92303 21.202 5.96671 21.4709C6.00749 21.7216 5.89391 21.9223 5.64346 21.9799Z" fill="white"/>
<path d="M12.2842 2.98083C12.2755 3.26509 12.0377 3.45043 11.6911 3.44179C11.3582 3.4341 11.1533 3.25644 11.1514 2.97411C11.1485 2.67449 11.362 2.49394 11.7164 2.49586C12.0571 2.49683 12.293 2.69849 12.2842 2.98083Z" fill="white"/>
<path d="M10.1895 2.95108C10.2002 3.24686 9.9837 3.43892 9.63521 3.44276C9.28962 3.44564 9.05762 3.2555 9.05762 2.96932C9.05762 2.68315 9.28962 2.493 9.63521 2.49588C9.97108 2.49876 10.1798 2.6697 10.1895 2.95108Z" fill="white"/>
<path d="M8.10756 2.94914C8.12018 3.24204 7.89886 3.4389 7.55327 3.44275C7.20672 3.44659 6.97375 3.2574 6.9718 2.97123C6.97083 2.68889 7.20769 2.49394 7.54842 2.49586C7.88041 2.49778 8.09592 2.67352 8.10756 2.94914Z" fill="white"/>
<path d="M5.64346 21.9799C5.2076 22.0798 4.76397 22.147 4.40383 22.2123C4.06213 22.2133 3.88837 22.0913 3.8408 21.8397C3.79033 21.5708 3.9204 21.3672 4.18056 21.3067C4.60477 21.2078 5.03578 21.1329 5.46776 21.081C5.73568 21.0493 5.92303 21.202 5.96671 21.4709C6.00749 21.7216 5.89391 21.9223 5.64346 21.9799Z" fill="white"/>
<path d="M5.71374 20.09C5.70113 20.3301 5.57687 20.4905 5.34195 20.5385C4.92648 20.623 4.50906 20.7066 4.08971 20.7584C3.82178 20.7911 3.62763 20.6413 3.57716 20.3772C3.52959 20.1304 3.64025 19.922 3.89265 19.8643C4.33918 19.7626 4.79252 19.678 5.24779 19.6233C5.51086 19.5926 5.71569 19.8288 5.71374 20.09Z" fill="white"/>
</g>
<defs>
<clipPath id="clip0_1_7479">
<rect width="34" height="32" fill="white"/>
</clipPath>
</defs>
</svg>
