<?xml version="1.0" encoding="UTF-8"?>
<svg xmlns="http://www.w3.org/2000/svg" width="53" height="53" viewBox="0 0 53 53" fill="none">
  <g clip-path="url(#clip0_8867_31982)">
    <path d="M28.6027 20.9142L26.1929 18.8777L26.5046 15.7377C26.5219 15.5689 26.4914 15.3986 26.4165 15.2464C26.3416 15.0941 26.2252 14.9661 26.0809 14.8769C25.9372 14.7866 25.771 14.7385 25.6013 14.7383C25.4315 14.7381 25.2652 14.7858 25.1213 14.8757L22.4396 16.5382L19.5499 15.2717C19.3947 15.2029 19.2233 15.1793 19.0553 15.2035C18.8873 15.2276 18.7296 15.2987 18.6001 15.4084C18.4698 15.5172 18.3727 15.6604 18.3201 15.8218C18.2675 15.9832 18.2614 16.1561 18.3025 16.3208L19.055 19.385L16.9575 21.7417C16.8442 21.8681 16.7687 22.0238 16.7398 22.1911C16.7108 22.3583 16.7296 22.5304 16.794 22.6874C16.8571 22.845 16.9633 22.9816 17.1005 23.0815C17.2377 23.1814 17.4003 23.2407 17.5696 23.2524L20.7164 23.4837L22.3099 26.2072C22.3894 26.3442 22.5036 26.458 22.641 26.5369C22.7784 26.6158 22.9341 26.6572 23.0926 26.6569C23.2736 26.6579 23.4507 26.6046 23.601 26.5038C23.7514 26.403 23.8679 26.2593 23.9356 26.0914L25.1279 23.1701L28.2108 22.4961C28.3767 22.4604 28.5291 22.3787 28.6507 22.2603C28.7723 22.142 28.8581 21.9918 28.8983 21.8269C28.9397 21.6624 28.9339 21.4895 28.8816 21.3281C28.8294 21.1667 28.7327 21.0233 28.6027 20.9142ZM24.4708 21.7317C24.3269 21.7632 24.1927 21.8292 24.08 21.924C23.9672 22.0188 23.8792 22.1397 23.8235 22.2761L22.9923 24.3126L21.881 22.4135C21.8066 22.2865 21.7024 22.1795 21.5774 22.1017C21.4524 22.0239 21.3104 21.9776 21.1636 21.9668L18.9699 21.8056L20.4324 20.1621C20.5303 20.052 20.5999 19.9198 20.6354 19.7769C20.6708 19.6339 20.671 19.4845 20.6359 19.3415L20.1112 17.2054L22.1253 18.088C22.2603 18.1473 22.4077 18.1729 22.5548 18.1625C22.7019 18.1521 22.8442 18.106 22.9695 18.0283L24.8391 16.8692L24.6219 19.0581C24.6073 19.2047 24.6286 19.3527 24.684 19.4893C24.7393 19.6259 24.8271 19.747 24.9396 19.8421L26.6197 21.2618L24.4708 21.7317Z" fill="#008EFF"></path>
    <path d="M50.9233 40.0442L48.3473 37.7688C47.6903 37.1886 46.689 37.1765 46.0181 37.7406L45.9026 37.8378C45.7887 37.4274 45.5806 37.039 45.2754 36.7103C44.9024 36.3085 44.4288 36.0337 43.9071 35.9101C44.208 34.9859 44.0135 33.9295 43.3068 33.1682C42.8041 32.6267 42.1207 32.3134 41.3825 32.2862C41.3602 32.2854 41.3381 32.2857 41.316 32.2854C41.3498 31.5686 41.1078 30.8395 40.5824 30.2734C40.0859 29.7385 39.413 29.4269 38.685 29.393C38.7507 28.641 38.5111 27.8653 37.9585 27.2699C37.4558 26.7285 36.7724 26.4152 36.0341 26.388C35.2956 26.3602 34.5911 26.6226 34.0498 27.1253L33.683 27.4661C33.1501 27.0814 32.5125 26.863 31.8354 26.8408C31.7506 26.8382 31.6657 26.8388 31.5809 26.8424L31.8558 25.925C32.3489 24.2795 32.6557 21.2965 32.6466 21.4565C32.6732 21.4694 32.6993 21.4827 32.7265 21.4948C33.1016 21.6616 33.5076 21.7477 33.9181 21.7474C34.3835 21.7474 34.8466 21.6371 35.2604 21.418C36.122 20.9619 36.7335 20.0085 36.7821 19.0455C36.8284 18.1291 36.3968 17.3199 35.567 16.7668C35.3965 16.6532 35.1878 16.612 34.9868 16.6522C34.7858 16.6924 34.609 16.8108 34.4954 16.9813C34.3817 17.1519 34.3405 17.3606 34.3807 17.5616C34.421 17.7626 34.5394 17.9393 34.7099 18.053C35.079 18.2989 35.2568 18.6065 35.2385 18.9675C35.2171 19.3921 34.9221 19.8482 34.5373 20.0519C34.1844 20.2389 33.7318 20.2508 33.3561 20.0831C33.1161 19.9761 32.805 19.7485 32.686 19.272C32.3315 17.8529 33.1445 16.4444 34.0857 14.8136C35.7907 11.8596 37.9126 8.18343 33.471 2.93353L31.6315 0.759289C31.4499 0.543431 31.2273 0.365801 30.9765 0.236717C30.7257 0.107633 30.4518 0.0296685 30.1706 0.00735194C29.8895 -0.0165487 29.6065 0.0156356 29.338 0.102035C29.0695 0.188435 28.8208 0.327328 28.6065 0.510645C28.0225 1.00732 27.5676 1.63804 27.2805 2.34887C26.9935 3.0597 26.8829 3.82948 26.9582 4.59237L27.05 5.52111C27.0728 5.75545 27.0405 5.99187 26.9555 6.21145C26.8705 6.43103 26.7353 6.62765 26.5607 6.78556L27.5566 7.96977C27.9233 7.64981 28.2082 7.24685 28.3876 6.79447C28.5671 6.34208 28.6358 5.85337 28.588 5.36905L28.4962 4.44031C28.4454 3.92592 28.52 3.40687 28.7135 2.92758C28.907 2.44829 29.2138 2.02302 29.6075 1.68814C29.6673 1.63692 29.7367 1.59812 29.8116 1.57402C29.8865 1.54992 29.9655 1.541 30.0439 1.54777C30.1223 1.55399 30.1987 1.57573 30.2687 1.61174C30.3386 1.64774 30.4008 1.69728 30.4514 1.75749L32.2909 3.93173C36.0305 8.35195 34.4355 11.1154 32.747 14.0409C32.4828 14.4985 32.2166 14.9604 31.9757 15.4287C31.3371 13.2342 30.2683 11.1939 28.7905 9.4369L25.2534 5.23137L25.2732 5.21471C25.4132 5.09771 25.5285 4.95412 25.6125 4.79224C25.6966 4.63037 25.7477 4.45343 25.7629 4.27168C25.7791 4.09001 25.7591 3.90693 25.704 3.73305C25.649 3.55916 25.56 3.39793 25.4422 3.25867L24.312 1.91494C24.195 1.77502 24.0514 1.6597 23.8895 1.57565C23.7277 1.49161 23.5507 1.4405 23.369 1.42531C23.1873 1.40914 23.0042 1.42915 22.8303 1.48418C22.6564 1.5392 22.4952 1.62816 22.3559 1.7459L4.49559 16.7674C3.90979 17.26 3.83402 18.1374 4.32665 18.7234L5.45683 20.0671C5.57385 20.2071 5.71745 20.3224 5.87934 20.4064C6.04124 20.4905 6.21819 20.5416 6.39997 20.5568C6.58162 20.573 6.76471 20.5531 6.93859 20.498C7.11247 20.443 7.27368 20.3539 7.41287 20.2361L7.43284 20.2192L8.76126 21.7987C8.57663 21.9415 8.36139 22.0394 8.13248 22.0849C7.90357 22.1304 7.66723 22.1221 7.44206 22.0607L6.5422 21.8137C5.80291 21.6109 5.02549 21.5902 4.27644 21.7533C3.52739 21.9164 2.82901 22.2586 2.24102 22.7505C2.0242 22.9309 1.84538 23.1526 1.71497 23.4027C1.58455 23.6528 1.50513 23.9264 1.48132 24.2074C1.4559 24.4884 1.48656 24.7715 1.57152 25.0405C1.65648 25.3094 1.79405 25.5588 1.97623 25.7742L3.80938 27.9537C8.23561 33.2165 12.2169 31.7447 15.416 30.562C16.8597 30.0282 18.1425 29.5541 19.2942 29.7204C19.5083 29.7808 19.7236 29.8373 19.9398 29.8897C19.9755 29.9037 20.0111 29.9181 20.0466 29.9336C20.4962 30.1311 20.6681 30.4761 20.7333 30.7307C20.8351 31.1292 20.747 31.5733 20.5033 31.8897C20.2377 32.2348 19.7385 32.4481 19.3162 32.3981C18.9573 32.3553 18.6841 32.1281 18.5038 31.723C18.4187 31.5386 18.2644 31.3951 18.0743 31.3236C17.8842 31.2521 17.6736 31.2583 17.488 31.3408C17.3024 31.4234 17.1568 31.5756 17.0826 31.7647C17.0084 31.9537 17.0116 32.1644 17.0915 32.3511C17.4967 33.2623 18.2218 33.824 19.1328 33.9328C19.2336 33.9448 19.335 33.9508 19.4365 33.9507C20.3042 33.9506 21.1956 33.524 21.7277 32.8328C22.2627 32.1382 22.4507 31.2092 22.2305 30.348C22.2254 30.3283 22.2193 30.3092 22.2138 30.2897C22.9232 30.3699 23.6366 30.4103 24.3505 30.4105C25.1225 30.4105 25.9034 30.3643 26.6883 30.2707L26.7567 30.2625C26.4042 30.6824 26.132 31.1636 25.9537 31.6821L22.9158 39.1545L6.71124 51.6145C6.58324 51.7129 6.48926 51.8489 6.4425 52.0034C6.39574 52.1579 6.39853 52.3232 6.4505 52.476C6.50247 52.6289 6.601 52.7616 6.73226 52.8556C6.86351 52.9495 7.02091 53.0001 7.18234 53H25.5431C25.6463 53 25.7485 52.9793 25.8435 52.9392C25.9386 52.8991 26.0247 52.8404 26.0967 52.7665L27.1193 51.7165C27.2613 51.5695 27.3392 51.3722 27.336 51.1679C27.3329 50.9635 27.2489 50.7688 27.1026 50.6262C26.9562 50.4836 26.7593 50.4048 26.5549 50.407C26.3506 50.4092 26.1554 50.4922 26.0121 50.638L25.217 51.4544H9.45533L24.0243 40.2523C24.0351 40.244 24.0447 40.235 24.0549 40.2263C24.0618 40.2204 24.0689 40.2147 24.0757 40.2085C24.1003 40.1859 24.1232 40.1621 24.1443 40.137C24.1484 40.1321 24.1523 40.1268 24.1563 40.1216C24.1756 40.0976 24.1932 40.0727 24.2092 40.0468C24.2122 40.0419 24.2155 40.0373 24.2184 40.0323C24.2366 40.0014 24.2524 39.9697 24.266 39.937C24.267 39.9348 24.2683 39.9328 24.2691 39.9306L27.3945 32.2432C27.4005 32.2283 27.4061 32.2133 27.4112 32.1982C27.5649 31.7435 27.8281 31.3336 28.1777 31.0047L30.3974 28.9155C30.7785 28.5568 31.27 28.3684 31.7844 28.3855C32.27 28.4016 32.7163 28.6025 33.0412 28.9515L33.1238 29.0402L33.1239 29.0403L33.124 29.0404L35.839 31.9565L35.8392 31.9568L35.8395 31.9571L35.8396 31.9572L35.8401 31.9579L35.8407 31.9585L36.2254 32.3716C36.3875 32.5457 36.4718 32.7757 36.463 33.0192C36.4536 33.2807 36.3401 33.5253 36.1437 33.7078L35.6962 34.1236C35.3866 34.4112 34.9467 34.4655 34.6051 34.2914C34.5962 34.2866 34.5869 34.2825 34.5776 34.278C34.4966 34.233 34.4233 34.1756 34.3602 34.1078L33.2332 32.8954C32.8304 32.4622 32.2801 32.2126 31.6838 32.1927C31.0727 32.1728 30.4872 32.3943 30.0373 32.8177C29.9541 32.8961 29.8892 32.992 29.8475 33.0984C29.8057 33.2049 29.7881 33.3194 29.7959 33.4335C29.7997 33.4922 29.8023 33.5502 29.8038 33.608C29.8046 33.6405 29.8045 33.6727 29.8047 33.705C29.805 33.7298 29.8054 33.7548 29.8051 33.7794C29.8046 33.8206 29.8032 33.8614 29.8016 33.9021C29.8011 33.9169 29.8007 33.9317 29.8 33.9465C29.7977 33.9925 29.7945 34.0381 29.7908 34.0833L29.7893 34.1012C29.787 34.1205 29.7855 34.1399 29.7847 34.1593C29.7125 34.8748 29.4539 35.5152 29.0021 36.1016C28.9402 36.182 28.8947 36.2738 28.8682 36.3717C28.8417 36.4697 28.8348 36.5719 28.8479 36.6726C28.8609 36.7732 28.8937 36.8703 28.9443 36.9583C28.9948 37.0463 29.0622 37.1234 29.1426 37.1853C29.223 37.2473 29.3148 37.2928 29.4128 37.3192C29.5107 37.3457 29.613 37.3526 29.7136 37.3395C29.8142 37.3265 29.9113 37.2938 29.9993 37.2432C30.0873 37.1926 30.1644 37.1252 30.2264 37.0448C30.4883 36.7065 30.7097 36.3386 30.8861 35.9487L37.4592 44.9389L37.3024 45.0708C37.2013 45.1053 37.1086 45.1605 37.03 45.2328C36.4838 45.7354 35.8152 46.0741 35.0944 46.214L30.2549 46.5618C30.0661 46.5754 29.8888 46.6578 29.7567 46.7934L28.5213 48.0619C28.3808 48.2092 28.3042 48.406 28.3079 48.6095C28.3117 48.8129 28.3956 49.0067 28.5413 49.1488C28.6871 49.2908 28.883 49.3696 29.0866 49.368C29.2901 49.3664 29.4848 49.2847 29.6284 49.1404L30.6588 48.0824L35.2494 47.7526C35.2582 47.752 35.2667 47.7502 35.2754 47.7493C35.295 48.0323 35.3825 48.3064 35.5306 48.5483L37.3307 51.476C37.465 51.6946 37.6449 51.8816 37.858 52.0243C38.0712 52.167 38.3126 52.262 38.5659 52.3028C38.8191 52.3439 39.0782 52.3297 39.3255 52.2615C39.5728 52.1932 39.8024 52.0723 39.9987 51.9071L50.8904 42.7468C51.0867 42.5817 51.2452 42.3762 51.3549 42.1444C51.4646 41.9125 51.5229 41.6596 51.526 41.4031C51.5292 41.1466 51.4771 40.8924 51.373 40.6578C51.269 40.4233 51.1156 40.214 50.9233 40.0442ZM14.8802 29.1123C11.7117 30.2837 8.71903 31.39 4.99246 26.959L3.15931 24.7795C3.05641 24.657 3.00734 24.5018 3.02132 24.3424C3.03529 24.183 3.11055 24.0386 3.23332 23.936C3.62979 23.6044 4.10068 23.3737 4.60572 23.2637C5.11076 23.1537 5.63494 23.1677 6.13341 23.3044L7.03327 23.5514C7.49992 23.6792 7.99027 23.6944 8.46393 23.5956C8.93759 23.4969 9.38102 23.287 9.7577 22.9834L10.9701 24.4249C12.4514 26.1862 14.2834 27.5916 16.342 28.5973C15.852 28.7532 15.3639 28.9334 14.8802 29.1123ZM30.375 25.4813L29.7915 27.4285C29.6308 27.5365 29.4791 27.6574 29.3379 27.7899L28.5985 28.4858L26.5052 28.7359C20.8782 29.4083 15.5124 27.4246 12.1528 23.43L8.61582 19.2245L9.99662 18.0632C10.0743 17.9978 10.1383 17.9179 10.1851 17.8278C10.2319 17.7377 10.2604 17.6393 10.2692 17.5382C10.2779 17.4371 10.2666 17.3352 10.236 17.2385C10.2053 17.1417 10.1559 17.052 10.0906 16.9743C10.0253 16.8966 9.94533 16.8325 9.85526 16.7857C9.76519 16.739 9.66678 16.7104 9.56566 16.7016C9.46454 16.6929 9.36269 16.7042 9.26593 16.7348C9.16917 16.7655 9.07939 16.8149 9.00173 16.8802L7.02975 18.5386L7.02944 18.5388L7.02913 18.5391L6.53847 18.9519L5.61076 17.8489L23.2306 3.03001L24.1583 4.13307L23.6683 4.54517L23.6673 4.54589L23.6664 4.54672L11.7891 14.536C11.6322 14.6679 11.5342 14.8568 11.5165 15.061C11.4989 15.2652 11.5631 15.468 11.695 15.6249C11.827 15.7818 12.0158 15.8798 12.22 15.8975C12.4243 15.9151 12.6271 15.8509 12.784 15.719L24.0707 6.22616L27.6077 10.4317C30.9674 14.4265 32.0019 20.0525 30.375 25.4813ZM43.3145 37.3823C43.4707 37.3877 43.6244 37.424 43.7666 37.4891C43.9087 37.5543 44.0365 37.647 44.1426 37.7619C44.3208 37.9544 44.4305 38.2003 44.4545 38.4616C44.4785 38.7228 44.4155 38.9846 44.2753 39.2063L40.908 42.0384C40.729 42.0541 40.5487 42.0284 40.3811 41.9635C40.2135 41.8986 40.063 41.796 39.9412 41.6638C39.4949 41.1831 39.5229 40.4289 40.0033 39.9824L40.4912 39.5291C40.5811 39.4638 40.667 39.3933 40.7486 39.3178L42.6332 37.5671C42.8364 37.438 43.0739 37.3736 43.3145 37.3823ZM40.5411 34.0793C40.7653 33.9074 41.0427 33.8194 41.3251 33.8307C41.4853 33.8362 41.6428 33.8734 41.7885 33.9402C41.9342 34.0069 42.0652 34.1019 42.1739 34.2197C42.6314 34.7123 42.6028 35.4855 42.1103 35.943L41.6652 36.3566C41.5755 36.4216 41.4898 36.4919 41.4084 36.5671L39.5216 38.32C39.3133 38.454 39.0688 38.5205 38.8214 38.5106C38.6612 38.5051 38.5037 38.4679 38.358 38.4011C38.2123 38.3343 38.0813 38.2393 37.9725 38.1216C37.5451 37.6612 37.5423 36.956 37.9458 36.4923C37.9721 36.4696 37.9984 36.4467 38.024 36.423L40.4377 34.1807C40.4734 34.1475 40.5076 34.1138 40.5411 34.0793ZM36.445 30.3394L34.7828 28.5541L35.1017 28.2577C35.3405 28.036 35.6512 27.9226 35.9769 27.9325C36.137 27.938 36.2945 27.9752 36.4402 28.0419C36.5859 28.1087 36.717 28.2037 36.8257 28.3215C37.2831 28.8141 37.2545 29.5873 36.7619 30.0449L36.445 30.3394ZM36.7482 35.2561L37.1958 34.8402C37.6948 34.3766 37.9831 33.7497 38.0075 33.0753C38.0288 32.4896 37.8466 31.9301 37.4921 31.4779L37.7256 31.261C37.8426 31.1514 37.9802 31.0663 38.1304 31.0104C38.2807 30.9546 38.4405 30.9292 38.6007 30.9358C38.7608 30.9413 38.9183 30.9785 39.064 31.0453C39.2097 31.112 39.3407 31.207 39.4494 31.3248C39.877 31.7854 39.8796 32.4909 39.4758 32.9547C39.4495 32.9772 39.4236 33.0001 39.3981 33.0235L36.9844 35.2658C36.9487 35.299 36.9141 35.333 36.8806 35.3676C36.7001 35.5057 36.4841 35.5899 36.2577 35.6103C36.4347 35.5122 36.5994 35.3932 36.7482 35.2561ZM31.3462 33.9592C31.3485 33.901 31.3505 33.8428 31.3511 33.784C31.4408 33.7501 31.5364 33.7344 31.6323 33.7378C31.8143 33.7438 31.9807 33.8187 32.1012 33.9482L33.2282 35.1604C33.3414 35.2822 33.4667 35.392 33.6023 35.4881C33.7262 35.7793 33.8998 36.0468 34.1153 36.2785C34.618 36.82 35.3014 37.1332 36.0398 37.1606C36.0621 37.1613 36.0841 37.1615 36.1063 37.1618C36.0725 37.8783 36.3145 38.6074 36.8399 39.1733C37.2165 39.579 37.6945 39.8565 38.2211 39.9818C37.9134 40.901 38.1038 41.9565 38.8083 42.7154C39.0028 42.9247 39.229 43.1018 39.4788 43.2404L38.6448 43.9419L31.3462 33.9592ZM49.8955 41.5637L39.0038 50.724C38.9776 50.7462 38.947 50.7625 38.9139 50.7716C38.8809 50.7807 38.8462 50.7825 38.8124 50.7769C38.7785 50.7716 38.7462 50.759 38.7177 50.7399C38.6892 50.7208 38.6652 50.6958 38.6474 50.6664L36.8472 47.7386C36.817 47.6901 36.8054 47.6322 36.8145 47.5758C36.8236 47.5193 36.8528 47.4681 36.8968 47.4315L47.0123 38.9238L47.0127 38.9235C47.0557 38.8875 47.11 38.8678 47.1661 38.8679C47.2227 38.8679 47.2792 38.8878 47.3238 38.9273L49.8998 41.2026C49.971 41.2656 49.9809 41.3434 49.9804 41.3843C49.9802 41.4186 49.9725 41.4524 49.9578 41.4834C49.9432 41.5144 49.9219 41.5418 49.8955 41.5637Z" fill="#008EFF"></path>
  </g>
  <defs>
    <clipPath id="clip0_8867_31982">
      <rect width="53" height="53" fill="white"></rect>
    </clipPath>
  </defs>
</svg>
