<svg width="84" height="78" viewBox="0 0 84 78" fill="none" xmlns="http://www.w3.org/2000/svg">
<path d="M25.1962 54.4257V54.4157L23.1418 50.8605L6.87143 22.6777H2.7627L21.0875 54.4157V54.4257H21.0924H25.1912H25.1962Z" fill="url(#paint0_linear_1_7596)"/>
<path d="M41.6111 54.4257V54.4157L39.5568 50.8605L37.5074 47.3102L35.453 43.755L33.4036 40.1997L31.3493 36.6444L23.2864 22.6777H19.1826L29.2949 40.1997L31.3493 43.755L33.4036 47.3102L35.453 50.8605L37.5074 54.4157L37.5024 54.4257H37.5074H41.6061H41.6111Z" fill="url(#paint1_linear_1_7596)"/>
<path d="M47.7639 50.8606L45.7145 47.3103L43.6602 43.7551L41.6108 40.1998L39.5564 36.6446L37.507 33.0943L35.4526 29.539L31.4935 22.6779H27.3898L33.3983 33.0893L37.507 40.1998L39.5564 43.7551L41.6108 47.3103L43.6602 50.8606L45.7145 54.4159L45.7095 54.4258H45.7145H49.8133H49.8233L49.8183 54.4159L47.7639 50.8606Z" fill="url(#paint2_linear_1_7596)"/>
<path d="M56.61 0H52.5063L37.5273 25.9489L39.5817 29.4991L56.61 0Z" fill="url(#paint3_linear_1_7596)"/>
<path d="M29.2996 54.4258H33.3983H33.4033V54.4159L31.349 50.8606L29.2996 47.3103L27.2452 43.7551L15.0786 22.6779H10.9748L25.1908 47.3053L27.2452 50.8606L29.2996 54.4159L29.2946 54.4258H29.2996Z" fill="url(#paint4_linear_1_7596)"/>
<path d="M43.6804 36.6096L64.8174 0H60.7137L41.631 33.0544L41.6509 33.0943L43.6804 36.6096Z" fill="url(#paint5_linear_1_7596)"/>
<path d="M47.7839 43.7152L73.0247 0H68.9209L45.7345 40.1599L45.7544 40.1998L47.7839 43.7152Z" fill="url(#paint6_linear_1_7596)"/>
<path d="M81.2328 0H77.1291L49.8389 47.2704L49.8588 47.3103L51.8932 50.8257L81.2328 0Z" fill="url(#paint7_linear_1_7596)"/>
<path d="M5.38991 69.2653C4.98602 69.6392 4.43254 69.8686 3.83418 69.8686C2.56267 69.8686 1.53548 68.8514 1.53548 67.5799C1.53548 66.3084 2.56267 65.2912 3.83418 65.2912C4.42755 65.2912 4.98602 65.5255 5.38991 65.9045L6.47195 64.8125C5.78383 64.1543 4.85637 63.7554 3.83916 63.7554C1.72995 63.7554 0.0146484 65.4707 0.0146484 67.5799C0.0146484 69.6891 1.72995 71.4044 3.83916 71.4044C4.85637 71.4044 5.78882 71.0005 6.47195 70.3473L5.38991 69.2653Z" fill="url(#paint8_linear_1_7596)"/>
<path d="M16.5499 63.7551C14.4407 63.7551 12.7254 65.4704 12.7254 67.5796C12.7254 69.6889 14.4407 71.4042 16.5499 71.4042C18.6591 71.4042 20.3744 69.6889 20.3744 67.5796C20.3744 65.4704 18.6591 63.7551 16.5499 63.7551ZM16.5499 69.8783C15.2784 69.8783 14.2512 68.8512 14.2512 67.5796C14.2512 66.3081 15.2784 65.2909 16.5499 65.2909C17.8214 65.2909 18.8386 66.3181 18.8386 67.5796C18.8386 68.8412 17.8114 69.8783 16.5499 69.8783Z" fill="url(#paint9_linear_1_7596)"/>
<path d="M31.0151 69.3448L28.7762 63.7551H27.1307V71.4042H28.6565V67.5796L30.1873 71.4042H31.8328L33.3686 67.5796V71.4042H34.8895V63.7551H33.244L31.0151 69.3448Z" fill="url(#paint10_linear_1_7596)"/>
<path d="M43.7905 63.7554H41.6514V71.4044H43.1772V68.3478H43.8005C45.062 68.3478 46.0792 67.3206 46.0792 66.0591C46.0792 64.7975 45.062 63.7604 43.7905 63.7604V63.7554ZM43.7905 66.812H43.1772V65.2862H43.7905C44.2143 65.2862 44.5584 65.6302 44.5584 66.0541C44.5584 66.4779 44.2143 66.812 43.7905 66.812Z" fill="url(#paint11_linear_1_7596)"/>
<path d="M54.5954 63.7551L51.833 71.4042H53.4586L54.2364 69.265H56.585L57.3628 71.4042H58.9884L56.226 63.7551H54.6004H54.5954ZM54.7899 67.7292L55.4032 66.004L56.0265 67.7292H54.7849H54.7899Z" fill="url(#paint12_linear_1_7596)"/>
<path d="M71.9085 63.7554H70.3876V68.8614L67.331 63.7554H65.5459V71.4044H67.0667V66.3084L70.1333 71.4044H71.9085V63.7554Z" fill="url(#paint13_linear_1_7596)"/>
<path d="M81.9903 71.4042V67.7592L83.9848 63.7551H82.2795L81.2324 65.8743L80.1753 63.7551H78.4699L80.4645 67.7592V71.4042H81.9903Z" fill="url(#paint14_linear_1_7596)"/>
<path d="M0 75.1191H0.882583V77.9214H1.37622V75.1191H2.2638V74.6803H0V75.1191Z" fill="url(#paint15_linear_1_7596)"/>
<path d="M5.84377 74.6802L4.66699 77.9213H5.18557L5.43489 77.1983H6.66152L6.91084 77.9213H7.42942L6.25265 74.6802H5.84377ZM5.57949 76.7595L6.04821 75.3434H6.05818L6.52689 76.7595H5.57949Z" fill="url(#paint16_linear_1_7596)"/>
<path d="M11.4842 76.6001H12.1424V76.7697C12.1424 76.9741 12.0776 77.1387 11.9529 77.2633C11.8282 77.393 11.6687 77.4578 11.4792 77.4578C11.3645 77.4578 11.2648 77.4329 11.18 77.383C11.0952 77.3431 11.0254 77.2883 10.9756 77.2185C10.9108 77.1486 10.8709 77.0589 10.8509 76.9442C10.826 76.8295 10.816 76.6151 10.816 76.296C10.816 75.9769 10.826 75.7624 10.8509 75.6428C10.8709 75.5331 10.9157 75.4433 10.9756 75.3735C11.0254 75.3087 11.0952 75.2489 11.18 75.209C11.2648 75.1641 11.3645 75.1441 11.4792 75.1392C11.6388 75.1392 11.7684 75.189 11.8781 75.2738C11.9828 75.3635 12.0576 75.4782 12.0975 75.6079H12.6161C12.5662 75.3386 12.4416 75.1092 12.2421 74.9247C12.0427 74.7402 11.7884 74.6505 11.4792 74.6455C11.2249 74.6455 11.0105 74.7103 10.8409 74.83C10.6664 74.9447 10.5418 75.0793 10.462 75.2289C10.4121 75.3087 10.3772 75.4084 10.3523 75.5381C10.3323 75.6677 10.3174 75.917 10.3174 76.296C10.3174 76.6749 10.3274 76.9193 10.3523 77.0489C10.3623 77.1187 10.3772 77.1786 10.3972 77.2234C10.4171 77.2683 10.4371 77.3132 10.462 77.3631C10.5418 77.5126 10.6664 77.6423 10.8409 77.757C11.0105 77.8767 11.2249 77.9365 11.4792 77.9415C11.8083 77.9365 12.0825 77.8218 12.3019 77.6074C12.5164 77.388 12.631 77.1137 12.636 76.7896V76.1314H11.4842V76.5952V76.6001Z" fill="url(#paint17_linear_1_7596)"/>
<path d="M16.4299 74.6803H15.9363V77.9214H18.0056V77.4527H16.4299V74.6803Z" fill="url(#paint18_linear_1_7596)"/>
<path d="M21.6958 74.6803H21.2021V77.9214H21.6958V74.6803Z" fill="url(#paint19_linear_1_7596)"/>
<path d="M27.0461 76.9839H27.0362L25.5702 74.6802H25.1064V77.9213H25.5951V75.6176H25.6051L27.0711 77.9213H27.5348V74.6802H27.0461V76.9839Z" fill="url(#paint20_linear_1_7596)"/>
<path d="M30.9503 77.9214H33.0196V77.4527H31.444V76.5053H32.7903V76.0665H31.444V75.144H33.0196V74.6803H30.9503V77.9214Z" fill="url(#paint21_linear_1_7596)"/>
<path d="M41.0876 76.6001H41.7458V76.7697C41.7458 76.9741 41.681 77.1387 41.5564 77.2633C41.4317 77.393 41.2721 77.4578 41.0826 77.4578C40.968 77.4578 40.8682 77.4329 40.7835 77.383C40.6987 77.3431 40.6289 77.2883 40.579 77.2185C40.5142 77.1486 40.4743 77.0589 40.4544 76.9442C40.4294 76.8295 40.4195 76.6151 40.4195 76.296C40.4195 75.9769 40.4294 75.7624 40.4544 75.6428C40.4743 75.5331 40.5192 75.4433 40.579 75.3735C40.6289 75.3087 40.6987 75.2489 40.7835 75.209C40.8682 75.1641 40.968 75.1441 41.0826 75.1392C41.2372 75.1392 41.3718 75.189 41.4815 75.2738C41.5863 75.3635 41.6611 75.4782 41.7009 75.6079H42.2195C42.1697 75.3386 42.045 75.1092 41.8456 74.9247C41.6461 74.7402 41.3918 74.6505 41.0826 74.6455C40.8283 74.6455 40.6139 74.7103 40.4444 74.83C40.2699 74.9447 40.1452 75.0793 40.0654 75.2289C40.0156 75.3087 39.9807 75.4084 39.9557 75.5381C39.9358 75.6677 39.9208 75.917 39.9208 76.296C39.9208 76.6749 39.9308 76.9193 39.9557 77.0489C39.9657 77.1187 39.9807 77.1786 40.0006 77.2234C40.0206 77.2683 40.0405 77.3132 40.0654 77.3631C40.1452 77.5126 40.2699 77.6423 40.4444 77.757C40.6139 77.8767 40.8283 77.9365 41.0826 77.9415C41.4117 77.9365 41.686 77.8218 41.9054 77.6074C42.1198 77.388 42.2345 77.1137 42.2395 76.7896V76.1314H41.0876V76.5952V76.6001Z" fill="url(#paint22_linear_1_7596)"/>
<path d="M47.6047 75.2338C47.5299 75.0842 47.4052 74.9496 47.2357 74.8349C47.0661 74.7152 46.8467 74.6554 46.5924 74.6504C46.3381 74.6504 46.1237 74.7152 45.9542 74.8349C45.7797 74.9496 45.655 75.0842 45.5752 75.2338C45.5254 75.3136 45.4905 75.4133 45.4655 75.5429C45.4456 75.6726 45.4306 75.9219 45.4306 76.3009C45.4306 76.6798 45.4406 76.9242 45.4655 77.0538C45.4755 77.1236 45.4905 77.1834 45.5104 77.2283C45.5304 77.2732 45.5503 77.3181 45.5752 77.3679C45.655 77.5175 45.7797 77.6472 45.9542 77.7619C46.1237 77.8815 46.3381 77.9414 46.5924 77.9464C46.8517 77.9414 47.0661 77.8765 47.2357 77.7619C47.4052 77.6472 47.5299 77.5175 47.6047 77.3679C47.6595 77.2882 47.6994 77.1834 47.7194 77.0538C47.7393 76.9242 47.7493 76.6748 47.7493 76.3009C47.7493 75.9269 47.7393 75.6726 47.7194 75.5429C47.6994 75.4133 47.6595 75.3136 47.6047 75.2338ZM47.2207 76.9441C47.1958 77.0588 47.1509 77.1485 47.0911 77.2183C47.0412 77.2832 46.9764 77.338 46.8966 77.3829C46.8118 77.4328 46.7071 77.4577 46.5924 77.4577C46.4778 77.4577 46.378 77.4328 46.2933 77.3829C46.2085 77.343 46.1387 77.2882 46.0888 77.2183C46.024 77.1485 45.9841 77.0588 45.9642 76.9441C45.9392 76.8294 45.9293 76.615 45.9293 76.2959C45.9293 75.9767 45.9392 75.7623 45.9642 75.6427C45.9841 75.533 46.029 75.4432 46.0888 75.3734C46.1387 75.3086 46.2085 75.2487 46.2933 75.2089C46.378 75.164 46.4778 75.144 46.5924 75.139C46.7071 75.139 46.8118 75.164 46.8966 75.2089C46.9764 75.2537 47.0412 75.3086 47.0911 75.3734C47.1559 75.4432 47.2008 75.533 47.2207 75.6427C47.2407 75.7574 47.2556 75.9767 47.2556 76.2959C47.2556 76.615 47.2457 76.8294 47.2207 76.9441Z" fill="url(#paint23_linear_1_7596)"/>
<path d="M51.05 77.9214H53.1193V77.4527H51.5437V76.5053H52.89V76.0665H51.5437V75.144H53.1193V74.6803H51.05V77.9214Z" fill="url(#paint24_linear_1_7596)"/>
<path d="M57.5174 76.0716C57.3628 76.0517 57.2431 76.0367 57.1534 76.0218C56.9938 75.9919 56.8791 75.937 56.8043 75.8622C56.7295 75.7874 56.6946 75.7026 56.6946 75.6079C56.6946 75.4533 56.7495 75.3337 56.8592 75.2589C56.9589 75.1841 57.0836 75.1442 57.2381 75.1442C57.5323 75.1492 57.7966 75.2339 58.041 75.3935L58.3152 74.9896C58.016 74.7752 57.667 74.6605 57.2631 74.6555C56.929 74.6555 56.6697 74.7453 56.4852 74.9198C56.2957 75.0943 56.201 75.3237 56.201 75.6029C56.201 75.8373 56.2758 76.0367 56.4254 76.2013C56.57 76.3608 56.7844 76.4656 57.0636 76.5104C57.2182 76.5304 57.3628 76.5503 57.4925 76.5703C57.7767 76.6201 57.9163 76.7647 57.9163 77.0041C57.9113 77.2983 57.6969 77.4479 57.278 77.4528C56.924 77.4528 56.6149 77.3431 56.3556 77.1287L56.0315 77.4977C56.3755 77.7919 56.7894 77.9415 57.2681 77.9415C58.011 77.9315 58.39 77.6174 58.4049 76.9991C58.4049 76.7697 58.3351 76.5703 58.1905 76.3957C58.0459 76.2212 57.8215 76.1115 57.5174 76.0667V76.0716Z" fill="url(#paint25_linear_1_7596)"/>
<path d="M67.2558 76.0665H65.9693V74.6803H65.4807V77.9214H65.9693V76.5053H67.2558V77.9214H67.7445V74.6803H67.2558V76.0665Z" fill="url(#paint26_linear_1_7596)"/>
<path d="M71.1602 77.9213H73.2295V77.4526H71.6538V76.5052H73.0001V76.0664H71.6538V75.1439H73.2295V74.6802H71.1602V77.9213Z" fill="url(#paint27_linear_1_7596)"/>
<path d="M78.6688 75.5828C78.6588 75.2836 78.5541 75.0543 78.3447 74.8897C78.1751 74.7501 77.9557 74.6753 77.6865 74.6753H76.4199V77.9164H76.9136V76.5302H77.5418L78.21 77.9164H78.7934L78.0405 76.4803C78.4543 76.3208 78.6588 76.0216 78.6688 75.5828ZM76.9136 76.1014V75.1191H77.6815C77.836 75.1191 77.9607 75.154 78.0405 75.2188C78.1452 75.2936 78.2001 75.4183 78.205 75.5878C78.205 75.7274 78.1602 75.8471 78.0704 75.9418C77.9806 76.0465 77.841 76.0964 77.6565 76.1014H76.9136Z" fill="url(#paint28_linear_1_7596)"/>
<path d="M81.9307 77.9214H84V77.4527H82.4243V76.5053H83.7706V76.0665H82.4243V75.144H84V74.6803H81.9307V77.9214Z" fill="url(#paint29_linear_1_7596)"/>
<defs>
<linearGradient id="paint0_linear_1_7596" x1="2.7627" y1="38.5492" x2="25.1962" y2="38.5492" gradientUnits="userSpaceOnUse">
<stop/>
<stop offset="0.33"/>
<stop offset="0.52"/>
<stop offset="0.73"/>
<stop offset="1"/>
</linearGradient>
<linearGradient id="paint1_linear_1_7596" x1="19.1826" y1="-9.86695e-05" x2="41.6111" y2="-9.86695e-05" gradientUnits="userSpaceOnUse">
<stop/>
<stop offset="0.33"/>
<stop offset="0.52"/>
<stop offset="0.73"/>
<stop offset="1"/>
</linearGradient>
<linearGradient id="paint2_linear_1_7596" x1="27.3898" y1="2.13324e-05" x2="49.8233" y2="2.13324e-05" gradientUnits="userSpaceOnUse">
<stop/>
<stop offset="0.33"/>
<stop offset="0.52"/>
<stop offset="0.73"/>
<stop offset="1"/>
</linearGradient>
<linearGradient id="paint3_linear_1_7596" x1="37.5273" y1="14.7496" x2="56.61" y2="14.7496" gradientUnits="userSpaceOnUse">
<stop/>
<stop offset="0.33"/>
<stop offset="0.52"/>
<stop offset="0.73"/>
<stop offset="1"/>
</linearGradient>
<linearGradient id="paint4_linear_1_7596" x1="10.9748" y1="2.34008e-05" x2="33.4033" y2="2.34008e-05" gradientUnits="userSpaceOnUse">
<stop/>
<stop offset="0.33"/>
<stop offset="0.52"/>
<stop offset="0.73"/>
<stop offset="1"/>
</linearGradient>
<linearGradient id="paint5_linear_1_7596" x1="41.631" y1="18.3048" x2="64.8174" y2="18.3048" gradientUnits="userSpaceOnUse">
<stop/>
<stop offset="0.33"/>
<stop offset="0.52"/>
<stop offset="0.73"/>
<stop offset="1"/>
</linearGradient>
<linearGradient id="paint6_linear_1_7596" x1="45.7345" y1="21.8601" x2="73.0247" y2="21.8601" gradientUnits="userSpaceOnUse">
<stop/>
<stop offset="0.33"/>
<stop offset="0.52"/>
<stop offset="0.73"/>
<stop offset="1"/>
</linearGradient>
<linearGradient id="paint7_linear_1_7596" x1="49.8389" y1="25.4103" x2="81.2328" y2="25.4103" gradientUnits="userSpaceOnUse">
<stop/>
<stop offset="0.33"/>
<stop offset="0.52"/>
<stop offset="0.73"/>
<stop offset="1"/>
</linearGradient>
<linearGradient id="paint8_linear_1_7596" x1="0.00966211" y1="67.5799" x2="6.46696" y2="67.5799" gradientUnits="userSpaceOnUse">
<stop/>
<stop offset="0.33"/>
<stop offset="0.52"/>
<stop offset="0.73"/>
<stop offset="1"/>
</linearGradient>
<linearGradient id="paint9_linear_1_7596" x1="12.7254" y1="67.5796" x2="20.3744" y2="67.5796" gradientUnits="userSpaceOnUse">
<stop/>
<stop offset="0.33"/>
<stop offset="0.52"/>
<stop offset="0.73"/>
<stop offset="1"/>
</linearGradient>
<linearGradient id="paint10_linear_1_7596" x1="27.1307" y1="67.5796" x2="34.8895" y2="67.5796" gradientUnits="userSpaceOnUse">
<stop/>
<stop offset="0.33"/>
<stop offset="0.52"/>
<stop offset="0.73"/>
<stop offset="1"/>
</linearGradient>
<linearGradient id="paint11_linear_1_7596" x1="41.6514" y1="67.5799" x2="46.0792" y2="67.5799" gradientUnits="userSpaceOnUse">
<stop/>
<stop offset="0.33"/>
<stop offset="0.52"/>
<stop offset="0.73"/>
<stop offset="1"/>
</linearGradient>
<linearGradient id="paint12_linear_1_7596" x1="51.833" y1="67.5796" x2="58.9834" y2="67.5796" gradientUnits="userSpaceOnUse">
<stop/>
<stop offset="0.33"/>
<stop offset="0.52"/>
<stop offset="0.73"/>
<stop offset="1"/>
</linearGradient>
<linearGradient id="paint13_linear_1_7596" x1="65.5459" y1="67.5799" x2="71.9085" y2="67.5799" gradientUnits="userSpaceOnUse">
<stop/>
<stop offset="0.33"/>
<stop offset="0.52"/>
<stop offset="0.73"/>
<stop offset="1"/>
</linearGradient>
<linearGradient id="paint14_linear_1_7596" x1="78.4699" y1="67.5796" x2="83.9848" y2="67.5796" gradientUnits="userSpaceOnUse">
<stop/>
<stop offset="0.33"/>
<stop offset="0.52"/>
<stop offset="0.73"/>
<stop offset="1"/>
</linearGradient>
<linearGradient id="paint15_linear_1_7596" x1="0" y1="76.3009" x2="2.2638" y2="76.3009" gradientUnits="userSpaceOnUse">
<stop/>
<stop offset="0.33"/>
<stop offset="0.52"/>
<stop offset="0.73"/>
<stop offset="1"/>
</linearGradient>
<linearGradient id="paint16_linear_1_7596" x1="4.66699" y1="76.3007" x2="7.43441" y2="76.3007" gradientUnits="userSpaceOnUse">
<stop/>
<stop offset="0.33"/>
<stop offset="0.52"/>
<stop offset="0.73"/>
<stop offset="1"/>
</linearGradient>
<linearGradient id="paint17_linear_1_7596" x1="10.3174" y1="76.301" x2="12.636" y2="76.301" gradientUnits="userSpaceOnUse">
<stop/>
<stop offset="0.33"/>
<stop offset="0.52"/>
<stop offset="0.73"/>
<stop offset="1"/>
</linearGradient>
<linearGradient id="paint18_linear_1_7596" x1="15.9363" y1="76.3009" x2="18.0056" y2="76.3009" gradientUnits="userSpaceOnUse">
<stop/>
<stop offset="0.33"/>
<stop offset="0.52"/>
<stop offset="0.73"/>
<stop offset="1"/>
</linearGradient>
<linearGradient id="paint19_linear_1_7596" x1="21.2021" y1="76.3009" x2="21.6908" y2="76.3009" gradientUnits="userSpaceOnUse">
<stop/>
<stop offset="0.33"/>
<stop offset="0.52"/>
<stop offset="0.73"/>
<stop offset="1"/>
</linearGradient>
<linearGradient id="paint20_linear_1_7596" x1="25.1064" y1="76.3007" x2="27.5348" y2="76.3007" gradientUnits="userSpaceOnUse">
<stop/>
<stop offset="0.33"/>
<stop offset="0.52"/>
<stop offset="0.73"/>
<stop offset="1"/>
</linearGradient>
<linearGradient id="paint21_linear_1_7596" x1="30.9503" y1="76.3009" x2="33.0196" y2="76.3009" gradientUnits="userSpaceOnUse">
<stop/>
<stop offset="0.33"/>
<stop offset="0.52"/>
<stop offset="0.73"/>
<stop offset="1"/>
</linearGradient>
<linearGradient id="paint22_linear_1_7596" x1="39.9258" y1="76.301" x2="42.2395" y2="76.301" gradientUnits="userSpaceOnUse">
<stop/>
<stop offset="0.33"/>
<stop offset="0.52"/>
<stop offset="0.73"/>
<stop offset="1"/>
</linearGradient>
<linearGradient id="paint23_linear_1_7596" x1="45.4306" y1="76.3009" x2="47.7443" y2="76.3009" gradientUnits="userSpaceOnUse">
<stop/>
<stop offset="0.33"/>
<stop offset="0.52"/>
<stop offset="0.73"/>
<stop offset="1"/>
</linearGradient>
<linearGradient id="paint24_linear_1_7596" x1="51.05" y1="76.3009" x2="53.1193" y2="76.3009" gradientUnits="userSpaceOnUse">
<stop/>
<stop offset="0.33"/>
<stop offset="0.52"/>
<stop offset="0.73"/>
<stop offset="1"/>
</linearGradient>
<linearGradient id="paint25_linear_1_7596" x1="56.0315" y1="76.301" x2="58.4099" y2="76.301" gradientUnits="userSpaceOnUse">
<stop/>
<stop offset="0.33"/>
<stop offset="0.52"/>
<stop offset="0.73"/>
<stop offset="1"/>
</linearGradient>
<linearGradient id="paint26_linear_1_7596" x1="65.4807" y1="76.3009" x2="67.7445" y2="76.3009" gradientUnits="userSpaceOnUse">
<stop/>
<stop offset="0.33"/>
<stop offset="0.52"/>
<stop offset="0.73"/>
<stop offset="1"/>
</linearGradient>
<linearGradient id="paint27_linear_1_7596" x1="71.1602" y1="76.3007" x2="73.2295" y2="76.3007" gradientUnits="userSpaceOnUse">
<stop/>
<stop offset="0.33"/>
<stop offset="0.52"/>
<stop offset="0.73"/>
<stop offset="1"/>
</linearGradient>
<linearGradient id="paint28_linear_1_7596" x1="76.4249" y1="76.3008" x2="78.7934" y2="76.3008" gradientUnits="userSpaceOnUse">
<stop/>
<stop offset="0.33"/>
<stop offset="0.52"/>
<stop offset="0.73"/>
<stop offset="1"/>
</linearGradient>
<linearGradient id="paint29_linear_1_7596" x1="81.9307" y1="76.3009" x2="84" y2="76.3009" gradientUnits="userSpaceOnUse">
<stop/>
<stop offset="0.33"/>
<stop offset="0.52"/>
<stop offset="0.73"/>
<stop offset="1"/>
</linearGradient>
</defs>
</svg>
