<svg width="1099" height="626" viewBox="0 0 1099 626" fill="none" xmlns="http://www.w3.org/2000/svg">
<mask id="mask0_1_250" style="mask-type:luminance" maskUnits="userSpaceOnUse" x="0" y="0" width="1111" height="626">
<path d="M811.122 0.984619H794.954H509.208H225.273H171.354H0.448242V171.669V225.5V509.085V625.248H169.879H186.048H642.513H798.856H922.863H1110.55V437.801V313.956V157.815V0.984619H811.122Z" fill="white"/>
</mask>
<g mask="url(#mask0_1_250)">
<g opacity="0.38">
<path d="M698.729 79.5957L1171.61 352.254L701.81 624.913L228.934 352.254L698.729 79.5957ZM701.791 624.223L1170.41 352.236L698.729 80.267L230.11 352.254L701.791 624.223Z" fill="white"/>
<path d="M1021.14 -22.3787L1494.02 250.28L1024.22 522.939L551.347 250.28L1021.14 -22.3787ZM1024.2 522.249L1492.82 250.261L1021.14 -21.6888L552.523 250.299L1024.2 522.267" fill="white"/>
<path d="M600.207 417.683L1073.08 690.341L603.287 963L130.411 690.341L600.207 417.683ZM603.268 962.329L1071.89 690.341L600.207 418.373L131.587 690.36L603.268 962.329Z" fill="white"/>
<path d="M234.796 -51L707.672 221.659L237.876 494.317L-235 221.659L234.796 -51ZM237.857 493.627L706.477 221.64L234.796 -50.3101L-233.824 221.659L237.857 493.627Z" fill="white"/>
</g>
</g>
</svg>
