<?xml version="1.0" encoding="iso-8859-1"?>
<!-- Uploaded to: SVG Repo, www.svgrepo.com, Generator: SVG Repo Mixer Tools -->
<svg fill="#000000" height="800px" width="800px" version="1.1" id="Layer_1" xmlns="http://www.w3.org/2000/svg" xmlns:xlink="http://www.w3.org/1999/xlink" 
	 viewBox="0 0 392.369 392.369" xml:space="preserve">
<g>
	<g>
		<path d="M391.626,354.051l-43.96-107.507V34.245c0-6.012-4.849-10.925-10.925-10.925H55.658c-6.012,0-10.925,4.848-10.925,10.925
			v212.364L0.773,354.116c-1.745,3.685-1.358,14.028,10.02,14.933h370.747C393.824,367.756,392.984,357.348,391.626,354.051z
			 M66.519,45.106h259.297v192.776H66.519V45.106z M27.02,347.263l35.879-87.596h266.602l35.879,87.596H27.02z"/>
	</g>
</g>
<g>
	<g>
		<path d="M293.169,66.892H99.23c-6.012,0-10.925,4.848-10.925,10.925V205.17c0,6.012,4.849,10.925,10.925,10.925h193.875
			c6.012,0,10.925-4.849,10.925-10.925V77.817C304.095,71.805,299.181,66.892,293.169,66.892z M110.091,194.245v-26.117h5.56
			c6.012,0,10.925-4.848,10.925-10.925c0-6.012-4.849-10.925-10.925-10.925h-5.56v-21.786h27.41c6.012,0,10.925-4.848,10.925-10.925
			c0-6.012-4.848-10.925-10.925-10.925h-27.41V88.677h172.089v105.568H110.091z"/>
	</g>
</g>
<g>
	<g>
		<path d="M225.226,299.36h-58.052c-6.012,0-10.925,4.849-10.925,10.925c0,6.012,4.849,10.925,10.925,10.925h58.052
			c6.012,0,10.925-4.849,10.925-10.925C236.151,304.209,231.303,299.36,225.226,299.36z"/>
	</g>
</g>
</svg>