<svg width="69" height="69" viewBox="0 0 69 69" fill="none" xmlns="http://www.w3.org/2000/svg">
<g clip-path="url(#clip0_94_20)">
<path d="M23.6005 34.4156C22.6726 34.4331 22.2136 34.084 22.1497 33.4499C22.0819 32.7692 22.4673 32.3174 23.246 32.2088C24.7917 31.9955 26.3394 31.786 27.8909 31.5999C28.6038 31.5126 29.1054 31.8907 29.2081 32.5268C29.303 33.1086 28.9253 33.6981 28.2919 33.7912C26.6764 34.0317 25.0532 34.2256 23.6005 34.4156Z" fill="white"/>
<path d="M35.608 52.119C35.6835 52.7395 35.2303 53.2767 34.4845 53.3756C32.503 53.6413 30.5195 53.8818 28.536 54.1339C27.7476 54.2347 26.9592 54.3375 26.2484 54.4306C25.4038 54.4596 24.8866 54.066 24.8382 53.4202C24.7917 52.8094 25.2179 52.3342 25.9423 52.2353C28.7103 51.8591 31.4802 51.4887 34.2501 51.1261C34.9552 51.033 35.5305 51.4713 35.608 52.119Z" fill="white"/>
<path d="M26.2794 12.5353C26.2019 11.9302 26.6203 11.4105 27.3331 11.3135C30.9165 10.8249 34.5039 10.3536 38.0893 9.87657C40.0979 9.61089 42.1066 9.3491 44.1153 9.08536C44.402 9.04852 44.6887 9.00197 44.9773 8.98452C45.7404 8.93798 46.2615 9.33552 46.3099 9.98711C46.3583 10.6077 45.9361 11.0944 45.2233 11.1933C43.48 11.4377 41.7347 11.6684 39.9895 11.8992C36.0206 12.4228 32.0516 12.9444 28.0827 13.4661C27.9142 13.4894 27.7457 13.5029 27.6566 13.5126C26.8546 13.532 26.3588 13.1578 26.2794 12.5353Z" fill="white"/>
<path d="M20.8867 23.3775C20.8402 22.7725 21.2664 22.2954 21.9966 22.1965C26.7036 21.5662 31.4124 20.9437 36.1213 20.3174C39.4432 19.8772 42.7652 19.4311 46.0891 18.9968C46.9782 18.8804 47.5128 19.214 47.6155 19.9121C47.7143 20.5889 47.2436 21.0911 46.3855 21.2036C38.6646 22.2256 30.9437 23.2417 23.2228 24.2618C22.8877 24.3064 22.5545 24.3607 22.355 24.3898C21.4562 24.4208 20.9352 24.0233 20.8867 23.3775Z" fill="white"/>
<path d="M68.911 10.85C68.512 8.78274 66.9992 7.20808 65.0331 6.82993C62.8443 6.40911 61.0545 7.11888 59.8071 8.95145C58.0444 11.5442 56.3631 14.1932 54.6431 16.817C54.5172 17.009 54.4397 17.2456 54.1859 17.3871C54.1511 17.2844 54.1046 17.199 54.0929 17.1098C53.5467 12.9191 52.9734 8.73232 52.4678 4.53581C52.1075 1.55326 50.0465 -0.310343 47.2708 0.042598C41.6942 0.74848 36.1234 1.5009 30.5506 2.23394C25.863 2.85061 21.1794 3.48668 16.4879 4.07815C13.9505 4.39813 12.3485 5.98248 12.1878 8.52288C12.1587 8.98442 11.8895 9.00381 11.6047 9.08914C8.86388 9.91913 6.11527 10.7317 3.37828 11.5772C0.697465 12.4072 -0.561589 14.7478 0.238394 17.4162C5.04798 33.4576 9.86531 49.499 14.6865 65.5384C15.5097 68.2766 17.9019 69.5759 20.6273 68.7575C28.7182 66.3257 36.8013 63.861 44.896 61.4427C46.8079 60.8707 48.6771 60.1357 50.6644 59.8429C52.1211 59.6295 53.5893 59.4977 55.0421 59.2591C57.7578 58.8131 59.3132 56.6819 58.9548 53.9553C58.0619 47.1544 57.1631 40.3535 56.2605 33.5546C56.2004 33.1047 56.2643 32.7304 56.5278 32.3348C57.8275 30.3878 59.0943 28.4214 60.3727 26.4608C62.9431 22.5203 65.5135 18.5798 68.0859 14.6412C68.8432 13.4796 69.1745 12.2229 68.911 10.85ZM34.1108 62.3445C29.4581 63.7582 24.8016 65.1602 20.145 66.5623C18.392 67.0898 17.317 66.51 16.7882 64.7453C11.9999 48.8202 7.21355 32.8972 2.42721 16.9721C1.89841 15.2152 2.47564 14.168 4.24993 13.6308C6.96561 12.8105 9.67936 11.9883 12.4473 11.1505C12.7941 13.7879 13.1369 16.371 13.474 18.954C14.1228 23.9127 14.7698 28.8694 15.4187 33.826C16.0753 38.8312 16.7301 43.8364 17.3906 48.8416C17.8632 52.433 18.3126 56.0284 18.8336 59.614C19.1939 62.1059 21.497 63.7 23.9919 63.349C27.4068 62.8681 30.8295 62.4376 34.2522 61.9915C34.4537 61.9663 34.6667 61.9023 34.8856 62.0226C34.6842 62.2882 34.3684 62.2669 34.1108 62.3445ZM56.7312 54.3354C56.9229 55.7627 56.1384 56.8642 54.6992 57.0562C49.2233 57.7892 43.7455 58.5048 38.2696 59.2242C33.4135 59.8623 28.5593 60.5041 23.7013 61.1305C22.1982 61.3244 21.191 60.5294 20.9895 59.0129C20.0695 52.0452 19.1591 45.0775 18.2409 38.1098C17.3421 31.2857 16.4356 24.4634 15.5369 17.6392C15.1533 14.742 14.7776 11.8448 14.4018 8.94564C14.2391 7.69483 15.0352 6.57007 16.3078 6.38584C19.1474 5.97666 21.9948 5.61403 24.8422 5.23975C30.2465 4.52418 35.6507 3.81248 41.0569 3.10271C43.1857 2.82346 45.3144 2.54421 47.4451 2.28436C48.9095 2.10595 49.9536 2.95727 50.1531 4.44467C50.8504 9.63988 51.5438 14.8332 52.2547 20.0245C52.2935 20.3154 52.2392 20.5326 52.0862 20.7672C50.339 23.4298 48.5919 26.0924 46.864 28.7666C46.6684 29.0691 46.4398 29.1583 46.1047 29.2029C42.5891 29.6625 39.0753 30.1357 35.5616 30.6127C34.781 30.7175 34.3432 31.1848 34.3975 31.8189C34.4556 32.4899 34.9883 32.9146 35.8096 32.8118C38.1785 32.5209 40.5436 32.1835 42.9106 31.8635C43.5537 31.7763 44.1987 31.6909 45.0026 31.5843C43.9818 33.1551 43.083 34.6095 42.1106 36.0116C41.3726 37.0762 40.7722 38.1893 40.5049 39.4557C40.3964 39.9715 40.131 40.1402 39.6293 40.2061C34.6299 40.8616 29.6344 41.5423 24.6388 42.2191C23.7924 42.3335 23.3914 42.7679 23.4611 43.4699C23.527 44.1428 24.0345 44.5248 24.8945 44.422C27.3623 44.1273 29.8242 43.7937 32.2881 43.4718C34.6532 43.1654 37.0182 42.8532 39.4996 42.5274C39.1916 43.5474 38.8758 44.4919 38.624 45.4518C38.0991 47.4531 39.61 49.305 41.6632 49.2042C42.3411 49.1712 42.9242 48.8997 43.4297 48.4634C45.3125 46.8364 47.1895 45.2016 49.0722 43.5765C49.3337 43.3516 49.5236 43.0782 49.7076 42.7931C51.077 40.6909 52.4446 38.5869 53.816 36.4867C53.9419 36.2966 54.0833 36.1163 54.2867 35.8351C54.7515 39.3412 55.2009 42.7078 55.6464 46.0743C56.0086 48.828 56.3592 51.5817 56.7312 54.3354ZM42.2733 42.5836C41.8763 42.4731 41.8569 42.3141 41.9867 41.9689C42.1784 41.4511 42.3102 40.912 42.469 40.3826C42.5077 40.2546 42.5077 40.084 42.713 40.0975C42.8196 40.1654 42.9222 40.2255 43.023 40.2915C44.0903 40.9896 45.1459 41.7052 46.2287 42.3781C46.6335 42.6302 46.5967 42.8028 46.2461 43.0316C46.2268 43.0452 46.2113 43.0646 46.1938 43.082C45.7561 43.4602 45.3726 44.0284 44.8689 44.1661C44.3382 44.3134 44.0922 43.5261 43.6196 43.2643C43.1779 43.02 42.7595 42.7194 42.2733 42.5836ZM43.0191 45.8047C43.0036 45.9599 41.7077 46.9838 41.5082 46.9721C41.0433 46.9469 40.747 46.72 40.7179 46.3303C40.7063 45.7543 41.177 44.6121 41.3746 44.6237C41.791 44.6528 43.0462 45.5546 43.0191 45.8047ZM62.2226 19.5222C57.6512 26.5345 53.078 33.5468 48.5163 40.5668C48.2723 40.9411 48.1076 40.9663 47.7415 40.7162C46.5503 39.8978 45.3377 39.1047 44.1096 38.3406C43.6583 38.0575 43.5595 37.8713 43.8907 37.369C47.9585 31.179 51.9971 24.9715 56.0435 18.7679C56.5588 17.9786 57.074 17.1932 57.5776 16.3981C57.7306 16.1557 57.8469 16.0549 58.1355 16.2488C59.4798 17.1467 60.8376 18.0213 62.1896 18.9056C62.2845 18.9676 62.3678 19.0452 62.4763 19.1286C62.3775 19.2818 62.302 19.402 62.2226 19.5222ZM63.776 17.0807C63.5184 17.3367 63.2821 16.9469 63.071 16.8131C61.872 16.0588 60.6981 15.2637 59.5011 14.5054C59.1621 14.2902 59.0342 14.1389 59.3016 13.7375C59.9485 12.7679 59.9253 12.7485 60.9054 13.3904C61.9901 14.1001 63.0748 14.8138 64.1576 15.5255C64.3165 15.6302 64.5044 15.7 64.5896 15.9075C64.3261 16.3012 64.1111 16.7511 63.776 17.0807ZM66.021 13.7297C65.8583 13.976 65.7324 13.8888 65.562 13.7763C64.2157 12.8862 62.8715 11.9961 61.5214 11.1137C61.3044 10.9721 61.2444 10.8616 61.3742 10.594C61.9707 9.37033 63.284 8.71099 64.6167 9.00381C65.8564 9.27725 66.7842 10.4505 66.7803 11.7343C66.7707 12.4925 66.4297 13.1189 66.021 13.7297Z" fill="white"/>
<path d="M28.2919 33.7912C26.6764 34.0317 25.0532 34.2256 23.6005 34.4156C22.6726 34.4331 22.2136 34.084 22.1497 33.4499C22.0819 32.7692 22.4673 32.3174 23.246 32.2088C24.7917 31.9955 26.3394 31.786 27.8909 31.5999C28.6038 31.5126 29.1054 31.8907 29.2081 32.5268C29.303 33.1086 28.9253 33.6981 28.2919 33.7912Z" fill="white"/>
<path d="M35.608 52.119C35.6835 52.7395 35.2303 53.2767 34.4845 53.3756C32.503 53.6413 30.5195 53.8818 28.536 54.1339C27.7476 54.2347 26.9592 54.3375 26.2484 54.4306C25.4038 54.4596 24.8866 54.066 24.8382 53.4202C24.7917 52.8094 25.2179 52.3342 25.9423 52.2353C28.7103 51.8591 31.4802 51.4887 34.2501 51.1261C34.9552 51.033 35.5305 51.4713 35.608 52.119Z" fill="white"/>
<path d="M26.2794 12.5353C26.2019 11.9302 26.6203 11.4105 27.3331 11.3135C30.9165 10.8249 34.5039 10.3536 38.0893 9.87657C40.0979 9.61089 42.1066 9.3491 44.1153 9.08536C44.402 9.04852 44.6887 9.00197 44.9773 8.98452C45.7404 8.93798 46.2615 9.33552 46.3099 9.98711C46.3583 10.6077 45.9361 11.0944 45.2233 11.1933C43.48 11.4377 41.7347 11.6684 39.9895 11.8992C36.0206 12.4228 32.0516 12.9444 28.0827 13.4661C27.9142 13.4894 27.7457 13.5029 27.6566 13.5126C26.8546 13.532 26.3588 13.1578 26.2794 12.5353Z" fill="white"/>
<path d="M46.3855 21.2036C38.6646 22.2256 30.9437 23.2417 23.2228 24.2618C22.8877 24.3064 22.5545 24.3607 22.355 24.3898C21.4562 24.4208 20.9352 24.0233 20.8867 23.3775C20.8402 22.7725 21.2664 22.2954 21.9966 22.1965C26.7036 21.5662 31.4124 20.9437 36.1213 20.3174C39.4432 19.8772 42.7652 19.4311 46.0891 18.9968C46.9782 18.8804 47.5128 19.214 47.6155 19.9121C47.7143 20.5889 47.2436 21.0911 46.3855 21.2036Z" fill="white"/>
<path d="M46.3855 21.2036C38.6646 22.2256 30.9437 23.2417 23.2228 24.2618C22.8877 24.3064 22.5545 24.3607 22.355 24.3898C21.4562 24.4208 20.9352 24.0233 20.8867 23.3775C20.8402 22.7725 21.2664 22.2954 21.9966 22.1965C26.7036 21.5662 31.4124 20.9437 36.1213 20.3174C39.4432 19.8772 42.7652 19.4311 46.0891 18.9968C46.9782 18.8804 47.5128 19.214 47.6155 19.9121C47.7143 20.5889 47.2436 21.0911 46.3855 21.2036Z" fill="white"/>
<path d="M45.2233 11.1933C43.48 11.4377 41.7347 11.6684 39.9895 11.8992C36.0206 12.4228 32.0516 12.9444 28.0827 13.4661C27.9142 13.4894 27.7457 13.5029 27.6566 13.5126C26.8546 13.532 26.3588 13.1578 26.2794 12.5353C26.2019 11.9302 26.6203 11.4105 27.3331 11.3135C30.9165 10.8249 34.5039 10.3536 38.0893 9.87657C40.0979 9.61089 42.1066 9.3491 44.1153 9.08536C44.402 9.04852 44.6887 9.00197 44.9773 8.98452C45.7404 8.93798 46.2615 9.33552 46.3099 9.98711C46.3583 10.6077 45.9361 11.0944 45.2233 11.1933Z" fill="white"/>
<path d="M34.4845 53.3756C32.503 53.6413 30.5195 53.8818 28.536 54.1339C27.7476 54.2347 26.9592 54.3375 26.2484 54.4306C25.4038 54.4596 24.8866 54.066 24.8382 53.4202C24.7917 52.8094 25.2179 52.3342 25.9423 52.2353C28.7103 51.8591 31.4802 51.4887 34.2501 51.1261C34.9552 51.033 35.5305 51.4713 35.608 52.119C35.6835 52.7395 35.2303 53.2767 34.4845 53.3756Z" fill="white"/>
<path d="M28.2919 33.7912C26.6764 34.0317 25.0532 34.2256 23.6005 34.4156C22.6726 34.4331 22.2136 34.084 22.1497 33.4499C22.0819 32.7692 22.4673 32.3174 23.246 32.2088C24.7917 31.9955 26.3394 31.786 27.8909 31.5999C28.6038 31.5126 29.1054 31.8907 29.2081 32.5268C29.303 33.1086 28.9253 33.6981 28.2919 33.7912Z" fill="white"/>
</g>
<defs>
<clipPath id="clip0_94_20">
<rect width="69" height="69" fill="white"/>
</clipPath>
</defs>
</svg>
