<svg width="70" height="70" viewBox="0 0 70 70" fill="none" xmlns="http://www.w3.org/2000/svg">
<g clip-path="url(#clip0_94_35)">
<path d="M30.5306 51.9177C29.9291 51.8913 29.3955 52.3741 29.3578 52.9795C29.3201 53.6095 29.8386 54.164 30.4703 54.1716C31.0736 54.1791 31.5921 53.6812 31.6091 53.0757C31.6261 52.4703 31.1358 51.9441 30.5306 51.9177ZM35.0653 51.9195C34.4336 51.8799 33.8812 52.3967 33.8736 53.0324C33.8642 53.6378 34.362 54.1546 34.9672 54.1716C35.5706 54.1904 36.0985 53.6982 36.1249 53.0927C36.1513 52.491 35.6686 51.9554 35.0653 51.9195ZM39.5057 51.9177C38.8721 51.9233 38.3536 52.4741 38.3876 53.104C38.4215 53.7095 38.9532 54.1961 39.5566 54.1716C40.1618 54.1489 40.654 53.6246 40.6408 53.0192C40.6257 52.4137 40.1109 51.9139 39.5057 51.9177ZM39.5057 51.9177C38.8721 51.9233 38.3536 52.4741 38.3876 53.104C38.4215 53.7095 38.9532 54.1961 39.5566 54.1716C40.1618 54.1489 40.654 53.6246 40.6408 53.0192C40.6257 52.4137 40.1109 51.9139 39.5057 51.9177ZM35.0653 51.9195C34.4336 51.8799 33.8812 52.3967 33.8736 53.0324C33.8642 53.6378 34.362 54.1546 34.9672 54.1716C35.5706 54.1904 36.0985 53.6982 36.1249 53.0927C36.1513 52.491 35.6686 51.9554 35.0653 51.9195ZM30.5306 51.9177C29.9291 51.8913 29.3955 52.3741 29.3578 52.9795C29.3201 53.6095 29.8386 54.164 30.4703 54.1716C31.0736 54.1791 31.5921 53.6812 31.6091 53.0757C31.6261 52.4703 31.1358 51.9441 30.5306 51.9177ZM9.04884 31.5946C6.55807 31.5908 4.5217 33.6241 4.52359 36.1156C4.52547 38.5733 6.53733 40.6046 8.99039 40.6254C11.483 40.6461 13.5402 38.6242 13.5515 36.1383C13.5647 33.6448 11.5377 31.6002 9.04884 31.5946ZM9.00359 38.3677C7.76292 38.3507 6.74662 37.2888 6.78056 36.0421C6.8145 34.8236 7.84588 33.8372 9.06958 33.8523C10.2839 33.8693 11.2926 34.8915 11.2945 36.1062C11.2945 37.3492 10.248 38.3847 9.00359 38.3677ZM30.5306 51.9177C29.9291 51.8913 29.3955 52.3741 29.3578 52.9795C29.3201 53.6095 29.8386 54.164 30.4703 54.1716C31.0736 54.1791 31.5921 53.6812 31.6091 53.0757C31.6261 52.4703 31.1358 51.9441 30.5306 51.9177ZM35.0653 51.9195C34.4336 51.8799 33.8812 52.3967 33.8736 53.0324C33.8642 53.6378 34.362 54.1546 34.9672 54.1716C35.5706 54.1904 36.0985 53.6982 36.1249 53.0927C36.1513 52.491 35.6686 51.9554 35.0653 51.9195ZM39.5057 51.9177C38.8721 51.9233 38.3536 52.4741 38.3876 53.104C38.4215 53.7095 38.9532 54.1961 39.5566 54.1716C40.1618 54.1489 40.654 53.6246 40.6408 53.0192C40.6257 52.4137 40.1109 51.9139 39.5057 51.9177ZM39.5057 51.9177C38.8721 51.9233 38.3536 52.4741 38.3876 53.104C38.4215 53.7095 38.9532 54.1961 39.5566 54.1716C40.1618 54.1489 40.654 53.6246 40.6408 53.0192C40.6257 52.4137 40.1109 51.9139 39.5057 51.9177ZM35.0653 51.9195C34.4336 51.8799 33.8812 52.3967 33.8736 53.0324C33.8642 53.6378 34.362 54.1546 34.9672 54.1716C35.5706 54.1904 36.0985 53.6982 36.1249 53.0927C36.1513 52.491 35.6686 51.9554 35.0653 51.9195ZM30.5306 51.9177C29.9291 51.8913 29.3955 52.3741 29.3578 52.9795C29.3201 53.6095 29.8386 54.164 30.4703 54.1716C31.0736 54.1791 31.5921 53.6812 31.6091 53.0757C31.6261 52.4703 31.1358 51.9441 30.5306 51.9177ZM9.04884 31.5946C6.55807 31.5908 4.5217 33.6241 4.52359 36.1156C4.52547 38.5733 6.53733 40.6046 8.99039 40.6254C11.483 40.6461 13.5402 38.6242 13.5515 36.1383C13.5647 33.6448 11.5377 31.6002 9.04884 31.5946ZM9.00359 38.3677C7.76292 38.3507 6.74662 37.2888 6.78056 36.0421C6.8145 34.8236 7.84588 33.8372 9.06958 33.8523C10.2839 33.8693 11.2926 34.8915 11.2945 36.1062C11.2945 37.3492 10.248 38.3847 9.00359 38.3677ZM9.04884 31.5946C6.55807 31.5908 4.5217 33.6241 4.52359 36.1156C4.52547 38.5733 6.53733 40.6046 8.99039 40.6254C11.483 40.6461 13.5402 38.6242 13.5515 36.1383C13.5647 33.6448 11.5377 31.6002 9.04884 31.5946ZM9.00359 38.3677C7.76292 38.3507 6.74662 37.2888 6.78056 36.0421C6.8145 34.8236 7.84588 33.8372 9.06958 33.8523C10.2839 33.8693 11.2926 34.8915 11.2945 36.1062C11.2945 37.3492 10.248 38.3847 9.00359 38.3677ZM30.5306 51.9177C29.9291 51.8913 29.3955 52.3741 29.3578 52.9795C29.3201 53.6095 29.8386 54.164 30.4703 54.1716C31.0736 54.1791 31.5921 53.6812 31.6091 53.0757C31.6261 52.4703 31.1358 51.9441 30.5306 51.9177ZM35.0653 51.9195C34.4336 51.8799 33.8812 52.3967 33.8736 53.0324C33.8642 53.6378 34.362 54.1546 34.9672 54.1716C35.5706 54.1904 36.0985 53.6982 36.1249 53.0927C36.1513 52.491 35.6686 51.9554 35.0653 51.9195ZM39.5057 51.9177C38.8721 51.9233 38.3536 52.4741 38.3876 53.104C38.4215 53.7095 38.9532 54.1961 39.5566 54.1716C40.1618 54.1489 40.654 53.6246 40.6408 53.0192C40.6257 52.4137 40.1109 51.9139 39.5057 51.9177ZM39.5057 51.9177C38.8721 51.9233 38.3536 52.4741 38.3876 53.104C38.4215 53.7095 38.9532 54.1961 39.5566 54.1716C40.1618 54.1489 40.654 53.6246 40.6408 53.0192C40.6257 52.4137 40.1109 51.9139 39.5057 51.9177ZM35.0653 51.9195C34.4336 51.8799 33.8812 52.3967 33.8736 53.0324C33.8642 53.6378 34.362 54.1546 34.9672 54.1716C35.5706 54.1904 36.0985 53.6982 36.1249 53.0927C36.1513 52.491 35.6686 51.9554 35.0653 51.9195ZM30.5306 51.9177C29.9291 51.8913 29.3955 52.3741 29.3578 52.9795C29.3201 53.6095 29.8386 54.164 30.4703 54.1716C31.0736 54.1791 31.5921 53.6812 31.6091 53.0757C31.6261 52.4703 31.1358 51.9441 30.5306 51.9177ZM9.04884 31.5946C6.55807 31.5908 4.5217 33.6241 4.52359 36.1156C4.52547 38.5733 6.53733 40.6046 8.99039 40.6254C11.483 40.6461 13.5402 38.6242 13.5515 36.1383C13.5647 33.6448 11.5377 31.6002 9.04884 31.5946ZM9.00359 38.3677C7.76292 38.3507 6.74662 37.2888 6.78056 36.0421C6.8145 34.8236 7.84588 33.8372 9.06958 33.8523C10.2839 33.8693 11.2926 34.8915 11.2945 36.1062C11.2945 37.3492 10.248 38.3847 9.00359 38.3677ZM9.04884 31.5946C6.55807 31.5908 4.5217 33.6241 4.52359 36.1156C4.52547 38.5733 6.53733 40.6046 8.99039 40.6254C11.483 40.6461 13.5402 38.6242 13.5515 36.1383C13.5647 33.6448 11.5377 31.6002 9.04884 31.5946ZM9.00359 38.3677C7.76292 38.3507 6.74662 37.2888 6.78056 36.0421C6.8145 34.8236 7.84588 33.8372 9.06958 33.8523C10.2839 33.8693 11.2926 34.8915 11.2945 36.1062C11.2945 37.3492 10.248 38.3847 9.00359 38.3677ZM30.5306 51.9177C29.9291 51.8913 29.3955 52.3741 29.3578 52.9795C29.3201 53.6095 29.8386 54.164 30.4703 54.1716C31.0736 54.1791 31.5921 53.6812 31.6091 53.0757C31.6261 52.4703 31.1358 51.9441 30.5306 51.9177ZM35.0653 51.9195C34.4336 51.8799 33.8812 52.3967 33.8736 53.0324C33.8642 53.6378 34.362 54.1546 34.9672 54.1716C35.5706 54.1904 36.0985 53.6982 36.1249 53.0927C36.1513 52.491 35.6686 51.9554 35.0653 51.9195ZM39.5057 51.9177C38.8721 51.9233 38.3536 52.4741 38.3876 53.104C38.4215 53.7095 38.9532 54.1961 39.5566 54.1716C40.1618 54.1489 40.654 53.6246 40.6408 53.0192C40.6257 52.4137 40.1109 51.9139 39.5057 51.9177ZM39.5057 51.9177C38.8721 51.9233 38.3536 52.4741 38.3876 53.104C38.4215 53.7095 38.9532 54.1961 39.5566 54.1716C40.1618 54.1489 40.654 53.6246 40.6408 53.0192C40.6257 52.4137 40.1109 51.9139 39.5057 51.9177ZM35.0653 51.9195C34.4336 51.8799 33.8812 52.3967 33.8736 53.0324C33.8642 53.6378 34.362 54.1546 34.9672 54.1716C35.5706 54.1904 36.0985 53.6982 36.1249 53.0927C36.1513 52.491 35.6686 51.9554 35.0653 51.9195ZM30.5306 51.9177C29.9291 51.8913 29.3955 52.3741 29.3578 52.9795C29.3201 53.6095 29.8386 54.164 30.4703 54.1716C31.0736 54.1791 31.5921 53.6812 31.6091 53.0757C31.6261 52.4703 31.1358 51.9441 30.5306 51.9177ZM9.04884 31.5946C6.55807 31.5908 4.5217 33.6241 4.52359 36.1156C4.52547 38.5733 6.53733 40.6046 8.99039 40.6254C11.483 40.6461 13.5402 38.6242 13.5515 36.1383C13.5647 33.6448 11.5377 31.6002 9.04884 31.5946ZM9.00359 38.3677C7.76292 38.3507 6.74662 37.2888 6.78056 36.0421C6.8145 34.8236 7.84588 33.8372 9.06958 33.8523C10.2839 33.8693 11.2926 34.8915 11.2945 36.1062C11.2945 37.3492 10.248 38.3847 9.00359 38.3677ZM9.04884 31.5946C6.55807 31.5908 4.5217 33.6241 4.52359 36.1156C4.52547 38.5733 6.53733 40.6046 8.99039 40.6254C11.483 40.6461 13.5402 38.6242 13.5515 36.1383C13.5647 33.6448 11.5377 31.6002 9.04884 31.5946ZM9.00359 38.3677C7.76292 38.3507 6.74662 37.2888 6.78056 36.0421C6.8145 34.8236 7.84588 33.8372 9.06958 33.8523C10.2839 33.8693 11.2926 34.8915 11.2945 36.1062C11.2945 37.3492 10.248 38.3847 9.00359 38.3677ZM25.8809 9.03457C25.1983 9.02325 24.5177 9.04211 23.837 9.02891C23.0658 9.01382 22.5793 8.56492 22.585 7.89912C22.5907 7.26726 23.0696 6.80139 23.7861 6.78064C24.4913 6.75801 25.1964 6.77121 25.8997 6.77687C26.356 6.78064 26.818 6.94662 26.9255 7.37666C27.0744 7.97268 27.4478 7.91609 27.8701 7.90478C28.2208 7.89535 28.5772 7.87271 28.926 7.91044C29.3559 7.95759 29.3766 7.75011 29.3276 7.41627C29.0901 5.82626 27.7268 4.59273 26.0751 4.52483C25.2549 4.49276 24.429 4.49088 23.6088 4.52483C21.7327 4.60216 20.296 6.12615 20.3261 7.97456C20.3563 9.79279 21.8063 11.2376 23.6673 11.2847C24.4422 11.3036 25.2191 11.2659 25.9921 11.3017C26.6483 11.3338 27.1065 11.843 27.0952 12.4447C27.0839 13.0577 26.6276 13.5179 25.9544 13.5387C25.204 13.5613 24.4517 13.5462 23.6993 13.5424C23.2619 13.5405 22.8452 13.3576 22.749 12.9521C22.6095 12.3655 22.2437 12.3975 21.8138 12.4164C21.4612 12.4315 21.1068 12.4504 20.7579 12.4107C20.3243 12.3636 20.3035 12.5767 20.3507 12.9087C20.5618 14.444 21.9062 15.7039 23.4542 15.7907C23.8992 15.8152 24.3461 15.7945 24.7929 15.7945V15.8039C25.1682 15.8039 25.5453 15.8114 25.9205 15.8039C27.8701 15.7643 29.3465 14.3157 29.354 12.4409C29.3616 10.5454 27.8531 9.06286 25.8809 9.03457ZM30.5306 51.9177C29.9291 51.8913 29.3955 52.3741 29.3578 52.9795C29.3201 53.6095 29.8386 54.164 30.4703 54.1716C31.0736 54.1791 31.5921 53.6812 31.6091 53.0757C31.6261 52.4703 31.1358 51.9441 30.5306 51.9177ZM35.0653 51.9195C34.4336 51.8799 33.8812 52.3967 33.8736 53.0324C33.8642 53.6378 34.362 54.1546 34.9672 54.1716C35.5706 54.1904 36.0985 53.6982 36.1249 53.0927C36.1513 52.491 35.6686 51.9554 35.0653 51.9195ZM37.8992 13.5424C37.1243 13.5613 36.3474 13.5141 35.5744 13.5556C34 13.6405 33.8095 12.9257 33.8604 11.6676C33.8736 11.3432 33.9905 11.2791 34.279 11.2847C35.0785 11.2998 35.876 11.2904 36.6755 11.2904C38.4309 11.2904 38.4102 11.2904 38.3989 9.54383C38.397 9.07041 38.2235 9.01571 37.8276 9.02325C36.6774 9.04777 35.5253 9.03646 34.3752 9.02703C34.2074 9.02514 33.9943 9.13076 33.8774 8.89877C33.4268 8.00286 34.1263 6.80893 35.1313 6.77687C35.6479 6.76178 36.1664 6.77498 36.683 6.77498C38.4818 6.77498 38.4724 6.77498 38.3951 4.94921C38.38 4.62291 38.3084 4.50031 37.9614 4.50785C36.9282 4.53237 35.893 4.48333 34.8616 4.5286C33.0138 4.61159 31.6393 6.07334 31.6148 7.93684C31.6053 8.66677 31.6129 9.39482 31.6129 10.1229C31.6129 10.8981 31.6016 11.6733 31.6167 12.4485C31.6506 14.3044 33.0647 15.7417 34.9125 15.7982C35.4989 15.8171 36.0872 15.8058 36.6736 15.8058C38.4743 15.8058 38.4592 15.8058 38.397 13.9894C38.3838 13.5896 38.2386 13.533 37.8992 13.5424ZM39.5057 51.9177C38.8721 51.9233 38.3536 52.4741 38.3876 53.104C38.4215 53.7095 38.9532 54.1961 39.5566 54.1716C40.1618 54.1489 40.654 53.6246 40.6408 53.0192C40.6257 52.4137 40.1109 51.9139 39.5057 51.9177ZM49.6705 7.96891C49.6554 6.19406 48.4789 4.79266 46.7272 4.56632C45.6826 4.43052 44.6079 4.42675 43.5633 4.5701C41.8117 4.81152 40.6615 6.20726 40.6445 7.99343C40.637 8.72147 40.6426 9.44952 40.6426 10.1795H40.6464C40.6464 10.9792 40.6219 11.7789 40.6521 12.5767C40.7143 14.3195 42.1247 15.7322 43.865 15.7945C44.7097 15.8228 45.5582 15.8209 46.4029 15.7964C48.213 15.7398 49.6347 14.3044 49.6668 12.4824C49.6931 10.9792 49.6818 9.47404 49.6705 7.96891ZM47.4117 12.3523C47.3928 13.103 46.978 13.5217 46.2276 13.5405C45.5016 13.5613 44.7738 13.5632 44.0479 13.5387C43.3371 13.516 42.9147 13.0973 42.9072 12.3825C42.8883 10.9056 42.8883 9.42689 42.9072 7.95004C42.9166 7.25218 43.354 6.80893 44.0517 6.78253C44.7776 6.75235 45.5073 6.75612 46.2332 6.78064C46.9667 6.80705 47.3928 7.25029 47.4117 7.98965C47.4286 8.71581 47.4154 9.44386 47.4154 10.17C47.4154 10.8962 47.4305 11.6261 47.4117 12.3523ZM65.4863 38.8637C65.4825 38.4695 65.3826 38.3526 64.9828 38.3583C63.4782 38.3828 61.9736 38.3677 60.4689 38.3677C58.6154 38.3677 58.6249 38.3677 58.6927 40.201C58.7059 40.5349 58.7851 40.6424 59.1264 40.6348C60.1125 40.6122 61.1006 40.6273 62.0886 40.6273H63.7799C65.5202 40.6273 65.507 40.6273 65.4863 38.8637ZM65.4863 29.8311C65.4825 29.4331 65.3788 29.3218 64.981 29.3275C63.4763 29.3501 61.9717 29.3369 60.467 29.3369C58.6136 29.3369 58.6249 29.3369 58.6927 31.1721C58.7059 31.5078 58.7889 31.6097 59.1283 31.6021C60.1144 31.5814 61.1024 31.5946 62.0905 31.5946H63.7818C65.5202 31.5946 65.507 31.5946 65.4863 29.8311ZM64.93 33.8429C63.9911 33.8711 63.0502 33.8523 62.1093 33.8523H60.4161C58.6682 33.8523 58.689 33.8523 58.689 35.597C58.689 36.0609 58.8436 36.1251 59.249 36.1194C60.7536 36.0968 62.2583 36.11 63.7629 36.11C65.5108 36.11 65.49 36.11 65.49 34.3672C65.49 33.9013 65.3354 33.8315 64.93 33.8429ZM64.93 33.8429C63.9911 33.8711 63.0502 33.8523 62.1093 33.8523H60.4161C58.6682 33.8523 58.689 33.8523 58.689 35.597C58.689 36.0609 58.8436 36.1251 59.249 36.1194C60.7536 36.0968 62.2583 36.11 63.7629 36.11C65.5108 36.11 65.49 36.11 65.49 34.3672C65.49 33.9013 65.3354 33.8315 64.93 33.8429ZM65.4863 29.8311C65.4825 29.4331 65.3788 29.3218 64.981 29.3275C63.4763 29.3501 61.9717 29.3369 60.467 29.3369C58.6136 29.3369 58.6249 29.3369 58.6927 31.1721C58.7059 31.5078 58.7889 31.6097 59.1283 31.6021C60.1144 31.5814 61.1024 31.5946 62.0905 31.5946H63.7818C65.5202 31.5946 65.507 31.5946 65.4863 29.8311ZM65.4863 38.8637C65.4825 38.4695 65.3826 38.3526 64.9828 38.3583C63.4782 38.3828 61.9736 38.3677 60.4689 38.3677C58.6154 38.3677 58.6249 38.3677 58.6927 40.201C58.7059 40.5349 58.7851 40.6424 59.1264 40.6348C60.1125 40.6122 61.1006 40.6273 62.0886 40.6273H63.7799C65.5202 40.6273 65.507 40.6273 65.4863 38.8637ZM39.5057 51.9177C38.8721 51.9233 38.3536 52.4741 38.3876 53.104C38.4215 53.7095 38.9532 54.1961 39.5566 54.1716C40.1618 54.1489 40.654 53.6246 40.6408 53.0192C40.6257 52.4137 40.1109 51.9139 39.5057 51.9177ZM35.0653 51.9195C34.4336 51.8799 33.8812 52.3967 33.8736 53.0324C33.8642 53.6378 34.362 54.1546 34.9672 54.1716C35.5706 54.1904 36.0985 53.6982 36.1249 53.0927C36.1513 52.491 35.6686 51.9554 35.0653 51.9195ZM30.5306 51.9177C29.9291 51.8913 29.3955 52.3741 29.3578 52.9795C29.3201 53.6095 29.8386 54.164 30.4703 54.1716C31.0736 54.1791 31.5921 53.6812 31.6091 53.0757C31.6261 52.4703 31.1358 51.9441 30.5306 51.9177ZM9.04884 31.5946C6.55807 31.5908 4.5217 33.6241 4.52359 36.1156C4.52547 38.5733 6.53733 40.6046 8.99039 40.6254C11.483 40.6461 13.5402 38.6242 13.5515 36.1383C13.5647 33.6448 11.5377 31.6002 9.04884 31.5946ZM9.00359 38.3677C7.76292 38.3507 6.74662 37.2888 6.78056 36.0421C6.8145 34.8236 7.84588 33.8372 9.06958 33.8523C10.2839 33.8693 11.2926 34.8915 11.2945 36.1062C11.2945 37.3492 10.248 38.3847 9.00359 38.3677ZM49.6705 7.96891C49.6554 6.19406 48.4789 4.79266 46.7272 4.56632C45.6826 4.43052 44.6079 4.42675 43.5633 4.5701C41.8117 4.81152 40.6615 6.20726 40.6445 7.99343C40.637 8.72147 40.6426 9.44952 40.6426 10.1795H40.6464C40.6464 10.9792 40.6219 11.7789 40.6521 12.5767C40.7143 14.3195 42.1247 15.7322 43.865 15.7945C44.7097 15.8228 45.5582 15.8209 46.4029 15.7964C48.213 15.7398 49.6347 14.3044 49.6668 12.4824C49.6931 10.9792 49.6818 9.47404 49.6705 7.96891ZM47.4117 12.3523C47.3928 13.103 46.978 13.5217 46.2276 13.5405C45.5016 13.5613 44.7738 13.5632 44.0479 13.5387C43.3371 13.516 42.9147 13.0973 42.9072 12.3825C42.8883 10.9056 42.8883 9.42689 42.9072 7.95004C42.9166 7.25218 43.354 6.80893 44.0517 6.78253C44.7776 6.75235 45.5073 6.75612 46.2332 6.78064C46.9667 6.80705 47.3928 7.25029 47.4117 7.98965C47.4286 8.71581 47.4154 9.44386 47.4154 10.17C47.4154 10.8962 47.4305 11.6261 47.4117 12.3523ZM37.8992 13.5424C37.1243 13.5613 36.3474 13.5141 35.5744 13.5556C34 13.6405 33.8095 12.9257 33.8604 11.6676C33.8736 11.3432 33.9905 11.2791 34.279 11.2847C35.0785 11.2998 35.876 11.2904 36.6755 11.2904C38.4309 11.2904 38.4102 11.2904 38.3989 9.54383C38.397 9.07041 38.2235 9.01571 37.8276 9.02325C36.6774 9.04777 35.5253 9.03646 34.3752 9.02703C34.2074 9.02514 33.9943 9.13076 33.8774 8.89877C33.4268 8.00286 34.1263 6.80893 35.1313 6.77687C35.6479 6.76178 36.1664 6.77498 36.683 6.77498C38.4818 6.77498 38.4724 6.77498 38.3951 4.94921C38.38 4.62291 38.3084 4.50031 37.9614 4.50785C36.9282 4.53237 35.893 4.48333 34.8616 4.5286C33.0138 4.61159 31.6393 6.07334 31.6148 7.93684C31.6053 8.66677 31.6129 9.39482 31.6129 10.1229C31.6129 10.8981 31.6016 11.6733 31.6167 12.4485C31.6506 14.3044 33.0647 15.7417 34.9125 15.7982C35.4989 15.8171 36.0872 15.8058 36.6736 15.8058C38.4743 15.8058 38.4592 15.8058 38.397 13.9894C38.3838 13.5896 38.2386 13.533 37.8992 13.5424ZM25.8809 9.03457C25.1983 9.02325 24.5177 9.04211 23.837 9.02891C23.0658 9.01382 22.5793 8.56492 22.585 7.89912C22.5907 7.26726 23.0696 6.80139 23.7861 6.78064C24.4913 6.75801 25.1964 6.77121 25.8997 6.77687C26.356 6.78064 26.818 6.94662 26.9255 7.37666C27.0744 7.97268 27.4478 7.91609 27.8701 7.90478C28.2208 7.89535 28.5772 7.87271 28.926 7.91044C29.3559 7.95759 29.3766 7.75011 29.3276 7.41627C29.0901 5.82626 27.7268 4.59273 26.0751 4.52483C25.2549 4.49276 24.429 4.49088 23.6088 4.52483C21.7327 4.60216 20.296 6.12615 20.3261 7.97456C20.3563 9.79279 21.8063 11.2376 23.6673 11.2847C24.4422 11.3036 25.2191 11.2659 25.9921 11.3017C26.6483 11.3338 27.1065 11.843 27.0952 12.4447C27.0839 13.0577 26.6276 13.5179 25.9544 13.5387C25.204 13.5613 24.4517 13.5462 23.6993 13.5424C23.2619 13.5405 22.8452 13.3576 22.749 12.9521C22.6095 12.3655 22.2437 12.3975 21.8138 12.4164C21.4612 12.4315 21.1068 12.4504 20.7579 12.4107C20.3243 12.3636 20.3035 12.5767 20.3507 12.9087C20.5618 14.444 21.9062 15.7039 23.4542 15.7907C23.8992 15.8152 24.3461 15.7945 24.7929 15.7945V15.8039C25.1682 15.8039 25.5453 15.8114 25.9205 15.8039C27.8701 15.7643 29.3465 14.3157 29.354 12.4409C29.3616 10.5454 27.8531 9.06286 25.8809 9.03457ZM9.04884 31.5946C6.55807 31.5908 4.5217 33.6241 4.52359 36.1156C4.52547 38.5733 6.53733 40.6046 8.99039 40.6254C11.483 40.6461 13.5402 38.6242 13.5515 36.1383C13.5647 33.6448 11.5377 31.6002 9.04884 31.5946ZM9.00359 38.3677C7.76292 38.3507 6.74662 37.2888 6.78056 36.0421C6.8145 34.8236 7.84588 33.8372 9.06958 33.8523C10.2839 33.8693 11.2926 34.8915 11.2945 36.1062C11.2945 37.3492 10.248 38.3847 9.00359 38.3677ZM25.8809 9.03457C25.1983 9.02325 24.5177 9.04211 23.837 9.02891C23.0658 9.01382 22.5793 8.56492 22.585 7.89912C22.5907 7.26726 23.0696 6.80139 23.7861 6.78064C24.4913 6.75801 25.1964 6.77121 25.8997 6.77687C26.356 6.78064 26.818 6.94662 26.9255 7.37666C27.0744 7.97268 27.4478 7.91609 27.8701 7.90478C28.2208 7.89535 28.5772 7.87271 28.926 7.91044C29.3559 7.95759 29.3766 7.75011 29.3276 7.41627C29.0901 5.82626 27.7268 4.59273 26.0751 4.52483C25.2549 4.49276 24.429 4.49088 23.6088 4.52483C21.7327 4.60216 20.296 6.12615 20.3261 7.97456C20.3563 9.79279 21.8063 11.2376 23.6673 11.2847C24.4422 11.3036 25.2191 11.2659 25.9921 11.3017C26.6483 11.3338 27.1065 11.843 27.0952 12.4447C27.0839 13.0577 26.6276 13.5179 25.9544 13.5387C25.204 13.5613 24.4517 13.5462 23.6993 13.5424C23.2619 13.5405 22.8452 13.3576 22.749 12.9521C22.6095 12.3655 22.2437 12.3975 21.8138 12.4164C21.4612 12.4315 21.1068 12.4504 20.7579 12.4107C20.3243 12.3636 20.3035 12.5767 20.3507 12.9087C20.5618 14.444 21.9062 15.7039 23.4542 15.7907C23.8992 15.8152 24.3461 15.7945 24.7929 15.7945V15.8039C25.1682 15.8039 25.5453 15.8114 25.9205 15.8039C27.8701 15.7643 29.3465 14.3157 29.354 12.4409C29.3616 10.5454 27.8531 9.06286 25.8809 9.03457ZM30.5306 51.9177C29.9291 51.8913 29.3955 52.3741 29.3578 52.9795C29.3201 53.6095 29.8386 54.164 30.4703 54.1716C31.0736 54.1791 31.5921 53.6812 31.6091 53.0757C31.6261 52.4703 31.1358 51.9441 30.5306 51.9177ZM35.0653 51.9195C34.4336 51.8799 33.8812 52.3967 33.8736 53.0324C33.8642 53.6378 34.362 54.1546 34.9672 54.1716C35.5706 54.1904 36.0985 53.6982 36.1249 53.0927C36.1513 52.491 35.6686 51.9554 35.0653 51.9195ZM37.8992 13.5424C37.1243 13.5613 36.3474 13.5141 35.5744 13.5556C34 13.6405 33.8095 12.9257 33.8604 11.6676C33.8736 11.3432 33.9905 11.2791 34.279 11.2847C35.0785 11.2998 35.876 11.2904 36.6755 11.2904C38.4309 11.2904 38.4102 11.2904 38.3989 9.54383C38.397 9.07041 38.2235 9.01571 37.8276 9.02325C36.6774 9.04777 35.5253 9.03646 34.3752 9.02703C34.2074 9.02514 33.9943 9.13076 33.8774 8.89877C33.4268 8.00286 34.1263 6.80893 35.1313 6.77687C35.6479 6.76178 36.1664 6.77498 36.683 6.77498C38.4818 6.77498 38.4724 6.77498 38.3951 4.94921C38.38 4.62291 38.3084 4.50031 37.9614 4.50785C36.9282 4.53237 35.893 4.48333 34.8616 4.5286C33.0138 4.61159 31.6393 6.07334 31.6148 7.93684C31.6053 8.66677 31.6129 9.39482 31.6129 10.1229C31.6129 10.8981 31.6016 11.6733 31.6167 12.4485C31.6506 14.3044 33.0647 15.7417 34.9125 15.7982C35.4989 15.8171 36.0872 15.8058 36.6736 15.8058C38.4743 15.8058 38.4592 15.8058 38.397 13.9894C38.3838 13.5896 38.2386 13.533 37.8992 13.5424ZM39.5057 51.9177C38.8721 51.9233 38.3536 52.4741 38.3876 53.104C38.4215 53.7095 38.9532 54.1961 39.5566 54.1716C40.1618 54.1489 40.654 53.6246 40.6408 53.0192C40.6257 52.4137 40.1109 51.9139 39.5057 51.9177ZM49.6705 7.96891C49.6554 6.19406 48.4789 4.79266 46.7272 4.56632C45.6826 4.43052 44.6079 4.42675 43.5633 4.5701C41.8117 4.81152 40.6615 6.20726 40.6445 7.99343C40.637 8.72147 40.6426 9.44952 40.6426 10.1795H40.6464C40.6464 10.9792 40.6219 11.7789 40.6521 12.5767C40.7143 14.3195 42.1247 15.7322 43.865 15.7945C44.7097 15.8228 45.5582 15.8209 46.4029 15.7964C48.213 15.7398 49.6347 14.3044 49.6668 12.4824C49.6931 10.9792 49.6818 9.47404 49.6705 7.96891ZM47.4117 12.3523C47.3928 13.103 46.978 13.5217 46.2276 13.5405C45.5016 13.5613 44.7738 13.5632 44.0479 13.5387C43.3371 13.516 42.9147 13.0973 42.9072 12.3825C42.8883 10.9056 42.8883 9.42689 42.9072 7.95004C42.9166 7.25218 43.354 6.80893 44.0517 6.78253C44.7776 6.75235 45.5073 6.75612 46.2332 6.78064C46.9667 6.80705 47.3928 7.25029 47.4117 7.98965C47.4286 8.71581 47.4154 9.44386 47.4154 10.17C47.4154 10.8962 47.4305 11.6261 47.4117 12.3523ZM65.4863 38.8637C65.4825 38.4695 65.3826 38.3526 64.9828 38.3583C63.4782 38.3828 61.9736 38.3677 60.4689 38.3677C58.6154 38.3677 58.6249 38.3677 58.6927 40.201C58.7059 40.5349 58.7851 40.6424 59.1264 40.6348C60.1125 40.6122 61.1006 40.6273 62.0886 40.6273H63.7799C65.5202 40.6273 65.507 40.6273 65.4863 38.8637ZM65.4863 29.8311C65.4825 29.4331 65.3788 29.3218 64.981 29.3275C63.4763 29.3501 61.9717 29.3369 60.467 29.3369C58.6136 29.3369 58.6249 29.3369 58.6927 31.1721C58.7059 31.5078 58.7889 31.6097 59.1283 31.6021C60.1144 31.5814 61.1024 31.5946 62.0905 31.5946H63.7818C65.5202 31.5946 65.507 31.5946 65.4863 29.8311ZM64.93 33.8429C63.9911 33.8711 63.0502 33.8523 62.1093 33.8523H60.4161C58.6682 33.8523 58.689 33.8523 58.689 35.597C58.689 36.0609 58.8436 36.1251 59.249 36.1194C60.7536 36.0968 62.2583 36.11 63.7629 36.11C65.5108 36.11 65.49 36.11 65.49 34.3672C65.49 33.9013 65.3354 33.8315 64.93 33.8429ZM62.1093 33.8523H60.4161C58.6682 33.8523 58.689 33.8523 58.689 35.597C58.689 36.0609 58.8436 36.1251 59.249 36.1194C60.7536 36.0968 62.2583 36.11 63.7629 36.11C65.5108 36.11 65.49 36.11 65.49 34.3672C65.49 33.9013 65.3354 33.8315 64.93 33.8429C63.9911 33.8711 63.0502 33.8523 62.1093 33.8523ZM59.1283 31.6021C60.1144 31.5814 61.1024 31.5946 62.0905 31.5946H63.7818C65.5202 31.5946 65.507 31.5946 65.4863 29.8311C65.4825 29.4331 65.3788 29.3218 64.981 29.3275C63.4763 29.3501 61.9717 29.3369 60.467 29.3369C58.6136 29.3369 58.6249 29.3369 58.6927 31.1721C58.7059 31.5078 58.7889 31.6097 59.1283 31.6021ZM64.9828 38.3583C63.4782 38.3828 61.9736 38.3677 60.4689 38.3677C58.6154 38.3677 58.6249 38.3677 58.6927 40.201C58.7059 40.5349 58.7851 40.6424 59.1264 40.6348C60.1125 40.6122 61.1006 40.6273 62.0886 40.6273H63.7799C65.5202 40.6273 65.507 40.6273 65.4863 38.8637C65.4825 38.4695 65.3826 38.3526 64.9828 38.3583ZM39.5057 51.9177C38.8721 51.9233 38.3536 52.4741 38.3876 53.104C38.4215 53.7095 38.9532 54.1961 39.5566 54.1716C40.1618 54.1489 40.654 53.6246 40.6408 53.0192C40.6257 52.4137 40.1109 51.9139 39.5057 51.9177ZM35.0653 51.9195C34.4336 51.8799 33.8812 52.3967 33.8736 53.0324C33.8642 53.6378 34.362 54.1546 34.9672 54.1716C35.5706 54.1904 36.0985 53.6982 36.1249 53.0927C36.1513 52.491 35.6686 51.9554 35.0653 51.9195ZM30.5306 51.9177C29.9291 51.8913 29.3955 52.3741 29.3578 52.9795C29.3201 53.6095 29.8386 54.164 30.4703 54.1716C31.0736 54.1791 31.5921 53.6812 31.6091 53.0757C31.6261 52.4703 31.1358 51.9441 30.5306 51.9177ZM9.04884 31.5946C6.55807 31.5908 4.5217 33.6241 4.52359 36.1156C4.52547 38.5733 6.53733 40.6046 8.99039 40.6254C11.483 40.6461 13.5402 38.6242 13.5515 36.1383C13.5647 33.6448 11.5377 31.6002 9.04884 31.5946ZM9.00359 38.3677C7.76292 38.3507 6.74662 37.2888 6.78056 36.0421C6.8145 34.8236 7.84588 33.8372 9.06958 33.8523C10.2839 33.8693 11.2926 34.8915 11.2945 36.1062C11.2945 37.3492 10.248 38.3847 9.00359 38.3677ZM49.6705 7.96891C49.6554 6.19406 48.4789 4.79266 46.7272 4.56632C45.6826 4.43052 44.6079 4.42675 43.5633 4.5701C41.8117 4.81152 40.6615 6.20726 40.6445 7.99343C40.637 8.72147 40.6426 9.44952 40.6426 10.1795H40.6464C40.6464 10.9792 40.6219 11.7789 40.6521 12.5767C40.7143 14.3195 42.1247 15.7322 43.865 15.7945C44.7097 15.8228 45.5582 15.8209 46.4029 15.7964C48.213 15.7398 49.6347 14.3044 49.6668 12.4824C49.6931 10.9792 49.6818 9.47404 49.6705 7.96891ZM47.4117 12.3523C47.3928 13.103 46.978 13.5217 46.2276 13.5405C45.5016 13.5613 44.7738 13.5632 44.0479 13.5387C43.3371 13.516 42.9147 13.0973 42.9072 12.3825C42.8883 10.9056 42.8883 9.42689 42.9072 7.95004C42.9166 7.25218 43.354 6.80893 44.0517 6.78253C44.7776 6.75235 45.5073 6.75612 46.2332 6.78064C46.9667 6.80705 47.3928 7.25029 47.4117 7.98965C47.4286 8.71581 47.4154 9.44386 47.4154 10.17C47.4154 10.8962 47.4305 11.6261 47.4117 12.3523ZM35.1313 6.77687C35.6479 6.76178 36.1664 6.77498 36.683 6.77498C38.4818 6.77498 38.4724 6.77498 38.3951 4.94921C38.38 4.62291 38.3084 4.50031 37.9614 4.50785C36.9282 4.53237 35.893 4.48333 34.8616 4.5286C33.0138 4.61159 31.6393 6.07334 31.6148 7.93684C31.6053 8.66677 31.6129 9.39482 31.6129 10.1229C31.6129 10.8981 31.6016 11.6733 31.6167 12.4485C31.6506 14.3044 33.0647 15.7417 34.9125 15.7982C35.4989 15.8171 36.0872 15.8058 36.6736 15.8058C38.4743 15.8058 38.4592 15.8058 38.397 13.9894C38.3838 13.5896 38.2386 13.533 37.8992 13.5424C37.1243 13.5613 36.3474 13.5141 35.5744 13.5556C34 13.6405 33.8095 12.9257 33.8604 11.6676C33.8736 11.3432 33.9905 11.2791 34.279 11.2847C35.0785 11.2998 35.876 11.2904 36.6755 11.2904C38.4309 11.2904 38.4102 11.2904 38.3989 9.54383C38.397 9.07041 38.2235 9.01571 37.8276 9.02325C36.6774 9.04777 35.5253 9.03646 34.3752 9.02703C34.2074 9.02514 33.9943 9.13076 33.8774 8.89877C33.4268 8.00286 34.1263 6.80893 35.1313 6.77687ZM25.8809 9.03457C25.1983 9.02325 24.5177 9.04211 23.837 9.02891C23.0658 9.01382 22.5793 8.56492 22.585 7.89912C22.5907 7.26726 23.0696 6.80139 23.7861 6.78064C24.4913 6.75801 25.1964 6.77121 25.8997 6.77687C26.356 6.78064 26.818 6.94662 26.9255 7.37666C27.0744 7.97268 27.4478 7.91609 27.8701 7.90478C28.2208 7.89535 28.5772 7.87271 28.926 7.91044C29.3559 7.95759 29.3766 7.75011 29.3276 7.41627C29.0901 5.82626 27.7268 4.59273 26.0751 4.52483C25.2549 4.49276 24.429 4.49088 23.6088 4.52483C21.7327 4.60216 20.296 6.12615 20.3261 7.97456C20.3563 9.79279 21.8063 11.2376 23.6673 11.2847C24.4422 11.3036 25.2191 11.2659 25.9921 11.3017C26.6483 11.3338 27.1065 11.843 27.0952 12.4447C27.0839 13.0577 26.6276 13.5179 25.9544 13.5387C25.204 13.5613 24.4517 13.5462 23.6993 13.5424C23.2619 13.5405 22.8452 13.3576 22.749 12.9521C22.6095 12.3655 22.2437 12.3975 21.8138 12.4164C21.4612 12.4315 21.1068 12.4504 20.7579 12.4107C20.3243 12.3636 20.3035 12.5767 20.3507 12.9087C20.5618 14.444 21.9062 15.7039 23.4542 15.7907C23.8992 15.8152 24.3461 15.7945 24.7929 15.7945V15.8039C25.1682 15.8039 25.5453 15.8114 25.9205 15.8039C27.8701 15.7643 29.3465 14.3157 29.354 12.4409C29.3616 10.5454 27.8531 9.06286 25.8809 9.03457ZM70.0002 25.3175C70.0002 24.9196 69.8984 24.8026 69.4968 24.8102C68.2995 24.8366 67.0984 24.8083 65.8992 24.829C65.5598 24.8347 65.4599 24.7347 65.4674 24.3952C65.49 23.4314 65.4825 22.4676 65.475 21.5019C65.4448 18.2596 62.9936 15.8114 59.7467 15.7907C58.1233 15.7794 56.4999 15.7549 54.8783 15.8058C54.2599 15.8265 54.1713 15.6228 54.175 15.0664C54.2014 11.3017 54.1882 7.53887 54.1882 3.77604C54.1863 1.38819 52.8118 0.00188613 50.4398 0H19.5418C17.2056 0.00188613 15.8122 1.39385 15.8103 3.72134C15.8103 7.55396 15.8009 11.3885 15.8216 15.223C15.8235 15.6813 15.7085 15.8077 15.2447 15.8001C13.6005 15.7699 11.9525 15.7813 10.3065 15.7907C6.97665 15.8058 4.53679 18.2502 4.52359 21.5868C4.51605 23.6332 4.51416 25.6797 4.52924 27.7261C4.53113 28.1052 4.44817 28.3448 4.10123 28.5787C-1.37055 32.2566 -1.3649 39.9634 4.11066 43.6526C4.42743 43.8658 4.53302 44.0695 4.53113 44.4373C4.51605 47.1891 4.5217 49.941 4.52359 52.6929C4.52547 56.3067 6.91254 58.6889 10.5346 58.6908C14.6734 58.6926 18.8121 58.7096 22.9508 58.6719C23.6239 58.6662 23.754 58.8756 23.7239 59.4848C23.6767 60.4694 23.6786 61.4615 23.7239 62.446C23.7521 63.0251 23.6466 63.2326 22.9866 63.2269C19.2853 63.1911 16.9435 65.5846 16.9247 69.3059C16.9228 69.8491 17.0491 69.9962 17.6072 69.9943C23.392 69.9717 29.1768 69.9811 34.9616 69.9811H43.1447C46.2709 69.9811 49.399 69.983 52.5271 69.9755C52.7401 69.9736 53.0607 70.1358 53.0663 69.6643C53.0795 68.576 53.0286 67.5028 52.5327 66.5031C51.458 64.3378 49.7026 63.2514 47.2985 63.208C46.2879 63.1892 46.286 63.1986 46.286 62.1688C46.286 61.205 46.32 60.2393 46.2728 59.2773C46.2483 58.7568 46.4312 58.6775 46.9026 58.6794C51.1111 58.6983 55.3195 58.6926 59.5299 58.6889C63.054 58.687 65.4693 56.2803 65.475 52.7683C65.4787 50.3918 65.4844 48.0171 65.4674 45.6425C65.4636 45.2502 65.5598 45.1238 65.9671 45.1332C67.1418 45.1596 68.3183 45.1257 69.493 45.1521C69.889 45.1596 70.0002 45.0521 70.0002 44.6504C69.987 38.2055 69.987 31.7606 70.0002 25.3175ZM18.0673 3.86468C18.0673 2.584 18.401 2.2577 19.7096 2.2577H50.3229C51.5824 2.25959 51.9294 2.5972 51.9294 3.83073C51.9313 8.06321 51.9313 12.2957 51.9294 16.5301C51.9294 17.724 51.5862 18.0635 50.3701 18.0635C46.8196 18.0654 43.2692 18.0691 39.7187 18.0578C39.3511 18.0559 39.0456 18.1465 38.7402 18.3502C36.7905 19.6591 34.8334 20.9549 32.8762 22.2488C32.6103 22.4242 32.3558 22.6732 31.9806 22.4827C31.5827 22.2828 31.611 21.93 31.611 21.5736C31.6148 20.6324 31.5827 19.6912 31.6242 18.7519C31.6487 18.2181 31.5224 18.0446 30.9473 18.0484C27.1857 18.0786 23.4222 18.0654 19.6606 18.0635C18.3973 18.0635 18.0673 17.7372 18.0673 16.4942V3.86468ZM6.81827 21.0587C6.89558 19.3838 8.39268 18.0786 10.084 18.0541C11.9167 18.0258 13.7513 18.0559 15.5859 18.039C15.9253 18.0352 16.0573 18.171 16.2063 18.4539C16.8511 19.6837 17.8787 20.3193 19.2778 20.3212C22.3833 20.3231 25.4868 20.3457 28.5904 20.3023C29.2692 20.2929 29.4219 20.5136 29.3653 21.1228C29.3257 21.5623 29.3239 22.0244 29.4049 22.4582C29.7839 24.5122 32.0239 25.4609 33.8284 24.3122C35.6102 23.1787 37.3713 22.0093 39.1097 20.8097C39.6452 20.4419 40.1713 20.308 40.8048 20.3118C44.0498 20.3325 47.2948 20.308 50.5397 20.3287C52.0538 20.3363 53.1644 19.7157 53.8394 18.3634C53.9676 18.1031 54.1128 18.0408 54.3749 18.0427C56.2548 18.0522 58.1365 18.0126 60.0164 18.0616C61.7473 18.105 63.1558 19.563 63.2105 21.302C63.2406 22.3129 63.1973 23.3258 63.2293 24.3368C63.2425 24.7536 63.0954 24.8309 62.7127 24.829C60.0786 24.8139 57.4464 24.8404 54.8123 24.8045C54.2618 24.797 54.1713 24.9648 54.1769 25.4684C54.2014 28.4315 54.1788 31.3947 54.1977 34.3578C54.2014 34.8161 54.1411 35.0066 53.6113 34.9953C51.7295 34.9594 49.8478 34.9632 47.9679 34.9953C47.4814 35.0028 47.3985 34.8387 47.406 34.403C47.4305 32.9205 47.3966 31.4399 47.4268 29.9574C47.4362 29.4953 47.3626 29.3124 46.8347 29.3218C44.9548 29.3576 43.0731 29.3558 41.1932 29.3237C40.7011 29.3143 40.6332 29.4859 40.6332 29.9178C40.6483 33.9862 40.6238 38.0546 40.6615 42.123C40.6672 42.7963 40.4579 42.9151 39.8507 42.8982C38.3857 42.8567 38.3857 42.885 38.3857 41.3855C38.3857 36.8927 38.363 32.4 38.4083 27.9091C38.414 27.1603 38.1877 27.0434 37.5202 27.0622C35.8289 27.1113 34.1338 27.1113 32.4425 27.0622C31.7939 27.0434 31.5865 27.1622 31.5921 27.8733C31.6317 32.6244 31.6035 37.3756 31.6261 42.1249C31.628 42.7039 31.5488 42.9302 30.887 42.9038C29.3578 42.8435 29.3559 42.885 29.3559 41.3817C29.3559 38.3243 29.3446 35.2669 29.3672 32.2095C29.3691 31.7398 29.288 31.5701 28.7695 31.5814C26.9123 31.6153 25.055 31.6116 23.1978 31.5833C22.7245 31.5757 22.536 31.6625 22.5699 32.1812C22.6189 32.9545 22.568 33.7335 22.5888 34.5087C22.6001 34.8557 22.5303 35.0009 22.1362 34.9915C20.9144 34.9632 19.6907 34.967 18.467 34.9896C18.088 34.9972 17.9711 34.8821 17.8995 34.4973C17.0661 30.0008 13.1291 26.8849 8.56049 27.0962C7.97975 27.1226 7.40467 27.2452 6.79564 27.3282C6.79564 25.2383 6.72211 23.1447 6.81827 21.0587ZM42.8902 32.1604C42.8864 31.7021 43.0014 31.5795 43.4653 31.5814C45.1585 31.5927 45.1585 31.5738 45.1585 33.2883V37.2398C45.1585 38.9562 45.1453 40.6725 45.1679 42.3889C45.1717 42.785 45.0642 42.8906 44.6645 42.8944C42.8996 42.9151 42.8996 42.9302 42.8996 41.1912C42.8996 38.181 42.9109 35.1707 42.8902 32.1604ZM33.8585 29.9027C33.8529 29.4444 33.9717 29.3218 34.4336 29.3237C36.1287 29.335 36.1287 29.3161 36.1287 31.0306C36.1287 34.7689 36.1155 38.5091 36.1419 42.2475C36.1457 42.7718 36.025 42.9095 35.4933 42.9001C33.8717 42.8661 33.8699 42.8925 33.8699 41.261V36.1119C33.8699 34.0409 33.8849 31.9718 33.8585 29.9027ZM24.8325 34.3238C24.8288 33.9749 24.8985 33.8504 25.287 33.841C27.0989 33.7995 27.0971 33.7844 27.0971 35.5706C27.0971 37.8283 27.0876 40.086 27.1065 42.3437C27.1103 42.7567 27.0367 42.8982 26.5804 42.8982C24.8401 42.8982 24.8401 42.917 24.8401 41.1667V38.3451C24.8401 37.004 24.8514 35.663 24.8325 34.3238ZM2.26473 36.11C2.26473 32.3868 5.31362 29.3369 9.03564 29.3369C12.7577 29.3369 15.8084 32.3868 15.8084 36.1081C15.8084 39.8332 12.7614 42.8831 9.03753 42.8831C5.31739 42.8831 2.26473 39.8313 2.26473 36.11ZM6.76736 46.6271C6.82958 46.0537 6.78056 45.4652 6.78056 44.8711C11.5528 45.9405 15.2447 43.4904 16.8926 40.5386C17.3772 39.671 17.7373 38.7525 17.8919 37.7736C17.9542 37.3718 18.0522 37.2171 18.4878 37.2285C19.6851 37.2605 20.8861 37.2549 22.0835 37.2304C22.4775 37.2228 22.5982 37.3265 22.5925 37.7302C22.568 39.2825 22.5699 40.8347 22.5925 42.387C22.5982 42.7812 22.4926 42.9529 22.091 42.885C22.0457 42.8774 21.9967 42.8812 21.9496 42.885C21.4198 42.9265 20.6127 42.6473 20.4223 43C20.1546 43.4923 20.3412 44.2279 20.3224 44.8597C20.3167 45.0691 20.3978 45.1578 20.609 45.1446C20.7485 45.1351 20.8899 45.1427 21.0313 45.1427C30.342 45.1427 39.6527 45.137 48.9634 45.1578C49.5423 45.1578 49.7063 45.0352 49.6894 44.4391C49.6441 42.8869 49.6743 42.8548 48.1225 42.9001C47.5361 42.917 47.3815 42.768 47.4004 42.1777C47.4475 40.6989 47.4305 39.2146 47.406 37.7339C47.4004 37.336 47.5116 37.2266 47.9113 37.2304C49.8383 37.2511 51.7672 37.2511 53.6942 37.2304C54.094 37.2266 54.2014 37.3379 54.1977 37.7358C54.1788 40.0162 54.2014 42.2965 54.1769 44.5787C54.1713 45.0408 54.2957 45.1578 54.7539 45.154C57.388 45.1314 60.022 45.154 62.6542 45.1314C63.1181 45.1276 63.2331 45.2521 63.2312 45.7085C63.2199 47.4004 63.2387 47.4004 61.521 47.4004C43.535 47.4004 25.549 47.3966 7.56305 47.4155C6.93706 47.4155 6.69571 47.2853 6.76736 46.6271ZM47.308 65.4657C48.839 65.4676 50.0193 66.273 50.5341 67.6725H19.5022C19.8114 66.4069 21.12 65.4714 22.634 65.4676C26.0657 65.4582 29.4973 65.4639 32.9271 65.4639C37.7201 65.4639 42.515 65.462 47.308 65.4657ZM44.0385 62.7176C44.0498 63.1288 43.9159 63.2156 43.5275 63.2156C37.8389 63.2024 32.1484 63.2024 26.4579 63.2156C26.0525 63.2175 25.9507 63.0968 25.9601 62.7063C25.9846 61.5539 25.994 60.4015 25.9563 59.2491C25.9412 58.7756 26.094 58.6775 26.5408 58.6794C29.3616 58.7002 32.1842 58.6908 35.0049 58.6908C37.8257 58.6908 40.6483 58.7021 43.469 58.6794C43.9404 58.6738 44.0517 58.8096 44.0404 59.2623C44.0083 60.4128 44.0102 61.5671 44.0385 62.7176ZM63.2331 50.3163C63.1746 51.1594 63.2218 52.0082 63.218 52.8551C63.2086 54.9996 61.7812 56.4293 59.6317 56.4312C50.8131 56.4349 41.9965 56.4331 33.1779 56.4331C25.6301 56.4331 18.0824 56.4331 10.5327 56.4312C8.14568 56.4312 6.78244 55.0637 6.78056 52.6702C6.77867 51.9177 6.82015 51.1632 6.76736 50.4144C6.72588 49.8203 6.86164 49.6354 7.50837 49.6392C12.9179 49.6732 18.3256 49.6581 23.7333 49.6581H35.02C44.1912 49.6581 53.3624 49.6618 62.5336 49.6468C63.0521 49.6468 63.2746 49.7297 63.2331 50.3163ZM67.7432 42.3116C67.7432 42.7567 67.6509 42.9001 67.1757 42.8963C63.7893 42.8737 60.4048 42.8755 57.0184 42.8944C56.5734 42.8963 56.4282 42.802 56.4339 42.3267C56.4603 39.8577 56.4452 37.3888 56.4452 34.918C56.4452 32.4471 56.4565 30.0744 56.4358 27.6526C56.432 27.2056 56.5282 27.0641 57.0033 27.066C60.3897 27.0886 63.7742 27.0867 67.1606 27.0679C67.6075 27.066 67.747 27.1622 67.7451 27.6356C67.7263 32.5282 67.7282 37.419 67.7451 42.3116H67.7432ZM63.7629 36.11C65.5108 36.11 65.49 36.11 65.49 34.3672C65.49 33.9013 65.3354 33.8315 64.93 33.8429C63.9911 33.8711 63.0502 33.8523 62.1093 33.8523H60.4161C58.6682 33.8523 58.689 33.8523 58.689 35.597C58.689 36.0609 58.8436 36.1251 59.249 36.1194C60.7536 36.0968 62.2583 36.11 63.7629 36.11ZM64.981 29.3275C63.4763 29.3501 61.9717 29.3369 60.467 29.3369C58.6136 29.3369 58.6249 29.3369 58.6927 31.1721C58.7059 31.5078 58.7889 31.6097 59.1283 31.6021C60.1144 31.5814 61.1024 31.5946 62.0905 31.5946H63.7818C65.5202 31.5946 65.507 31.5946 65.4863 29.8311C65.4825 29.4331 65.3788 29.3218 64.981 29.3275ZM64.9828 38.3583C63.4782 38.3828 61.9736 38.3677 60.4689 38.3677C58.6154 38.3677 58.6249 38.3677 58.6927 40.201C58.7059 40.5349 58.7851 40.6424 59.1264 40.6348C60.1125 40.6122 61.1006 40.6273 62.0886 40.6273H63.7799C65.5202 40.6273 65.507 40.6273 65.4863 38.8637C65.4825 38.4695 65.3826 38.3526 64.9828 38.3583ZM40.6521 12.5767C40.7143 14.3195 42.1247 15.7322 43.865 15.7945C44.7097 15.8228 45.5582 15.8209 46.4029 15.7964C48.213 15.7398 49.6347 14.3044 49.6668 12.4824C49.6931 10.9792 49.6818 9.47404 49.6705 7.96891C49.6554 6.19406 48.4789 4.79266 46.7272 4.56632C45.6826 4.43052 44.6079 4.42675 43.5633 4.5701C41.8117 4.81152 40.6615 6.20726 40.6445 7.99343C40.637 8.72147 40.6426 9.44952 40.6426 10.1795H40.6464C40.6464 10.9792 40.6219 11.7789 40.6521 12.5767ZM42.9072 7.95004C42.9166 7.25218 43.354 6.80893 44.0517 6.78253C44.7776 6.75235 45.5073 6.75612 46.2332 6.78064C46.9667 6.80705 47.3928 7.25029 47.4117 7.98965C47.4286 8.71581 47.4154 9.44386 47.4154 10.17C47.4154 10.8962 47.4305 11.6261 47.4117 12.3523C47.3928 13.103 46.978 13.5217 46.2276 13.5405C45.5016 13.5613 44.7738 13.5632 44.0479 13.5387C43.3371 13.516 42.9147 13.0973 42.9072 12.3825C42.8883 10.9056 42.8883 9.42689 42.9072 7.95004ZM39.5057 51.9177C38.8721 51.9233 38.3536 52.4741 38.3876 53.104C38.4215 53.7095 38.9532 54.1961 39.5566 54.1716C40.1618 54.1489 40.654 53.6246 40.6408 53.0192C40.6257 52.4137 40.1109 51.9139 39.5057 51.9177ZM31.6167 12.4485C31.6506 14.3044 33.0647 15.7417 34.9125 15.7982C35.4989 15.8171 36.0872 15.8058 36.6736 15.8058C38.4743 15.8058 38.4592 15.8058 38.397 13.9894C38.3838 13.5896 38.2386 13.533 37.8992 13.5424C37.1243 13.5613 36.3474 13.5141 35.5744 13.5556C34 13.6405 33.8095 12.9257 33.8604 11.6676C33.8736 11.3432 33.9905 11.2791 34.279 11.2847C35.0785 11.2998 35.876 11.2904 36.6755 11.2904C38.4309 11.2904 38.4102 11.2904 38.3989 9.54383C38.397 9.07041 38.2235 9.01571 37.8276 9.02325C36.6774 9.04777 35.5253 9.03646 34.3752 9.02703C34.2074 9.02514 33.9943 9.13076 33.8774 8.89877C33.4268 8.00286 34.1263 6.80893 35.1313 6.77687C35.6479 6.76178 36.1664 6.77498 36.683 6.77498C38.4818 6.77498 38.4724 6.77498 38.3951 4.94921C38.38 4.62291 38.3084 4.50031 37.9614 4.50785C36.9282 4.53237 35.893 4.48333 34.8616 4.5286C33.0138 4.61159 31.6393 6.07334 31.6148 7.93684C31.6053 8.66677 31.6129 9.39482 31.6129 10.1229C31.6129 10.8981 31.6016 11.6733 31.6167 12.4485ZM35.0653 51.9195C34.4336 51.8799 33.8812 52.3967 33.8736 53.0324C33.8642 53.6378 34.362 54.1546 34.9672 54.1716C35.5706 54.1904 36.0985 53.6982 36.1249 53.0927C36.1513 52.491 35.6686 51.9554 35.0653 51.9195ZM30.5306 51.9177C29.9291 51.8913 29.3955 52.3741 29.3578 52.9795C29.3201 53.6095 29.8386 54.164 30.4703 54.1716C31.0736 54.1791 31.5921 53.6812 31.6091 53.0757C31.6261 52.4703 31.1358 51.9441 30.5306 51.9177ZM23.6673 11.2847C24.4422 11.3036 25.2191 11.2659 25.9921 11.3017C26.6483 11.3338 27.1065 11.843 27.0952 12.4447C27.0839 13.0577 26.6276 13.5179 25.9544 13.5387C25.204 13.5613 24.4517 13.5462 23.6993 13.5424C23.2619 13.5405 22.8452 13.3576 22.749 12.9521C22.6095 12.3655 22.2437 12.3975 21.8138 12.4164C21.4612 12.4315 21.1068 12.4504 20.7579 12.4107C20.3243 12.3636 20.3035 12.5767 20.3507 12.9087C20.5618 14.444 21.9062 15.7039 23.4542 15.7907C23.8992 15.8152 24.3461 15.7945 24.7929 15.7945V15.8039C25.1682 15.8039 25.5453 15.8114 25.9205 15.8039C27.8701 15.7643 29.3465 14.3157 29.354 12.4409C29.3616 10.5454 27.8531 9.06286 25.8809 9.03457C25.1983 9.02325 24.5177 9.04211 23.837 9.02891C23.0658 9.01382 22.5793 8.56492 22.585 7.89912C22.5907 7.26726 23.0696 6.80139 23.7861 6.78064C24.4913 6.75801 25.1964 6.77121 25.8997 6.77687C26.356 6.78064 26.818 6.94662 26.9255 7.37666C27.0744 7.97268 27.4478 7.91609 27.8701 7.90478C28.2208 7.89535 28.5772 7.87271 28.926 7.91044C29.3559 7.95759 29.3766 7.75011 29.3276 7.41627C29.0901 5.82626 27.7268 4.59273 26.0751 4.52483C25.2549 4.49276 24.429 4.49088 23.6088 4.52483C21.7327 4.60216 20.296 6.12615 20.3261 7.97456C20.3563 9.79279 21.8063 11.2376 23.6673 11.2847ZM13.5515 36.1383C13.5647 33.6448 11.5377 31.6002 9.04884 31.5946C6.55807 31.5908 4.5217 33.6241 4.52359 36.1156C4.52547 38.5733 6.53733 40.6046 8.99039 40.6254C11.483 40.6461 13.5402 38.6242 13.5515 36.1383ZM9.00359 38.3677C7.76292 38.3507 6.74662 37.2888 6.78056 36.0421C6.8145 34.8236 7.84588 33.8372 9.06958 33.8523C10.2839 33.8693 11.2926 34.8915 11.2945 36.1062C11.2945 37.3492 10.248 38.3847 9.00359 38.3677ZM25.8809 9.03457C25.1983 9.02325 24.5177 9.04211 23.837 9.02891C23.0658 9.01382 22.5793 8.56492 22.585 7.89912C22.5907 7.26726 23.0696 6.80139 23.7861 6.78064C24.4913 6.75801 25.1964 6.77121 25.8997 6.77687C26.356 6.78064 26.818 6.94662 26.9255 7.37666C27.0744 7.97268 27.4478 7.91609 27.8701 7.90478C28.2208 7.89535 28.5772 7.87271 28.926 7.91044C29.3559 7.95759 29.3766 7.75011 29.3276 7.41627C29.0901 5.82626 27.7268 4.59273 26.0751 4.52483C25.2549 4.49276 24.429 4.49088 23.6088 4.52483C21.7327 4.60216 20.296 6.12615 20.3261 7.97456C20.3563 9.79279 21.8063 11.2376 23.6673 11.2847C24.4422 11.3036 25.2191 11.2659 25.9921 11.3017C26.6483 11.3338 27.1065 11.843 27.0952 12.4447C27.0839 13.0577 26.6276 13.5179 25.9544 13.5387C25.204 13.5613 24.4517 13.5462 23.6993 13.5424C23.2619 13.5405 22.8452 13.3576 22.749 12.9521C22.6095 12.3655 22.2437 12.3975 21.8138 12.4164C21.4612 12.4315 21.1068 12.4504 20.7579 12.4107C20.3243 12.3636 20.3035 12.5767 20.3507 12.9087C20.5618 14.444 21.9062 15.7039 23.4542 15.7907C23.8992 15.8152 24.3461 15.7945 24.7929 15.7945V15.8039C25.1682 15.8039 25.5453 15.8114 25.9205 15.8039C27.8701 15.7643 29.3465 14.3157 29.354 12.4409C29.3616 10.5454 27.8531 9.06286 25.8809 9.03457ZM37.8992 13.5424C37.1243 13.5613 36.3474 13.5141 35.5744 13.5556C34 13.6405 33.8095 12.9257 33.8604 11.6676C33.8736 11.3432 33.9905 11.2791 34.279 11.2847C35.0785 11.2998 35.876 11.2904 36.6755 11.2904C38.4309 11.2904 38.4102 11.2904 38.3989 9.54383C38.397 9.07041 38.2235 9.01571 37.8276 9.02325C36.6774 9.04777 35.5253 9.03646 34.3752 9.02703C34.2074 9.02514 33.9943 9.13076 33.8774 8.89877C33.4268 8.00286 34.1263 6.80893 35.1313 6.77687C35.6479 6.76178 36.1664 6.77498 36.683 6.77498C38.4818 6.77498 38.4724 6.77498 38.3951 4.94921C38.38 4.62291 38.3084 4.50031 37.9614 4.50785C36.9282 4.53237 35.893 4.48333 34.8616 4.5286C33.0138 4.61159 31.6393 6.07334 31.6148 7.93684C31.6053 8.66677 31.6129 9.39482 31.6129 10.1229C31.6129 10.8981 31.6016 11.6733 31.6167 12.4485C31.6506 14.3044 33.0647 15.7417 34.9125 15.7982C35.4989 15.8171 36.0872 15.8058 36.6736 15.8058C38.4743 15.8058 38.4592 15.8058 38.397 13.9894C38.3838 13.5896 38.2386 13.533 37.8992 13.5424ZM49.6705 7.96891C49.6554 6.19406 48.4789 4.79266 46.7272 4.56632C45.6826 4.43052 44.6079 4.42675 43.5633 4.5701C41.8117 4.81152 40.6615 6.20726 40.6445 7.99343C40.637 8.72147 40.6426 9.44952 40.6426 10.1795H40.6464C40.6464 10.9792 40.6219 11.7789 40.6521 12.5767C40.7143 14.3195 42.1247 15.7322 43.865 15.7945C44.7097 15.8228 45.5582 15.8209 46.4029 15.7964C48.213 15.7398 49.6347 14.3044 49.6668 12.4824C49.6931 10.9792 49.6818 9.47404 49.6705 7.96891ZM47.4117 12.3523C47.3928 13.103 46.978 13.5217 46.2276 13.5405C45.5016 13.5613 44.7738 13.5632 44.0479 13.5387C43.3371 13.516 42.9147 13.0973 42.9072 12.3825C42.8883 10.9056 42.8883 9.42689 42.9072 7.95004C42.9166 7.25218 43.354 6.80893 44.0517 6.78253C44.7776 6.75235 45.5073 6.75612 46.2332 6.78064C46.9667 6.80705 47.3928 7.25029 47.4117 7.98965C47.4286 8.71581 47.4154 9.44386 47.4154 10.17C47.4154 10.8962 47.4305 11.6261 47.4117 12.3523ZM9.04884 31.5946C6.55807 31.5908 4.5217 33.6241 4.52359 36.1156C4.52547 38.5733 6.53733 40.6046 8.99039 40.6254C11.483 40.6461 13.5402 38.6242 13.5515 36.1383C13.5647 33.6448 11.5377 31.6002 9.04884 31.5946ZM9.00359 38.3677C7.76292 38.3507 6.74662 37.2888 6.78056 36.0421C6.8145 34.8236 7.84588 33.8372 9.06958 33.8523C10.2839 33.8693 11.2926 34.8915 11.2945 36.1062C11.2945 37.3492 10.248 38.3847 9.00359 38.3677ZM30.5306 51.9177C29.9291 51.8913 29.3955 52.3741 29.3578 52.9795C29.3201 53.6095 29.8386 54.164 30.4703 54.1716C31.0736 54.1791 31.5921 53.6812 31.6091 53.0757C31.6261 52.4703 31.1358 51.9441 30.5306 51.9177ZM35.0653 51.9195C34.4336 51.8799 33.8812 52.3967 33.8736 53.0324C33.8642 53.6378 34.362 54.1546 34.9672 54.1716C35.5706 54.1904 36.0985 53.6982 36.1249 53.0927C36.1513 52.491 35.6686 51.9554 35.0653 51.9195ZM39.5057 51.9177C38.8721 51.9233 38.3536 52.4741 38.3876 53.104C38.4215 53.7095 38.9532 54.1961 39.5566 54.1716C40.1618 54.1489 40.654 53.6246 40.6408 53.0192C40.6257 52.4137 40.1109 51.9139 39.5057 51.9177ZM65.4863 38.8637C65.4825 38.4695 65.3826 38.3526 64.9828 38.3583C63.4782 38.3828 61.9736 38.3677 60.4689 38.3677C58.6154 38.3677 58.6249 38.3677 58.6927 40.201C58.7059 40.5349 58.7851 40.6424 59.1264 40.6348C60.1125 40.6122 61.1006 40.6273 62.0886 40.6273H63.7799C65.5202 40.6273 65.507 40.6273 65.4863 38.8637ZM65.4863 29.8311C65.4825 29.4331 65.3788 29.3218 64.981 29.3275C63.4763 29.3501 61.9717 29.3369 60.467 29.3369C58.6136 29.3369 58.6249 29.3369 58.6927 31.1721C58.7059 31.5078 58.7889 31.6097 59.1283 31.6021C60.1144 31.5814 61.1024 31.5946 62.0905 31.5946H63.7818C65.5202 31.5946 65.507 31.5946 65.4863 29.8311ZM64.93 33.8429C63.9911 33.8711 63.0502 33.8523 62.1093 33.8523H60.4161C58.6682 33.8523 58.689 33.8523 58.689 35.597C58.689 36.0609 58.8436 36.1251 59.249 36.1194C60.7536 36.0968 62.2583 36.11 63.7629 36.11C65.5108 36.11 65.49 36.11 65.49 34.3672C65.49 33.9013 65.3354 33.8315 64.93 33.8429ZM64.93 33.8429C63.9911 33.8711 63.0502 33.8523 62.1093 33.8523H60.4161C58.6682 33.8523 58.689 33.8523 58.689 35.597C58.689 36.0609 58.8436 36.1251 59.249 36.1194C60.7536 36.0968 62.2583 36.11 63.7629 36.11C65.5108 36.11 65.49 36.11 65.49 34.3672C65.49 33.9013 65.3354 33.8315 64.93 33.8429ZM65.4863 29.8311C65.4825 29.4331 65.3788 29.3218 64.981 29.3275C63.4763 29.3501 61.9717 29.3369 60.467 29.3369C58.6136 29.3369 58.6249 29.3369 58.6927 31.1721C58.7059 31.5078 58.7889 31.6097 59.1283 31.6021C60.1144 31.5814 61.1024 31.5946 62.0905 31.5946H63.7818C65.5202 31.5946 65.507 31.5946 65.4863 29.8311ZM65.4863 38.8637C65.4825 38.4695 65.3826 38.3526 64.9828 38.3583C63.4782 38.3828 61.9736 38.3677 60.4689 38.3677C58.6154 38.3677 58.6249 38.3677 58.6927 40.201C58.7059 40.5349 58.7851 40.6424 59.1264 40.6348C60.1125 40.6122 61.1006 40.6273 62.0886 40.6273H63.7799C65.5202 40.6273 65.507 40.6273 65.4863 38.8637ZM49.6705 7.96891C49.6554 6.19406 48.4789 4.79266 46.7272 4.56632C45.6826 4.43052 44.6079 4.42675 43.5633 4.5701C41.8117 4.81152 40.6615 6.20726 40.6445 7.99343C40.637 8.72147 40.6426 9.44952 40.6426 10.1795H40.6464C40.6464 10.9792 40.6219 11.7789 40.6521 12.5767C40.7143 14.3195 42.1247 15.7322 43.865 15.7945C44.7097 15.8228 45.5582 15.8209 46.4029 15.7964C48.213 15.7398 49.6347 14.3044 49.6668 12.4824C49.6931 10.9792 49.6818 9.47404 49.6705 7.96891ZM47.4117 12.3523C47.3928 13.103 46.978 13.5217 46.2276 13.5405C45.5016 13.5613 44.7738 13.5632 44.0479 13.5387C43.3371 13.516 42.9147 13.0973 42.9072 12.3825C42.8883 10.9056 42.8883 9.42689 42.9072 7.95004C42.9166 7.25218 43.354 6.80893 44.0517 6.78253C44.7776 6.75235 45.5073 6.75612 46.2332 6.78064C46.9667 6.80705 47.3928 7.25029 47.4117 7.98965C47.4286 8.71581 47.4154 9.44386 47.4154 10.17C47.4154 10.8962 47.4305 11.6261 47.4117 12.3523ZM39.5057 51.9177C38.8721 51.9233 38.3536 52.4741 38.3876 53.104C38.4215 53.7095 38.9532 54.1961 39.5566 54.1716C40.1618 54.1489 40.654 53.6246 40.6408 53.0192C40.6257 52.4137 40.1109 51.9139 39.5057 51.9177ZM37.8992 13.5424C37.1243 13.5613 36.3474 13.5141 35.5744 13.5556C34 13.6405 33.8095 12.9257 33.8604 11.6676C33.8736 11.3432 33.9905 11.2791 34.279 11.2847C35.0785 11.2998 35.876 11.2904 36.6755 11.2904C38.4309 11.2904 38.4102 11.2904 38.3989 9.54383C38.397 9.07041 38.2235 9.01571 37.8276 9.02325C36.6774 9.04777 35.5253 9.03646 34.3752 9.02703C34.2074 9.02514 33.9943 9.13076 33.8774 8.89877C33.4268 8.00286 34.1263 6.80893 35.1313 6.77687C35.6479 6.76178 36.1664 6.77498 36.683 6.77498C38.4818 6.77498 38.4724 6.77498 38.3951 4.94921C38.38 4.62291 38.3084 4.50031 37.9614 4.50785C36.9282 4.53237 35.893 4.48333 34.8616 4.5286C33.0138 4.61159 31.6393 6.07334 31.6148 7.93684C31.6053 8.66677 31.6129 9.39482 31.6129 10.1229C31.6129 10.8981 31.6016 11.6733 31.6167 12.4485C31.6506 14.3044 33.0647 15.7417 34.9125 15.7982C35.4989 15.8171 36.0872 15.8058 36.6736 15.8058C38.4743 15.8058 38.4592 15.8058 38.397 13.9894C38.3838 13.5896 38.2386 13.533 37.8992 13.5424ZM35.0653 51.9195C34.4336 51.8799 33.8812 52.3967 33.8736 53.0324C33.8642 53.6378 34.362 54.1546 34.9672 54.1716C35.5706 54.1904 36.0985 53.6982 36.1249 53.0927C36.1513 52.491 35.6686 51.9554 35.0653 51.9195ZM30.5306 51.9177C29.9291 51.8913 29.3955 52.3741 29.3578 52.9795C29.3201 53.6095 29.8386 54.164 30.4703 54.1716C31.0736 54.1791 31.5921 53.6812 31.6091 53.0757C31.6261 52.4703 31.1358 51.9441 30.5306 51.9177ZM25.8809 9.03457C25.1983 9.02325 24.5177 9.04211 23.837 9.02891C23.0658 9.01382 22.5793 8.56492 22.585 7.89912C22.5907 7.26726 23.0696 6.80139 23.7861 6.78064C24.4913 6.75801 25.1964 6.77121 25.8997 6.77687C26.356 6.78064 26.818 6.94662 26.9255 7.37666C27.0744 7.97268 27.4478 7.91609 27.8701 7.90478C28.2208 7.89535 28.5772 7.87271 28.926 7.91044C29.3559 7.95759 29.3766 7.75011 29.3276 7.41627C29.0901 5.82626 27.7268 4.59273 26.0751 4.52483C25.2549 4.49276 24.429 4.49088 23.6088 4.52483C21.7327 4.60216 20.296 6.12615 20.3261 7.97456C20.3563 9.79279 21.8063 11.2376 23.6673 11.2847C24.4422 11.3036 25.2191 11.2659 25.9921 11.3017C26.6483 11.3338 27.1065 11.843 27.0952 12.4447C27.0839 13.0577 26.6276 13.5179 25.9544 13.5387C25.204 13.5613 24.4517 13.5462 23.6993 13.5424C23.2619 13.5405 22.8452 13.3576 22.749 12.9521C22.6095 12.3655 22.2437 12.3975 21.8138 12.4164C21.4612 12.4315 21.1068 12.4504 20.7579 12.4107C20.3243 12.3636 20.3035 12.5767 20.3507 12.9087C20.5618 14.444 21.9062 15.7039 23.4542 15.7907C23.8992 15.8152 24.3461 15.7945 24.7929 15.7945V15.8039C25.1682 15.8039 25.5453 15.8114 25.9205 15.8039C27.8701 15.7643 29.3465 14.3157 29.354 12.4409C29.3616 10.5454 27.8531 9.06286 25.8809 9.03457ZM9.04884 31.5946C6.55807 31.5908 4.5217 33.6241 4.52359 36.1156C4.52547 38.5733 6.53733 40.6046 8.99039 40.6254C11.483 40.6461 13.5402 38.6242 13.5515 36.1383C13.5647 33.6448 11.5377 31.6002 9.04884 31.5946ZM9.00359 38.3677C7.76292 38.3507 6.74662 37.2888 6.78056 36.0421C6.8145 34.8236 7.84588 33.8372 9.06958 33.8523C10.2839 33.8693 11.2926 34.8915 11.2945 36.1062C11.2945 37.3492 10.248 38.3847 9.00359 38.3677ZM9.04884 31.5946C6.55807 31.5908 4.5217 33.6241 4.52359 36.1156C4.52547 38.5733 6.53733 40.6046 8.99039 40.6254C11.483 40.6461 13.5402 38.6242 13.5515 36.1383C13.5647 33.6448 11.5377 31.6002 9.04884 31.5946ZM9.00359 38.3677C7.76292 38.3507 6.74662 37.2888 6.78056 36.0421C6.8145 34.8236 7.84588 33.8372 9.06958 33.8523C10.2839 33.8693 11.2926 34.8915 11.2945 36.1062C11.2945 37.3492 10.248 38.3847 9.00359 38.3677ZM30.5306 51.9177C29.9291 51.8913 29.3955 52.3741 29.3578 52.9795C29.3201 53.6095 29.8386 54.164 30.4703 54.1716C31.0736 54.1791 31.5921 53.6812 31.6091 53.0757C31.6261 52.4703 31.1358 51.9441 30.5306 51.9177ZM35.0653 51.9195C34.4336 51.8799 33.8812 52.3967 33.8736 53.0324C33.8642 53.6378 34.362 54.1546 34.9672 54.1716C35.5706 54.1904 36.0985 53.6982 36.1249 53.0927C36.1513 52.491 35.6686 51.9554 35.0653 51.9195ZM39.5057 51.9177C38.8721 51.9233 38.3536 52.4741 38.3876 53.104C38.4215 53.7095 38.9532 54.1961 39.5566 54.1716C40.1618 54.1489 40.654 53.6246 40.6408 53.0192C40.6257 52.4137 40.1109 51.9139 39.5057 51.9177ZM65.4863 38.8637C65.4825 38.4695 65.3826 38.3526 64.9828 38.3583C63.4782 38.3828 61.9736 38.3677 60.4689 38.3677C58.6154 38.3677 58.6249 38.3677 58.6927 40.201C58.7059 40.5349 58.7851 40.6424 59.1264 40.6348C60.1125 40.6122 61.1006 40.6273 62.0886 40.6273H63.7799C65.5202 40.6273 65.507 40.6273 65.4863 38.8637ZM65.4863 29.8311C65.4825 29.4331 65.3788 29.3218 64.981 29.3275C63.4763 29.3501 61.9717 29.3369 60.467 29.3369C58.6136 29.3369 58.6249 29.3369 58.6927 31.1721C58.7059 31.5078 58.7889 31.6097 59.1283 31.6021C60.1144 31.5814 61.1024 31.5946 62.0905 31.5946H63.7818C65.5202 31.5946 65.507 31.5946 65.4863 29.8311ZM64.93 33.8429C63.9911 33.8711 63.0502 33.8523 62.1093 33.8523H60.4161C58.6682 33.8523 58.689 33.8523 58.689 35.597C58.689 36.0609 58.8436 36.1251 59.249 36.1194C60.7536 36.0968 62.2583 36.11 63.7629 36.11C65.5108 36.11 65.49 36.11 65.49 34.3672C65.49 33.9013 65.3354 33.8315 64.93 33.8429ZM64.93 33.8429C63.9911 33.8711 63.0502 33.8523 62.1093 33.8523H60.4161C58.6682 33.8523 58.689 33.8523 58.689 35.597C58.689 36.0609 58.8436 36.1251 59.249 36.1194C60.7536 36.0968 62.2583 36.11 63.7629 36.11C65.5108 36.11 65.49 36.11 65.49 34.3672C65.49 33.9013 65.3354 33.8315 64.93 33.8429ZM65.4863 29.8311C65.4825 29.4331 65.3788 29.3218 64.981 29.3275C63.4763 29.3501 61.9717 29.3369 60.467 29.3369C58.6136 29.3369 58.6249 29.3369 58.6927 31.1721C58.7059 31.5078 58.7889 31.6097 59.1283 31.6021C60.1144 31.5814 61.1024 31.5946 62.0905 31.5946H63.7818C65.5202 31.5946 65.507 31.5946 65.4863 29.8311ZM65.4863 38.8637C65.4825 38.4695 65.3826 38.3526 64.9828 38.3583C63.4782 38.3828 61.9736 38.3677 60.4689 38.3677C58.6154 38.3677 58.6249 38.3677 58.6927 40.201C58.7059 40.5349 58.7851 40.6424 59.1264 40.6348C60.1125 40.6122 61.1006 40.6273 62.0886 40.6273H63.7799C65.5202 40.6273 65.507 40.6273 65.4863 38.8637ZM39.5057 51.9177C38.8721 51.9233 38.3536 52.4741 38.3876 53.104C38.4215 53.7095 38.9532 54.1961 39.5566 54.1716C40.1618 54.1489 40.654 53.6246 40.6408 53.0192C40.6257 52.4137 40.1109 51.9139 39.5057 51.9177ZM35.0653 51.9195C34.4336 51.8799 33.8812 52.3967 33.8736 53.0324C33.8642 53.6378 34.362 54.1546 34.9672 54.1716C35.5706 54.1904 36.0985 53.6982 36.1249 53.0927C36.1513 52.491 35.6686 51.9554 35.0653 51.9195ZM30.5306 51.9177C29.9291 51.8913 29.3955 52.3741 29.3578 52.9795C29.3201 53.6095 29.8386 54.164 30.4703 54.1716C31.0736 54.1791 31.5921 53.6812 31.6091 53.0757C31.6261 52.4703 31.1358 51.9441 30.5306 51.9177ZM9.04884 31.5946C6.55807 31.5908 4.5217 33.6241 4.52359 36.1156C4.52547 38.5733 6.53733 40.6046 8.99039 40.6254C11.483 40.6461 13.5402 38.6242 13.5515 36.1383C13.5647 33.6448 11.5377 31.6002 9.04884 31.5946ZM9.00359 38.3677C7.76292 38.3507 6.74662 37.2888 6.78056 36.0421C6.8145 34.8236 7.84588 33.8372 9.06958 33.8523C10.2839 33.8693 11.2926 34.8915 11.2945 36.1062C11.2945 37.3492 10.248 38.3847 9.00359 38.3677ZM9.04884 31.5946C6.55807 31.5908 4.5217 33.6241 4.52359 36.1156C4.52547 38.5733 6.53733 40.6046 8.99039 40.6254C11.483 40.6461 13.5402 38.6242 13.5515 36.1383C13.5647 33.6448 11.5377 31.6002 9.04884 31.5946ZM9.00359 38.3677C7.76292 38.3507 6.74662 37.2888 6.78056 36.0421C6.8145 34.8236 7.84588 33.8372 9.06958 33.8523C10.2839 33.8693 11.2926 34.8915 11.2945 36.1062C11.2945 37.3492 10.248 38.3847 9.00359 38.3677ZM30.5306 51.9177C29.9291 51.8913 29.3955 52.3741 29.3578 52.9795C29.3201 53.6095 29.8386 54.164 30.4703 54.1716C31.0736 54.1791 31.5921 53.6812 31.6091 53.0757C31.6261 52.4703 31.1358 51.9441 30.5306 51.9177ZM35.0653 51.9195C34.4336 51.8799 33.8812 52.3967 33.8736 53.0324C33.8642 53.6378 34.362 54.1546 34.9672 54.1716C35.5706 54.1904 36.0985 53.6982 36.1249 53.0927C36.1513 52.491 35.6686 51.9554 35.0653 51.9195ZM39.5057 51.9177C38.8721 51.9233 38.3536 52.4741 38.3876 53.104C38.4215 53.7095 38.9532 54.1961 39.5566 54.1716C40.1618 54.1489 40.654 53.6246 40.6408 53.0192C40.6257 52.4137 40.1109 51.9139 39.5057 51.9177ZM39.5057 51.9177C38.8721 51.9233 38.3536 52.4741 38.3876 53.104C38.4215 53.7095 38.9532 54.1961 39.5566 54.1716C40.1618 54.1489 40.654 53.6246 40.6408 53.0192C40.6257 52.4137 40.1109 51.9139 39.5057 51.9177ZM35.0653 51.9195C34.4336 51.8799 33.8812 52.3967 33.8736 53.0324C33.8642 53.6378 34.362 54.1546 34.9672 54.1716C35.5706 54.1904 36.0985 53.6982 36.1249 53.0927C36.1513 52.491 35.6686 51.9554 35.0653 51.9195ZM30.5306 51.9177C29.9291 51.8913 29.3955 52.3741 29.3578 52.9795C29.3201 53.6095 29.8386 54.164 30.4703 54.1716C31.0736 54.1791 31.5921 53.6812 31.6091 53.0757C31.6261 52.4703 31.1358 51.9441 30.5306 51.9177ZM9.04884 31.5946C6.55807 31.5908 4.5217 33.6241 4.52359 36.1156C4.52547 38.5733 6.53733 40.6046 8.99039 40.6254C11.483 40.6461 13.5402 38.6242 13.5515 36.1383C13.5647 33.6448 11.5377 31.6002 9.04884 31.5946ZM9.00359 38.3677C7.76292 38.3507 6.74662 37.2888 6.78056 36.0421C6.8145 34.8236 7.84588 33.8372 9.06958 33.8523C10.2839 33.8693 11.2926 34.8915 11.2945 36.1062C11.2945 37.3492 10.248 38.3847 9.00359 38.3677ZM9.04884 31.5946C6.55807 31.5908 4.5217 33.6241 4.52359 36.1156C4.52547 38.5733 6.53733 40.6046 8.99039 40.6254C11.483 40.6461 13.5402 38.6242 13.5515 36.1383C13.5647 33.6448 11.5377 31.6002 9.04884 31.5946ZM9.00359 38.3677C7.76292 38.3507 6.74662 37.2888 6.78056 36.0421C6.8145 34.8236 7.84588 33.8372 9.06958 33.8523C10.2839 33.8693 11.2926 34.8915 11.2945 36.1062C11.2945 37.3492 10.248 38.3847 9.00359 38.3677ZM30.5306 51.9177C29.9291 51.8913 29.3955 52.3741 29.3578 52.9795C29.3201 53.6095 29.8386 54.164 30.4703 54.1716C31.0736 54.1791 31.5921 53.6812 31.6091 53.0757C31.6261 52.4703 31.1358 51.9441 30.5306 51.9177ZM35.0653 51.9195C34.4336 51.8799 33.8812 52.3967 33.8736 53.0324C33.8642 53.6378 34.362 54.1546 34.9672 54.1716C35.5706 54.1904 36.0985 53.6982 36.1249 53.0927C36.1513 52.491 35.6686 51.9554 35.0653 51.9195ZM39.5057 51.9177C38.8721 51.9233 38.3536 52.4741 38.3876 53.104C38.4215 53.7095 38.9532 54.1961 39.5566 54.1716C40.1618 54.1489 40.654 53.6246 40.6408 53.0192C40.6257 52.4137 40.1109 51.9139 39.5057 51.9177ZM39.5057 51.9177C38.8721 51.9233 38.3536 52.4741 38.3876 53.104C38.4215 53.7095 38.9532 54.1961 39.5566 54.1716C40.1618 54.1489 40.654 53.6246 40.6408 53.0192C40.6257 52.4137 40.1109 51.9139 39.5057 51.9177ZM35.0653 51.9195C34.4336 51.8799 33.8812 52.3967 33.8736 53.0324C33.8642 53.6378 34.362 54.1546 34.9672 54.1716C35.5706 54.1904 36.0985 53.6982 36.1249 53.0927C36.1513 52.491 35.6686 51.9554 35.0653 51.9195ZM30.5306 51.9177C29.9291 51.8913 29.3955 52.3741 29.3578 52.9795C29.3201 53.6095 29.8386 54.164 30.4703 54.1716C31.0736 54.1791 31.5921 53.6812 31.6091 53.0757C31.6261 52.4703 31.1358 51.9441 30.5306 51.9177ZM9.04884 31.5946C6.55807 31.5908 4.5217 33.6241 4.52359 36.1156C4.52547 38.5733 6.53733 40.6046 8.99039 40.6254C11.483 40.6461 13.5402 38.6242 13.5515 36.1383C13.5647 33.6448 11.5377 31.6002 9.04884 31.5946ZM9.00359 38.3677C7.76292 38.3507 6.74662 37.2888 6.78056 36.0421C6.8145 34.8236 7.84588 33.8372 9.06958 33.8523C10.2839 33.8693 11.2926 34.8915 11.2945 36.1062C11.2945 37.3492 10.248 38.3847 9.00359 38.3677ZM30.5306 51.9177C29.9291 51.8913 29.3955 52.3741 29.3578 52.9795C29.3201 53.6095 29.8386 54.164 30.4703 54.1716C31.0736 54.1791 31.5921 53.6812 31.6091 53.0757C31.6261 52.4703 31.1358 51.9441 30.5306 51.9177ZM35.0653 51.9195C34.4336 51.8799 33.8812 52.3967 33.8736 53.0324C33.8642 53.6378 34.362 54.1546 34.9672 54.1716C35.5706 54.1904 36.0985 53.6982 36.1249 53.0927C36.1513 52.491 35.6686 51.9554 35.0653 51.9195ZM39.5057 51.9177C38.8721 51.9233 38.3536 52.4741 38.3876 53.104C38.4215 53.7095 38.9532 54.1961 39.5566 54.1716C40.1618 54.1489 40.654 53.6246 40.6408 53.0192C40.6257 52.4137 40.1109 51.9139 39.5057 51.9177ZM39.5057 51.9177C38.8721 51.9233 38.3536 52.4741 38.3876 53.104C38.4215 53.7095 38.9532 54.1961 39.5566 54.1716C40.1618 54.1489 40.654 53.6246 40.6408 53.0192C40.6257 52.4137 40.1109 51.9139 39.5057 51.9177ZM35.0653 51.9195C34.4336 51.8799 33.8812 52.3967 33.8736 53.0324C33.8642 53.6378 34.362 54.1546 34.9672 54.1716C35.5706 54.1904 36.0985 53.6982 36.1249 53.0927C36.1513 52.491 35.6686 51.9554 35.0653 51.9195ZM30.5306 51.9177C29.9291 51.8913 29.3955 52.3741 29.3578 52.9795C29.3201 53.6095 29.8386 54.164 30.4703 54.1716C31.0736 54.1791 31.5921 53.6812 31.6091 53.0757C31.6261 52.4703 31.1358 51.9441 30.5306 51.9177Z" fill="white"/>
<path d="M31.6089 53.0757C31.5919 53.6812 31.0734 54.1791 30.47 54.1716C29.8384 54.164 29.3199 53.6095 29.3576 52.9796C29.3953 52.3741 29.9289 51.8913 30.5304 51.9177C31.1356 51.9441 31.6259 52.4703 31.6089 53.0757Z" fill="white"/>
<path d="M36.1247 53.0927C36.0983 53.6982 35.5704 54.1905 34.967 54.1716C34.3618 54.1546 33.864 53.6378 33.8734 53.0324C33.8809 52.3968 34.4334 51.8799 35.0651 51.9196C35.6684 51.9554 36.1511 52.4911 36.1247 53.0927Z" fill="white"/>
<path d="M40.6405 53.0192C40.6537 53.6246 40.1616 54.149 39.5564 54.1716C38.953 54.1961 38.4213 53.7095 38.3873 53.1041C38.3534 52.4741 38.8719 51.9233 39.5055 51.9177C40.1107 51.9139 40.6255 52.4137 40.6405 53.0192Z" fill="white"/>
<path d="M29.3538 12.441C29.3463 14.3158 27.8699 15.7643 25.9203 15.804C25.5451 15.8115 25.1679 15.804 24.7927 15.804V15.7945C24.3459 15.7945 23.899 15.8153 23.454 15.7907C21.906 15.704 20.5616 14.444 20.3504 12.9087C20.3033 12.5768 20.324 12.3636 20.7577 12.4108C21.1065 12.4504 21.461 12.4315 21.8136 12.4165C22.2435 12.3976 22.6093 12.3655 22.7488 12.9521C22.845 13.3576 23.2617 13.5406 23.6991 13.5425C24.4514 13.5463 25.2038 13.5613 25.9542 13.5387C26.6273 13.518 27.0836 13.0577 27.0949 12.4447C27.1063 11.8431 26.6481 11.3338 25.9919 11.3018C25.2189 11.2659 24.442 11.3036 23.6671 11.2848C21.8061 11.2376 20.3561 9.79285 20.3259 7.97462C20.2958 6.12621 21.7325 4.60221 23.6086 4.52488C24.4288 4.49093 25.2547 4.49282 26.0749 4.52488C27.7266 4.59278 29.0898 5.82631 29.3274 7.41632C29.3764 7.75017 29.3557 7.95764 28.9258 7.91049C28.577 7.87277 28.2206 7.8954 27.8699 7.90483C27.4475 7.91615 27.0742 7.97273 26.9253 7.37671C26.8178 6.94668 26.3558 6.7807 25.8995 6.77692C25.1962 6.77127 24.491 6.75806 23.7859 6.7807C23.0694 6.80144 22.5904 7.26732 22.5848 7.89917C22.5791 8.56498 23.0656 9.01388 23.8368 9.02896C24.5174 9.04217 25.1981 9.02331 25.8807 9.03462C27.8529 9.06292 29.3613 10.5454 29.3538 12.441Z" fill="white"/>
<path d="M33.8772 8.89881C33.9941 9.1308 34.2071 9.02518 34.3749 9.02707C35.5251 9.0365 36.6772 9.04781 37.8273 9.02329C38.2233 9.01575 38.3968 9.07045 38.3987 9.54387C38.41 11.2904 38.4307 11.2904 36.6753 11.2904C35.8758 11.2904 35.0783 11.2999 34.2788 11.2848C33.9903 11.2791 33.8734 11.3432 33.8602 11.6677C33.8093 12.9257 33.9997 13.6405 35.5741 13.5557C36.3472 13.5142 37.124 13.5613 37.899 13.5425C38.2384 13.533 38.3836 13.5896 38.3968 13.9895C38.459 15.8058 38.4741 15.8058 36.6734 15.8058C36.087 15.8058 35.4987 15.8171 34.9123 15.7983C33.0645 15.7417 31.6504 14.3045 31.6164 12.4485C31.6013 11.6733 31.6127 10.8981 31.6127 10.1229C31.6127 9.39486 31.6051 8.66682 31.6145 7.93688C31.6391 6.07338 33.0136 4.61163 34.8614 4.52864C35.8928 4.48338 36.9279 4.53241 37.9612 4.50789C38.3081 4.50035 38.3798 4.62295 38.3949 4.94925C38.4722 6.77502 38.4816 6.77502 36.6828 6.77502C36.1662 6.77502 35.6477 6.76182 35.131 6.77691C34.1261 6.80898 33.4265 8.0029 33.8772 8.89881Z" fill="white"/>
<path d="M49.6703 7.96888C49.6552 6.19403 48.4787 4.79263 46.727 4.5663C45.6824 4.43049 44.6077 4.42672 43.5631 4.57007C41.8114 4.81149 40.6613 6.20723 40.6443 7.9934C40.6368 8.72144 40.6424 9.44949 40.6424 10.1794H40.6462C40.6462 10.9791 40.6217 11.7789 40.6519 12.5767C40.7141 14.3195 42.1244 15.7322 43.8648 15.7944C44.7095 15.8227 45.558 15.8208 46.4027 15.7963C48.2128 15.7397 49.6345 14.3044 49.6665 12.4824C49.6929 10.9791 49.6816 9.47401 49.6703 7.96888ZM47.4114 12.3522C47.3926 13.1029 46.9778 13.5216 46.2273 13.5405C45.5014 13.5613 44.7736 13.5631 44.0477 13.5386C43.3368 13.516 42.9145 13.0973 42.9069 12.3824C42.8881 10.9056 42.8881 9.42686 42.9069 7.95002C42.9164 7.25215 43.3538 6.80891 44.0514 6.7825C44.7774 6.75232 45.5071 6.75609 46.233 6.78061C46.9665 6.80702 47.3926 7.25026 47.4114 7.98962C47.4284 8.71578 47.4152 9.44383 47.4152 10.17C47.4152 10.8962 47.4303 11.6261 47.4114 12.3522Z" fill="white"/>
<path d="M65.4861 38.8637C65.5068 40.6272 65.52 40.6272 63.7797 40.6272H62.0884C61.1003 40.6272 60.1123 40.6122 59.1262 40.6348C58.7849 40.6423 58.7057 40.5348 58.6925 40.201C58.6246 38.3677 58.6152 38.3677 60.4687 38.3677C61.9733 38.3677 63.478 38.3827 64.9826 38.3582C65.3824 38.3526 65.4823 38.4695 65.4861 38.8637Z" fill="white"/>
<path d="M58.6925 31.1721C58.6246 29.3369 58.6133 29.3369 60.4668 29.3369C61.9714 29.3369 63.4761 29.3501 64.9807 29.3275C65.3786 29.3218 65.4823 29.4331 65.4861 29.8311C65.5068 31.5946 65.52 31.5946 63.7815 31.5946H62.0902C61.1022 31.5946 60.1142 31.5814 59.1281 31.6021C58.7887 31.6097 58.7057 31.5078 58.6925 31.1721Z" fill="white"/>
<path d="M64.9298 33.8428C65.3352 33.8315 65.4898 33.9013 65.4898 34.3672C65.4898 36.11 65.5106 36.11 63.7627 36.11C62.258 36.11 60.7534 36.0968 59.2488 36.1194C58.8434 36.1251 58.6888 36.0609 58.6888 35.5969C58.6888 33.8523 58.668 33.8523 60.4159 33.8523H62.1091C63.05 33.8523 63.9908 33.8711 64.9298 33.8428Z" fill="white"/>
<path d="M9.04862 31.5946C6.55785 31.5908 4.52148 33.6241 4.52337 36.1157C4.52525 38.5733 6.5371 40.6047 8.99017 40.6254C11.4828 40.6462 13.5399 38.6242 13.5512 36.1383C13.5644 33.6448 11.5375 31.6003 9.04862 31.5946ZM9.00337 38.3677C7.76269 38.3507 6.7464 37.2888 6.78034 36.0421C6.81428 34.8237 7.84566 33.8372 9.06936 33.8523C10.2836 33.8693 11.2924 34.8916 11.2943 36.1062C11.2943 37.3492 10.2478 38.3847 9.00337 38.3677Z" fill="white"/>
<path d="M31.6089 53.0757C31.5919 53.6812 31.0734 54.1791 30.47 54.1716C29.8384 54.164 29.3199 53.6095 29.3576 52.9796C29.3953 52.3741 29.9289 51.8913 30.5304 51.9177C31.1356 51.9441 31.6259 52.4703 31.6089 53.0757Z" fill="white"/>
<path d="M36.1247 53.0927C36.0983 53.6982 35.5704 54.1905 34.967 54.1716C34.3618 54.1546 33.864 53.6378 33.8734 53.0324C33.8809 52.3968 34.4334 51.8799 35.0651 51.9196C35.6684 51.9554 36.1511 52.4911 36.1247 53.0927Z" fill="white"/>
<path d="M40.6405 53.0192C40.6537 53.6246 40.1616 54.149 39.5564 54.1716C38.953 54.1961 38.4213 53.7095 38.3873 53.1041C38.3534 52.4741 38.8719 51.9233 39.5055 51.9177C40.1107 51.9139 40.6255 52.4137 40.6405 53.0192Z" fill="white"/>
<path d="M29.3538 12.441C29.3463 14.3158 27.8699 15.7643 25.9203 15.804C25.5451 15.8115 25.1679 15.804 24.7927 15.804V15.7945C24.3459 15.7945 23.899 15.8153 23.454 15.7907C21.906 15.704 20.5616 14.444 20.3504 12.9087C20.3033 12.5768 20.324 12.3636 20.7577 12.4108C21.1065 12.4504 21.461 12.4315 21.8136 12.4165C22.2435 12.3976 22.6093 12.3655 22.7488 12.9521C22.845 13.3576 23.2617 13.5406 23.6991 13.5425C24.4514 13.5463 25.2038 13.5613 25.9542 13.5387C26.6273 13.518 27.0836 13.0577 27.0949 12.4447C27.1063 11.8431 26.6481 11.3338 25.9919 11.3018C25.2189 11.2659 24.442 11.3036 23.6671 11.2848C21.8061 11.2376 20.3561 9.79285 20.3259 7.97462C20.2958 6.12621 21.7325 4.60221 23.6086 4.52488C24.4288 4.49093 25.2547 4.49282 26.0749 4.52488C27.7266 4.59278 29.0898 5.82631 29.3274 7.41632C29.3764 7.75017 29.3557 7.95764 28.9258 7.91049C28.577 7.87277 28.2206 7.8954 27.8699 7.90483C27.4475 7.91615 27.0742 7.97273 26.9253 7.37671C26.8178 6.94668 26.3558 6.7807 25.8995 6.77692C25.1962 6.77127 24.491 6.75806 23.7859 6.7807C23.0694 6.80144 22.5904 7.26732 22.5848 7.89917C22.5791 8.56498 23.0656 9.01388 23.8368 9.02896C24.5174 9.04217 25.1981 9.02331 25.8807 9.03462C27.8529 9.06292 29.3613 10.5454 29.3538 12.441Z" fill="white"/>
<path d="M49.6703 7.96888C49.6552 6.19403 48.4787 4.79263 46.727 4.5663C45.6824 4.43049 44.6077 4.42672 43.5631 4.57007C41.8114 4.81149 40.6613 6.20723 40.6443 7.9934C40.6368 8.72144 40.6424 9.44949 40.6424 10.1794H40.6462C40.6462 10.9791 40.6217 11.7789 40.6519 12.5767C40.7141 14.3195 42.1244 15.7322 43.8648 15.7944C44.7095 15.8227 45.558 15.8208 46.4027 15.7963C48.2128 15.7397 49.6345 14.3044 49.6665 12.4824C49.6929 10.9791 49.6816 9.47401 49.6703 7.96888ZM47.4114 12.3522C47.3926 13.1029 46.9778 13.5216 46.2273 13.5405C45.5014 13.5613 44.7736 13.5631 44.0477 13.5386C43.3368 13.516 42.9145 13.0973 42.9069 12.3824C42.8881 10.9056 42.8881 9.42686 42.9069 7.95002C42.9164 7.25215 43.3538 6.80891 44.0514 6.7825C44.7774 6.75232 45.5071 6.75609 46.233 6.78061C46.9665 6.80702 47.3926 7.25026 47.4114 7.98962C47.4284 8.71578 47.4152 9.44383 47.4152 10.17C47.4152 10.8962 47.4303 11.6261 47.4114 12.3522Z" fill="white"/>
<path d="M38.3968 13.9895C38.459 15.8058 38.4741 15.8058 36.6734 15.8058C36.087 15.8058 35.4987 15.8171 34.9123 15.7983C33.0645 15.7417 31.6504 14.3045 31.6164 12.4485C31.6013 11.6733 31.6127 10.8981 31.6127 10.1229C31.6127 9.39486 31.6051 8.66682 31.6145 7.93688C31.6391 6.07338 33.0136 4.61163 34.8614 4.52864C35.8928 4.48338 36.9279 4.53241 37.9612 4.50789C38.3081 4.50035 38.3798 4.62295 38.3949 4.94925C38.4722 6.77502 38.4816 6.77502 36.6828 6.77502C36.1662 6.77502 35.6477 6.76182 35.131 6.77691C34.1261 6.80898 33.4265 8.0029 33.8772 8.89881C33.9941 9.1308 34.2071 9.02518 34.3749 9.02707C35.5251 9.0365 36.6772 9.04781 37.8273 9.02329C38.2233 9.01575 38.3968 9.07045 38.3987 9.54387C38.41 11.2904 38.4307 11.2904 36.6753 11.2904C35.8758 11.2904 35.0783 11.2999 34.2788 11.2848C33.9903 11.2791 33.8734 11.3432 33.8602 11.6677C33.8093 12.9257 33.9997 13.6405 35.5741 13.5557C36.3472 13.5142 37.124 13.5613 37.899 13.5425C38.2384 13.533 38.3836 13.5896 38.3968 13.9895Z" fill="white"/>
<path d="M63.7815 31.5946H62.0902C61.1022 31.5946 60.1142 31.5814 59.1281 31.6021C58.7887 31.6097 58.7057 31.5078 58.6925 31.1721C58.6246 29.3369 58.6133 29.3369 60.4668 29.3369C61.9714 29.3369 63.4761 29.3501 64.9807 29.3275C65.3786 29.3218 65.4823 29.4331 65.4861 29.8311C65.5068 31.5946 65.52 31.5946 63.7815 31.5946Z" fill="white"/>
<path d="M65.4898 34.3672C65.4898 36.11 65.5106 36.11 63.7627 36.11C62.258 36.11 60.7534 36.0968 59.2488 36.1194C58.8434 36.1251 58.6888 36.0609 58.6888 35.5969C58.6888 33.8523 58.668 33.8523 60.4159 33.8523H62.1091C63.05 33.8523 63.9908 33.8711 64.9298 33.8428C65.3352 33.8315 65.4898 33.9013 65.4898 34.3672Z" fill="white"/>
<path d="M63.7797 40.6272H62.0884C61.1003 40.6272 60.1123 40.6122 59.1262 40.6348C58.7849 40.6423 58.7057 40.5348 58.6925 40.201C58.6246 38.3677 58.6152 38.3677 60.4687 38.3677C61.9733 38.3677 63.478 38.3827 64.9826 38.3582C65.3824 38.3526 65.4823 38.4695 65.4861 38.8637C65.5068 40.6272 65.52 40.6272 63.7797 40.6272Z" fill="white"/>
<path d="M9.04862 31.5946C6.55785 31.5908 4.52148 33.6241 4.52337 36.1157C4.52525 38.5733 6.5371 40.6047 8.99017 40.6254C11.4828 40.6462 13.5399 38.6242 13.5512 36.1383C13.5644 33.6448 11.5375 31.6003 9.04862 31.5946ZM9.00337 38.3677C7.76269 38.3507 6.7464 37.2888 6.78034 36.0421C6.81428 34.8237 7.84566 33.8372 9.06936 33.8523C10.2836 33.8693 11.2924 34.8916 11.2943 36.1062C11.2943 37.3492 10.2478 38.3847 9.00337 38.3677Z" fill="white"/>
</g>
<defs>
<clipPath id="clip0_94_35">
<rect width="70" height="70" fill="white"/>
</clipPath>
</defs>
</svg>
