<?xml version="1.0" encoding="iso-8859-1"?>
<!-- Uploaded to: SVG Repo, www.svgrepo.com, Generator: SVG Repo Mixer Tools -->
<svg height="800px" width="800px" version="1.1" id="Layer_1" xmlns="http://www.w3.org/2000/svg" xmlns:xlink="http://www.w3.org/1999/xlink" 
	 viewBox="0 0 512 512" xml:space="preserve">
<g transform="translate(1 1)">
	<path style="fill:#63D3FD;" d="M493.08,394.947L493.08,394.947c-6.827,6.827-17.067,6.827-23.893,0l-35.84-35.84
		c-6.827-6.827-6.827-17.067,0-23.893c6.827-6.827,17.067-6.827,23.893,0l35.84,35.84C499.907,377.88,499.907,388.12,493.08,394.947
		"/>
	<polygon style="fill:#FFE100;" points="395.8,127 276.333,7.533 11.8,7.533 11.8,502.467 395.8,502.467 	"/>
	<g>
		<polygon style="fill:#63D3FD;" points="54.467,255 88.6,255 88.6,161.133 54.467,161.133 		"/>
		<polygon style="fill:#63D3FD;" points="122.733,255 156.867,255 156.867,101.4 122.733,101.4 		"/>
		<polygon style="fill:#63D3FD;" points="191,255 225.133,255 225.133,135.533 191,135.533 		"/>
	</g>
	<polygon style="fill:#FFFFFF;" points="11.8,502.467 37.4,502.467 37.4,7.533 11.8,7.533 	"/>
	<polygon style="fill:#FFA800;" points="276.333,7.533 267.8,7.533 370.2,127 370.2,502.467 395.8,502.467 395.8,127 	"/>
	<polygon style="fill:#FDCC00;" points="276.333,7.533 276.333,127 395.8,127 	"/>
	<path style="fill:#63D3FD;" d="M399.213,191.853c29.867,29.867,29.867,78.507,0,108.373s-78.507,29.867-108.373,0
		s-29.867-78.507,0-108.373S368.493,161.987,399.213,191.853"/>
	<path style="fill:#3DB9F9;" d="M399.213,191.853c-17.92-17.92-43.52-25.6-67.413-21.333c15.36,2.56,29.867,9.387,41.813,21.333
		c29.867,29.867,29.867,78.507,0,108.373C361.667,312.173,347.16,319,331.8,321.56c23.893,4.267,48.64-3.413,67.413-21.333
		C429.08,271.213,429.08,222.573,399.213,191.853"/>
	<path d="M395.8,135.533H276.333c-5.12,0-8.533-3.413-8.533-8.533V7.533c0-5.12,3.413-8.533,8.533-8.533
		c5.12,0,8.533,3.413,8.533,8.533v110.933H395.8c5.12,0,8.533,3.413,8.533,8.533S400.92,135.533,395.8,135.533z"/>
	<path d="M284.867,365.933H165.4c-5.12,0-8.533-3.413-8.533-8.533s3.413-8.533,8.533-8.533h119.467c5.12,0,8.533,3.413,8.533,8.533
		S289.987,365.933,284.867,365.933z"/>
	<path d="M242.2,331.8h-76.8c-5.12,0-8.533-3.413-8.533-8.533c0-5.12,3.413-8.533,8.533-8.533h76.8c5.12,0,8.533,3.413,8.533,8.533
		C250.733,328.387,247.32,331.8,242.2,331.8z"/>
	<path d="M259.267,425.667H165.4c-5.12,0-8.533-3.413-8.533-8.533s3.413-8.533,8.533-8.533h93.867c5.12,0,8.533,3.413,8.533,8.533
		S264.387,425.667,259.267,425.667z"/>
	<path d="M80.067,365.933c-2.56,0-4.267-0.853-5.973-2.56l-17.067-17.067c-3.413-3.413-3.413-8.533,0-11.947
		c3.413-3.413,8.533-3.413,11.947,0l10.24,10.24l28.16-34.987c2.56-3.413,8.533-4.267,11.947-1.707
		c3.413,2.56,4.267,8.533,1.707,11.947L86.893,362.52C85.187,364.227,82.627,365.933,80.067,365.933L80.067,365.933z"/>
	<path d="M301.933,459.8H165.4c-5.12,0-8.533-3.413-8.533-8.533s3.413-8.533,8.533-8.533h136.533c5.12,0,8.533,3.413,8.533,8.533
		S307.053,459.8,301.933,459.8z"/>
	<path d="M80.067,459.8c-2.56,0-4.267-0.853-5.973-2.56l-17.067-17.067c-3.413-3.413-3.413-8.533,0-11.947
		c3.413-3.413,8.533-3.413,11.947,0l10.24,10.24l28.16-34.987c2.56-3.413,8.533-4.267,11.947-1.707
		c3.413,2.56,4.267,8.533,1.707,11.947l-34.133,42.667C85.187,458.093,82.627,459.8,80.067,459.8L80.067,459.8z"/>
	<path d="M88.6,263.533H54.467c-5.12,0-8.533-3.413-8.533-8.533v-93.867c0-5.12,3.413-8.533,8.533-8.533H88.6
		c5.12,0,8.533,3.413,8.533,8.533V255C97.133,260.12,93.72,263.533,88.6,263.533z M63,246.467h17.067v-76.8H63V246.467z"/>
	<path d="M156.867,263.533h-34.133c-5.12,0-8.533-3.413-8.533-8.533V101.4c0-5.12,3.413-8.533,8.533-8.533h34.133
		c5.12,0,8.533,3.413,8.533,8.533V255C165.4,260.12,161.987,263.533,156.867,263.533z M131.267,246.467h17.067V109.933h-17.067
		V246.467z"/>
	<path d="M225.133,263.533H191c-5.12,0-8.533-3.413-8.533-8.533V135.533c0-5.12,3.413-8.533,8.533-8.533h34.133
		c5.12,0,8.533,3.413,8.533,8.533V255C233.667,260.12,230.253,263.533,225.133,263.533z M199.533,246.467H216.6v-102.4h-17.067
		V246.467z"/>
	<path d="M344.6,331.8c-23.04,0-44.373-8.533-60.587-24.747c-33.28-33.28-33.28-87.04,0-120.32
		c16.213-17.067,37.547-25.6,60.587-25.6s44.373,8.533,60.587,24.747c33.28,33.28,33.28,87.04,0,120.32
		C388.973,323.267,367.64,331.8,344.6,331.8z M344.6,178.2c-17.92,0-34.987,6.827-48.64,19.627
		c-26.453,26.453-26.453,69.973,0,96.427c12.8,12.8,29.867,19.627,48.64,19.627s34.987-6.827,48.64-19.627
		c26.453-26.453,26.453-69.973,0-96.427C379.587,185.027,362.52,178.2,344.6,178.2z"/>
	<path d="M481.133,408.6c-6.827,0-13.653-2.56-17.92-7.68l-35.84-35.84c-10.24-10.24-10.24-26.453,0-35.84
		c9.387-9.387,26.453-9.387,35.84,0l35.84,35.84c10.24,10.24,10.24,26.453,0,35.84C494.787,406.04,487.96,408.6,481.133,408.6z
		 M445.293,338.627c-2.56,0-4.267,0.853-5.973,2.56c-3.413,3.413-3.413,8.533,0,11.947l35.84,35.84
		c3.413,3.413,8.533,3.413,11.947,0c3.413-3.413,3.413-8.533,0-11.947l-35.84-35.84C449.56,339.48,447.853,338.627,445.293,338.627z
		"/>
	<path d="M433.347,343.747c-2.56,0-4.267-0.853-5.973-2.56l-29.013-29.013c-3.413-3.413-3.413-8.533,0-11.947
		c3.413-3.413,8.533-3.413,11.947,0l29.013,29.013c3.413,3.413,3.413,8.533,0,11.947
		C437.613,342.893,435.053,343.747,433.347,343.747z"/>
	<path d="M395.8,511h-384c-5.12,0-8.533-3.413-8.533-8.533V7.533C3.267,2.413,6.68-1,11.8-1h264.533c2.56,0,4.267,0.853,5.973,2.56
		l119.467,119.467c1.707,1.707,2.56,3.413,2.56,5.973v62.293c0,3.413-1.707,6.827-5.12,7.68c-3.413,1.707-6.827,0.853-9.387-1.707
		c-12.8-11.093-29.013-17.067-45.227-17.067c-17.92,0-34.987,6.827-47.787,19.627c-26.453,26.453-26.453,69.973,0,96.427
		c12.8,12.8,29.867,19.627,47.787,19.627c17.067,0,33.28-5.973,45.227-17.067c2.56-2.56,5.973-2.56,9.387-1.707
		c3.413,0.853,5.12,4.267,5.12,7.68v199.68C404.333,507.587,400.92,511,395.8,511z M20.333,493.933h366.933v-174.08
		c-12.8,7.68-27.307,11.093-42.667,11.093c-23.04,0-44.373-8.533-60.587-24.747c-33.28-33.28-33.28-87.04,0-120.32
		c16.213-16.213,37.547-24.747,60.587-24.747c15.36,0,29.867,4.267,42.667,11.093v-41.813L272.92,16.067H20.333V493.933z"/>
</g>
</svg>