<?xml version="1.0" encoding="UTF-8"?>
<svg xmlns="http://www.w3.org/2000/svg" width="54" height="54" viewBox="0 0 54 54" fill="none">
  <g clip-path="url(#clip0_8867_31986)">
    <path d="M38.5598 29.6578L38.4754 25.6078C38.4754 25.3125 38.2645 25.0172 37.9691 24.9328L34.1301 23.5828L31.6832 20.3766C31.5145 20.1235 31.177 20.0391 30.8816 20.1235L27.0004 21.2203L23.1191 20.0391C22.8238 19.9547 22.5285 20.0391 22.3176 20.2922L19.8707 23.4985L16.0316 24.8906C15.7363 24.975 15.5254 25.2703 15.5254 25.5656L15.441 29.6156L13.1207 32.9485C12.952 33.2016 12.952 33.5391 13.1207 33.7922L15.441 37.125L15.5254 41.175C15.5254 41.4703 15.7363 41.7656 16.0316 41.85L19.4488 43.0313V53.1985C19.4488 53.6203 19.7863 53.9156 20.166 53.9156H23.8785C24.0895 53.9156 24.3004 53.8313 24.3848 53.7047L27.0004 51.0891L29.616 53.7047C29.7426 53.8313 29.9535 53.9156 30.1223 53.9156H33.8348C34.2566 53.9156 34.552 53.5781 34.552 53.1985V43.0313L37.9691 41.85C38.2645 41.7656 38.4754 41.4703 38.4754 41.175L38.5598 37.125L40.8801 33.7922C41.0488 33.5391 41.0488 33.2016 40.8801 32.9485L38.5598 29.6578ZM20.9254 44.6344L22.3176 46.4485C22.4863 46.7016 22.8238 46.786 23.1191 46.7016H23.1613V52.5235H20.9254V44.6344ZM27.0004 49.4016C26.7895 49.4016 26.6207 49.486 26.4941 49.6125L24.6379 51.4688V46.2375L27.0004 45.5625L29.3629 46.2797V51.4688L27.5066 49.6125C27.3801 49.486 27.2113 49.4016 27.0004 49.4016ZM33.0754 52.5235H30.8395V46.7016H30.8816C31.177 46.786 31.5145 46.6594 31.6832 46.4485L33.0754 44.6344V52.5235ZM37.2098 36.4922C37.1254 36.6188 37.0832 36.7453 37.0832 36.8719L36.9988 40.6266L33.4551 41.8922C33.3285 41.9344 33.202 42.0188 33.1176 42.1453L30.8395 45.1406L27.2113 44.0438C27.0848 44.0016 26.916 44.0016 26.7895 44.0438L23.1613 45.1406L20.8832 42.1453C20.7988 42.0188 20.6723 41.9344 20.5457 41.8922L17.002 40.6266L16.9176 36.8719C16.9176 36.7453 16.8754 36.5766 16.791 36.4922L14.6395 33.3703L16.791 30.2485C16.8754 30.1219 16.9176 29.9953 16.9176 29.8688L17.002 26.1141L20.5457 24.8485C20.6723 24.8063 20.7988 24.7219 20.8832 24.5953L23.1613 21.6L26.7895 22.6969C26.916 22.7391 27.0848 22.7391 27.2113 22.6969L30.8395 21.6L33.1176 24.5953C33.202 24.7219 33.3285 24.8063 33.4551 24.8485L36.9988 26.1141L37.0832 29.8688C37.0832 29.9953 37.1254 30.1641 37.2098 30.2485L39.3613 33.3703L37.2098 36.4922Z" fill="#F5692D"></path>
    <path d="M27 23.8782C21.7266 23.8782 17.5078 28.1391 17.5078 33.3704C17.5078 38.6016 21.7688 42.8625 27 42.8625C32.2312 42.8625 36.4922 38.6016 36.4922 33.3704C36.4922 28.1391 32.2312 23.8782 27 23.8782ZM27 41.4282C22.5703 41.4282 18.9844 37.8422 18.9844 33.4125C18.9844 28.9829 22.5703 25.3969 27 25.3969C31.4297 25.3969 35.0156 28.9829 35.0156 33.4125C35.0156 37.8422 31.4297 41.4282 27 41.4282Z" fill="#F5692D"></path>
    <path d="M27.0012 26.3672C23.1199 26.3672 19.998 29.4891 19.998 33.3703C19.998 37.2516 23.1199 40.4156 27.0012 40.4156C30.8824 40.4156 34.0043 37.2937 34.0043 33.4125C34.0043 29.5312 30.8824 26.3672 27.0012 26.3672ZM27.0012 38.9391C23.9215 38.9391 21.4746 36.45 21.4746 33.4125C21.4746 30.3328 23.9215 27.8437 27.0012 27.8437C30.0809 27.8437 32.5277 30.3328 32.5277 33.3703C32.5277 36.45 30.0809 38.9391 27.0012 38.9391Z" fill="#F5692D"></path>
    <path d="M30.0803 31.9781L28.435 31.725L27.6757 30.2063C27.4225 29.6578 26.621 29.6578 26.3678 30.2063L25.6085 31.725L23.9632 31.9781C23.3725 32.0625 23.1194 32.8219 23.5413 33.2438L24.7647 34.425L24.4694 36.0703C24.385 36.6609 25.0178 37.125 25.5241 36.8297L27.0007 36.0281L28.4772 36.8297C29.0257 37.125 29.6585 36.6609 29.5319 36.0703L29.2366 34.425L30.46 33.2438C30.9241 32.8219 30.671 32.1047 30.0803 31.9781ZM27.971 33.6234C27.8022 33.7922 27.7178 34.0453 27.76 34.2563L27.8444 34.8047L27.3382 34.5938C27.1272 34.4672 26.8741 34.4672 26.6632 34.5938L26.1569 34.8469L26.2413 34.2984C26.2835 34.0453 26.1991 33.8344 26.0303 33.6656L25.6085 33.2859L26.1569 33.2016C26.41 33.1594 26.621 33.0328 26.7053 32.7797L26.9585 32.2734L27.2116 32.7797C27.3382 32.9906 27.5069 33.1594 27.76 33.2016L28.3085 33.2859L27.971 33.6234ZM21.8116 11.7281L20.8413 17.4234C20.7569 17.8453 21.0522 18.225 21.4319 18.2672C21.6007 18.3094 21.7694 18.2672 21.896 18.1828L27.0007 15.4828L32.1053 18.1828C32.485 18.3938 32.9069 18.225 33.1178 17.8875C33.2022 17.7609 33.2022 17.5922 33.2022 17.4234L32.2319 11.7281L36.3663 7.67813C36.6616 7.38282 36.6616 6.91876 36.3663 6.62345C36.2397 6.49688 36.1132 6.41251 35.9444 6.41251L30.2069 5.56876L27.6757 0.421884C27.5069 0.0421967 27.0428 -0.0843658 26.7053 0.0843842C26.5788 0.168759 26.4522 0.295322 26.3678 0.421884L23.7944 5.61095L18.0569 6.4547C17.635 6.49688 17.3819 6.87657 17.4241 7.29845C17.4663 7.4672 17.5085 7.59376 17.635 7.72032L21.8116 11.7281ZM24.385 7.00313C24.6382 6.96095 24.8491 6.83438 24.9335 6.58126L27.0007 2.4047L29.0678 6.58126C29.1944 6.7922 29.3632 6.96095 29.6163 7.00313L34.2569 7.67813L30.9241 10.9266C30.7553 11.0953 30.671 11.3484 30.7132 11.5594L31.5147 16.1578L27.3803 13.9641C27.1694 13.8375 26.9163 13.8375 26.7053 13.9641L22.571 16.1578L23.3725 11.5594C23.4147 11.3063 23.3303 11.0953 23.1616 10.9266L19.8288 7.67813L24.385 7.00313ZM53.9585 12.7828C53.8741 12.5297 53.621 12.3188 53.3678 12.2766L48.8538 11.6016L46.8288 7.50938C46.66 7.1297 46.196 7.00313 45.8585 7.17188C45.7319 7.25626 45.6053 7.34063 45.521 7.50938L43.496 11.6016L38.9819 12.2766C38.56 12.3188 38.3069 12.6984 38.3491 13.1203C38.3913 13.2891 38.4335 13.4156 38.56 13.5422L41.8507 16.7484L41.0913 21.2625C41.0069 21.6844 41.3022 22.0641 41.6819 22.1063C41.8507 22.1484 42.0194 22.1063 42.146 22.0219L46.196 19.9125L50.246 22.0219C50.6257 22.2328 51.0475 22.0641 51.2585 21.7266C51.3428 21.6 51.3428 21.4313 51.3428 21.2625L50.5835 16.7484L53.8741 13.5422C53.9585 13.3313 54.0428 13.0359 53.9585 12.7828ZM49.1913 15.9469C49.0225 16.1156 48.9382 16.3688 48.9803 16.5797L49.571 19.9969L46.4913 18.3938C46.2803 18.2672 46.0272 18.2672 45.8163 18.3938L42.7366 19.9969L43.3272 16.5797C43.3694 16.3266 43.285 16.1156 43.1163 15.9469L40.6272 13.5422L44.0444 13.0359C44.2975 12.9938 44.5085 12.8672 44.5928 12.6141L46.1116 9.4922L47.6303 12.6141C47.7569 12.825 47.9257 12.9938 48.1788 13.0359L51.596 13.5422L49.1913 15.9469ZM12.1928 16.7484L15.4835 13.5422C15.7788 13.2469 15.7788 12.7828 15.4835 12.4875C15.3569 12.3609 15.2303 12.2766 15.0616 12.2766L10.5475 11.6438L8.52254 7.55157C8.35379 7.17188 7.88972 7.04532 7.55222 7.21407C7.42566 7.29845 7.2991 7.38282 7.21472 7.55157L5.18972 11.6438L0.633474 12.2766C0.211599 12.3188 -0.0415264 12.6984 0.000661055 13.1203C0.0428486 13.2891 0.0850361 13.4156 0.211599 13.5422L3.50222 16.7484L2.74285 21.2625C2.65847 21.6844 2.95379 22.0641 3.33347 22.1063C3.50222 22.1484 3.67097 22.1063 3.79754 22.0219L7.84754 19.9125L11.8975 22.0219C12.2772 22.2328 12.6991 22.0641 12.91 21.7266C12.9944 21.6 12.9944 21.4313 12.9944 21.2625L12.1928 16.7484ZM10.6741 16.6219L11.2647 20.0391L8.18504 18.4359C7.9741 18.3094 7.72097 18.3094 7.51004 18.4359L4.43035 20.0391L5.02097 16.6219C5.06316 16.3688 4.97879 16.1578 4.81004 15.9891L2.32097 13.5844L5.73816 13.0781C5.99129 13.0359 6.20222 12.9094 6.2866 12.6563L7.80535 9.53438L9.3241 12.6563C9.45066 12.8672 9.61941 13.0359 9.87254 13.0781L13.2897 13.5844L10.8007 15.9891C10.7163 16.1156 10.6319 16.3688 10.6741 16.6219Z" fill="#F5692D"></path>
  </g>
  <defs>
    <clipPath id="clip0_8867_31986">
      <rect width="54" height="54" fill="white"></rect>
    </clipPath>
  </defs>
</svg>
