<?xml version="1.0" encoding="UTF-8"?>
<svg xmlns="http://www.w3.org/2000/svg" width="63" height="55" viewBox="0 0 63 55" fill="none">
  <path fill-rule="evenodd" clip-rule="evenodd" d="M9.74494 46.1553C9.49505 46.1553 9.25541 46.056 9.07873 45.8793C8.90205 45.7026 8.8028 45.4629 8.8028 45.213V36.6366H5.65817C3.18134 36.6366 1.1665 34.6216 1.1665 32.1449V5.47088C1.1665 2.99438 3.18134 0.979381 5.65784 0.979218H46.0994C48.576 0.979218 50.591 2.99422 50.591 5.47088V32.1449C50.591 34.6217 48.576 36.6366 46.0994 36.6366H20.1903L10.3923 45.8978C10.2174 46.0634 9.98572 46.1555 9.74494 46.1553ZM5.65817 2.86383C4.22066 2.86383 3.05112 4.03337 3.05112 5.47088V32.1449C3.05112 33.5826 4.22066 34.7519 5.65817 34.7519H9.7451C9.99502 34.7519 10.2347 34.8512 10.4114 35.0279C10.5881 35.2047 10.6874 35.4443 10.6874 35.6943V43.0258L19.1682 35.0094C19.3432 34.8441 19.5748 34.752 19.8155 34.7519H46.0995C47.537 34.7519 48.7066 33.5824 48.7066 32.1449V5.47088C48.7066 4.03337 47.537 2.86383 46.0995 2.86383H5.65817Z" fill="#14B082"></path>
  <path fill-rule="evenodd" clip-rule="evenodd" d="M54.0296 53.9117C53.7888 53.9118 53.5571 53.8196 53.3821 53.6542L45.0794 45.8066H23.0735C20.8873 45.8066 19.1089 44.0281 19.1089 41.842V35.6943C19.1089 35.4444 19.2082 35.2047 19.3849 35.028C19.5616 34.8512 19.8013 34.752 20.0512 34.752C20.3011 34.752 20.5408 34.8512 20.7175 35.028C20.8942 35.2047 20.9935 35.4444 20.9935 35.6943V41.842C20.9935 42.989 21.9266 43.922 23.0735 43.922H45.4542C45.695 43.9219 45.9266 44.0141 46.1016 44.1795L53.0871 50.7822V44.8643C53.0871 44.6144 53.1864 44.3747 53.3631 44.198C53.5398 44.0212 53.7795 43.922 54.0294 43.922H57.5094C58.6564 43.922 59.5893 42.989 59.5893 41.842V19.129C59.5893 17.982 58.6564 17.049 57.5094 17.049H49.6488C49.3989 17.049 49.1592 16.9497 48.9825 16.773C48.8058 16.5963 48.7065 16.3566 48.7065 16.1067C48.7065 15.8568 48.8058 15.6171 48.9825 15.4404C49.1592 15.2637 49.3989 15.1644 49.6488 15.1644H57.5092C59.6954 15.1644 61.4738 16.9428 61.4738 19.129V41.842C61.4738 44.0281 59.6954 45.8066 57.5092 45.8066H54.9715V52.9694C54.9715 53.2193 54.8723 53.4589 54.6957 53.6356C54.519 53.8123 54.2794 53.9116 54.0296 53.9117Z" fill="#14B082"></path>
  <path fill-rule="evenodd" clip-rule="evenodd" d="M34.4372 30.6187H28.1423C27.8923 30.6187 27.6527 30.5194 27.4759 30.3427C27.2992 30.166 27.2 29.9263 27.2 29.6764C27.2 29.4265 27.2992 29.1868 27.4759 29.0101C27.6527 28.8334 27.8923 28.7341 28.1423 28.7341H34.4372C35.8284 28.7341 36.9605 27.6022 36.9605 26.2108V24.5371C36.9605 24.2871 37.0598 24.0475 37.2365 23.8707C37.4132 23.694 37.6529 23.5947 37.9028 23.5947C38.1527 23.5947 38.3924 23.694 38.5691 23.8707C38.7459 24.0475 38.8451 24.2871 38.8451 24.5371V26.2108C38.845 28.6413 36.8678 30.6187 34.4372 30.6187Z" fill="#14B082"></path>
  <path fill-rule="evenodd" clip-rule="evenodd" d="M27.1054 32.7878H22.39C21.2983 32.7878 20.4103 31.8998 20.4103 30.8081V28.5446C20.4103 27.4531 21.2983 26.5651 22.39 26.5651H27.1054C28.1971 26.5651 29.0851 27.4531 29.0851 28.5446V30.8081C29.0851 31.8996 28.1969 32.7878 27.1054 32.7878ZM22.39 28.4497C22.3651 28.4506 22.3414 28.4609 22.3238 28.4785C22.3062 28.4961 22.2959 28.5197 22.2949 28.5446V30.8081C22.2949 30.8579 22.3402 30.9032 22.39 30.9032H27.1054C27.1304 30.9022 27.154 30.8919 27.1716 30.8743C27.1892 30.8567 27.1996 30.833 27.2005 30.8081V28.5446C27.1996 28.5197 27.1892 28.4961 27.1716 28.4785C27.154 28.4609 27.1303 28.4506 27.1054 28.4497H22.39ZM37.0074 17.9821C36.7574 17.9821 36.5178 17.8828 36.341 17.7061C36.1643 17.5294 36.0651 17.2897 36.0651 17.0398V15.2952C36.0651 10.5627 32.2148 6.71253 27.4824 6.71253H24.2759C19.5434 6.71253 15.6932 10.5627 15.6932 15.2952V17.0398C15.6932 17.2897 15.5939 17.5294 15.4172 17.7061C15.2405 17.8828 15.0008 17.9821 14.7509 17.9821C14.501 17.9821 14.2613 17.8828 14.0846 17.7061C13.9079 17.5294 13.8086 17.2897 13.8086 17.0398V15.2952C13.8086 12.5098 14.9003 9.88414 16.8825 7.90186C18.8648 5.91958 21.4905 4.82791 24.2757 4.82791H27.4822C30.2676 4.82791 32.8931 5.91958 34.8754 7.90186C36.8577 9.88414 37.9493 12.5098 37.9493 15.2952V17.0398C37.9494 17.1635 37.9251 17.286 37.8777 17.4004C37.8304 17.5147 37.761 17.6186 37.6736 17.7061C37.5861 17.7936 37.4822 17.863 37.3679 17.9104C37.2536 17.9577 37.1311 17.9821 37.0074 17.9821Z" fill="#14B082"></path>
  <path fill-rule="evenodd" clip-rule="evenodd" d="M13.8542 25.4793H12.0859C10.0974 25.4793 8.47949 23.8614 8.47949 21.8729V19.7039C8.47949 17.7153 10.0973 16.0975 12.0859 16.0975H14.7501C15 16.0975 15.2397 16.1968 15.4164 16.3735C15.5931 16.5502 15.6924 16.7899 15.6924 17.0398V23.6412C15.6926 24.6548 14.8679 25.4793 13.8542 25.4793ZM12.0859 17.9819C11.1366 17.9819 10.3641 18.7543 10.3641 19.7038V21.8727C10.3641 22.8222 11.1364 23.5946 12.0859 23.5946H13.8078V17.9818H12.0859V17.9819ZM39.6707 25.4793H37.9024C36.8888 25.4793 36.0641 24.6546 36.0641 23.6412V17.0398C36.0641 16.7899 36.1634 16.5502 36.3401 16.3735C36.5168 16.1968 36.7565 16.0975 37.0064 16.0975H39.6707C41.6592 16.0975 43.2771 17.7153 43.2771 19.7039V21.8729C43.2771 23.8614 41.6594 25.4793 39.6707 25.4793ZM37.9487 23.5947H39.6707C40.62 23.5947 41.3925 22.8224 41.3925 21.8729V19.7039C41.3925 18.7544 40.62 17.9821 39.6707 17.9821H37.9487V23.5947ZM33.1395 13.4351C32.9564 13.4352 32.7772 13.3819 32.6239 13.2818C32.4706 13.1817 32.3498 13.0391 32.2762 12.8714C31.4559 11.0025 29.33 9.74689 26.9859 9.74689C26.7359 9.74689 26.4963 9.64761 26.3195 9.47089C26.1428 9.29418 26.0435 9.0545 26.0435 8.80458C26.0435 8.55467 26.1428 8.31499 26.3195 8.13827C26.4963 7.96155 26.7359 7.86227 26.9859 7.86227C28.5156 7.86227 29.9903 8.26881 31.2503 9.0382C32.5028 9.80284 33.4544 10.8664 34.0018 12.1141C34.0647 12.2575 34.0909 12.4143 34.0781 12.5703C34.0652 12.7264 34.0136 12.8768 33.928 13.0079C33.8424 13.139 33.7255 13.2468 33.5878 13.3213C33.4502 13.3959 33.2961 13.4351 33.1395 13.4351ZM56.929 31.9544C56.6791 31.9544 56.4394 31.8551 56.2627 31.6784C56.086 31.5017 55.9867 31.262 55.9867 31.0121V21.7364C55.9867 21.4865 56.086 21.2468 56.2627 21.0701C56.4394 20.8934 56.6791 20.7941 56.929 20.7941C57.1789 20.7941 57.4186 20.8934 57.5953 21.0701C57.772 21.2468 57.8713 21.4865 57.8713 21.7364V31.0121C57.8713 31.1359 57.847 31.2584 57.7996 31.3727C57.7523 31.4871 57.6829 31.591 57.5954 31.6785C57.5078 31.766 57.404 31.8354 57.2896 31.8827C57.1753 31.9301 57.0527 31.9544 56.929 31.9544Z" fill="#14B082"></path>
</svg>
