<?xml version="1.0" encoding="UTF-8"?>
<svg xmlns="http://www.w3.org/2000/svg" width="63" height="55" viewBox="0 0 63 55" fill="none">
  <path d="M19.3781 17.7427L16.5573 20.5635L14.6768 18.683C14.2655 18.2716 13.619 18.2716 13.2077 18.683C12.7963 19.0943 12.7963 19.7408 13.2077 20.1521L15.7934 22.7378C16.2047 23.1492 16.8511 23.1492 17.2625 22.7378L20.7884 19.2119C21.1998 18.8005 21.1998 18.1541 20.7884 17.7427C20.4358 17.3902 19.7306 17.3902 19.3781 17.7427ZM37.184 19.2119H25.4309C24.8432 19.2119 24.3731 19.682 24.3731 20.2697C24.3731 20.8573 24.8432 21.3274 25.4309 21.3274H37.184C37.7716 21.3274 38.2418 20.8573 38.2418 20.2697C38.2418 19.682 37.7716 19.2119 37.184 19.2119ZM19.3781 26.0874L16.5573 28.9082L14.6768 27.0277C14.2655 26.6163 13.619 26.6163 13.2077 27.0277C12.7963 27.439 12.7963 28.0855 13.2077 28.4968L15.7934 31.0825C16.2047 31.4938 16.8511 31.4938 17.2625 31.0825L20.7884 27.5566C21.1998 27.1452 21.1998 26.4988 20.7884 26.0874C20.3771 25.6761 19.7306 25.7348 19.3781 26.0874ZM32.424 27.5566H25.4309C24.8432 27.5566 24.3731 28.0267 24.3731 28.6143C24.3731 29.202 24.8432 29.6721 25.4309 29.6721H32.424C33.0116 29.6721 33.4818 29.202 33.4818 28.6143C33.4818 28.0267 33.0116 27.5566 32.424 27.5566ZM19.3781 34.4321L16.5573 37.2529L14.6768 35.3724C14.2655 34.961 13.619 34.961 13.2077 35.3724C12.7963 35.7837 12.7963 36.4301 13.2077 36.8415L15.7934 39.4272C16.2047 39.8385 16.8511 39.8385 17.2625 39.4272L20.7884 35.9013C21.1998 35.4899 21.1998 34.8435 20.7884 34.4321C20.3771 34.0208 19.7306 34.0795 19.3781 34.4321ZM32.424 35.9013H25.4309C24.8432 35.9013 24.3731 36.3714 24.3731 36.959C24.3731 37.5467 24.8432 38.0168 25.4309 38.0168H32.424C33.0116 38.0168 33.4818 37.5467 33.4818 36.959C33.4818 36.3714 33.0116 35.9013 32.424 35.9013ZM19.3781 42.7768L16.5573 45.5975L14.6768 43.7171C14.2655 43.3057 13.619 43.3057 13.2077 43.7171C12.7963 44.1284 12.7963 44.7748 13.2077 45.1862L15.7934 47.7719C16.2047 48.1832 16.8511 48.1832 17.2625 47.7719L20.7884 44.2459C21.1998 43.8346 21.1998 43.1882 20.7884 42.7768C20.3771 42.3654 19.7306 42.4242 19.3781 42.7768ZM32.424 44.2459H25.4309C24.8432 44.2459 24.3731 44.7161 24.3731 45.3037C24.3731 45.8914 24.8432 46.3615 25.4309 46.3615H32.424C33.0116 46.3615 33.4818 45.8914 33.4818 45.3037C33.4818 44.7161 33.0116 44.2459 32.424 44.2459Z" fill="#4732BA"></path>
  <path d="M55.2836 31.7877C55.1073 31.1412 55.6949 30.1422 54.9897 29.0257C54.2846 27.8504 53.2268 27.9091 52.6979 27.3803C52.169 26.8514 52.2865 25.6173 50.7586 24.9709C49.5833 24.442 48.9957 25.0296 48.2905 24.7946C47.8791 24.677 47.7028 24.3245 46.7626 23.8543V11.6311C46.7626 9.10421 44.7058 7.10619 42.1789 7.04743H35.5972V5.0494C35.5972 4.46175 35.127 3.99162 34.5394 3.99162H31.0135C30.4258 1.28842 27.7814 -0.474547 25.0782 0.113107C23.1389 0.524465 21.611 2.05237 21.1996 3.99162H17.7325C17.1448 3.99162 16.6747 4.46175 16.6747 5.0494V7.04743H10.093C7.56607 7.04743 5.56804 9.10421 5.50928 11.6311V50.4163C5.50928 52.9432 7.56607 54.9412 10.093 55H42.2377C44.7646 55 46.7626 52.9432 46.8214 50.4163V48.477L50.5823 50.1812C51.2875 50.4751 52.0515 50.0049 52.0515 49.241V42.6593C52.4628 41.9541 52.5804 41.484 52.8154 41.3077C53.4031 40.8375 54.4609 40.7788 55.1073 39.6622C55.7537 38.4869 55.2248 37.5467 55.4011 36.9002C55.5774 36.2538 56.5764 35.6662 56.5764 34.3733C56.4001 32.963 55.4011 32.3753 55.2836 31.7877ZM18.7903 8.1052V6.10718H22.1987C22.7863 6.10718 23.2564 5.63705 23.2564 5.0494C23.2564 3.40397 24.608 2.05237 26.2535 2.05237C27.8989 2.05237 29.2505 3.40397 29.2505 5.0494C29.2505 5.63705 29.7206 6.04841 30.2495 6.10718H33.6579V10.2795H18.7903V8.1052ZM44.7058 50.4163C44.7058 51.7679 43.5893 52.8844 42.1789 52.9432H10.093C8.74137 52.9432 7.62483 51.8267 7.56607 50.4163V11.6311C7.56607 10.2795 8.68261 9.16298 10.093 9.10421H16.7335V11.2785C16.7335 11.8662 17.2036 12.3363 17.7912 12.3363H34.6569C35.2446 12.3363 35.7147 11.8662 35.7147 11.2785V9.10421H42.3552C43.7068 9.10421 44.8233 10.2208 44.8821 11.6311V23.9131C43.9419 24.3832 43.8243 24.677 43.3542 24.8533C42.7078 25.0296 41.7088 24.5008 40.5922 25.1472C39.4169 25.8524 39.4757 26.9101 38.9468 27.439C38.4767 27.9091 37.3601 27.9091 36.6549 29.0844C36.0085 30.2598 36.5374 31.2 36.3611 31.8464C36.1848 32.4341 35.1858 33.0805 35.1858 34.3733C35.1858 35.7249 36.1848 36.3126 36.3611 36.9002C36.5374 37.5467 35.9498 38.5457 36.6549 39.6622C37.3014 40.7788 38.4179 40.8375 38.9468 41.3077C39.0643 41.4252 39.3582 42.1304 39.652 42.6593V49.241C39.652 50.0049 40.4159 50.4751 41.1211 50.1812L44.8821 48.477V50.4163H44.7058ZM49.9359 47.6543L46.2337 45.9501C46.0574 45.8326 45.7048 45.8326 45.411 45.9501L41.65 47.6543V43.8933C42.5902 43.8933 42.8253 43.7758 43.2954 43.8346C43.7656 43.9521 44.412 44.8923 45.8223 44.8923C47.2915 44.8923 47.8204 43.9521 48.3493 43.8346C48.7606 43.717 49.0544 43.8933 49.9359 43.8933V47.6543ZM53.2856 36.3126C52.9917 37.3704 53.4618 38.0756 53.2268 38.6045C52.933 39.3096 52.1102 39.0158 51.2875 39.7798C50.5823 40.4262 50.5236 41.5427 50.0535 41.7778C49.6421 42.0128 48.9369 41.5427 47.8204 41.8365C46.8801 42.0716 46.1749 42.8943 45.7636 42.8943C45.4698 42.8943 45.3522 42.718 44.7058 42.2479C44.1769 41.8953 43.5893 41.719 42.9428 41.719C42.0026 41.719 41.7675 41.8953 41.4737 41.7778C41.2386 41.6603 40.8273 40.3674 40.2396 39.8385C39.2994 38.957 38.5354 39.0746 38.3004 38.6632C38.1828 38.4282 38.2416 38.1343 38.3004 37.8405C38.3591 37.3704 38.3591 36.8415 38.2416 36.3714C37.9478 35.1961 37.1838 34.9022 37.1838 34.3733C37.1838 33.8444 37.9478 33.5506 38.2416 32.3753C38.4767 31.4938 38.1241 30.4361 38.3004 30.0835C38.5354 29.6721 39.3582 29.7309 40.2396 28.9082C41.1799 28.0267 41.0036 27.204 41.4737 26.9689C41.8263 26.7338 42.649 27.204 43.7656 26.9101C44.8821 26.6163 45.2935 25.8524 45.7636 25.8524C46.2337 25.8524 46.6451 26.6163 47.7616 26.9101C48.8194 27.204 49.7009 26.7926 50.0535 26.9689C50.2885 27.0864 50.406 27.439 50.4648 27.6741C50.6411 28.203 50.9937 28.6731 51.4051 29.0257C51.6989 29.3195 52.1102 29.4958 52.5216 29.6721C52.7567 29.7896 53.1093 29.8484 53.2268 30.0835C53.4618 30.4948 52.9917 31.2 53.2856 32.3753C53.5794 33.4919 54.3433 33.9032 54.3433 34.3733C54.3433 34.7847 53.5794 35.1961 53.2856 36.3126Z" fill="#4732BA"></path>
  <path d="M45.7636 28.9082C42.7666 28.9082 40.3572 31.3176 40.3572 34.3146C40.3572 37.3116 42.7666 39.721 45.7636 39.721C48.7606 39.721 51.17 37.3116 51.17 34.3146C51.17 31.3176 48.7606 28.9082 45.7636 28.9082ZM45.7636 37.6642C43.8831 37.6642 42.414 36.1363 42.414 34.3146C42.414 32.4929 43.9419 30.965 45.7636 30.965C47.5853 30.965 49.1132 32.4929 49.1132 34.3146C49.1132 36.1951 47.6441 37.6642 45.7636 37.6642Z" fill="#4732BA"></path>
</svg>
