<?xml version="1.0" encoding="UTF-8"?>
<svg xmlns="http://www.w3.org/2000/svg" width="63" height="55" viewBox="0 0 63 55" fill="none">
  <path d="M22.7034 13.0908C22.5473 13.5712 22.701 14.0861 23.0947 14.4026L26.6005 17.2204L25.4205 21.5607C25.2881 22.048 25.4664 22.5549 25.8753 22.8522C26.2843 23.1489 26.8212 23.162 27.2439 22.8854L31.0071 20.422L34.7704 22.8855C34.9666 23.0148 35.1962 23.0839 35.4311 23.0843C35.6856 23.0839 35.9335 23.0027 36.1388 22.8522C36.5479 22.5552 36.7264 22.048 36.5936 21.5607L35.4136 17.2205L38.9192 14.4029C39.3132 14.0864 39.4669 13.5714 39.3106 13.0908C39.1545 12.61 38.7275 12.2837 38.2229 12.2593L33.7304 12.0403L32.1339 7.83547C31.9547 7.36312 31.5122 7.0578 31.007 7.0578C30.5017 7.0578 30.0593 7.36301 29.8802 7.83536L28.2836 12.0404L23.7914 12.2593C23.2866 12.2837 22.8595 12.61 22.7034 13.0908ZM28.6883 13.7205C28.9226 13.7091 29.1484 13.6296 29.3381 13.4918C29.5278 13.3539 29.6732 13.1637 29.7563 12.9444L31.0069 9.65091L32.2574 12.9447C32.3407 13.1639 32.4861 13.354 32.6758 13.4918C32.8655 13.6296 33.0913 13.7091 33.3254 13.7205L36.8442 13.8921L34.0981 16.0991C33.9153 16.246 33.7794 16.4431 33.7069 16.6661C33.6345 16.8891 33.6286 17.1285 33.6902 17.3548L34.6144 20.7543L31.6668 18.8247C31.4705 18.6963 31.2411 18.6279 31.0066 18.6279C30.7721 18.6279 30.5427 18.6963 30.3465 18.8248L27.399 20.7543L28.3233 17.355C28.3849 17.1286 28.3791 16.8893 28.3066 16.6662C28.2341 16.4431 28.0981 16.246 27.9152 16.0991L25.1693 13.8922L28.6883 13.7205ZM30.1579 4.29713V1.18159C30.1579 0.956427 30.2474 0.740486 30.4066 0.581271C30.5658 0.422057 30.7817 0.332611 31.0069 0.332611C31.232 0.332611 31.448 0.422057 31.6072 0.581271C31.7664 0.740486 31.8559 0.956427 31.8559 1.18159V4.29713C31.8559 4.5223 31.7664 4.73824 31.6072 4.89745C31.448 5.05667 31.232 5.14611 31.0069 5.14611C30.7817 5.14611 30.5658 5.05667 30.4066 4.89745C30.2474 4.73824 30.1579 4.5223 30.1579 4.29713ZM35.3281 9.32713C35.1774 9.1598 35.0994 8.93948 35.1112 8.71463C35.123 8.48978 35.2236 8.27882 35.3909 8.12815L38.8627 5.002C38.9456 4.92739 39.0423 4.86983 39.1474 4.83261C39.2525 4.79539 39.3639 4.77923 39.4752 4.78506C39.5866 4.79089 39.6957 4.81859 39.7963 4.86658C39.8969 4.91458 39.9871 4.98192 40.0617 5.06477C40.1363 5.14762 40.1939 5.24436 40.2311 5.34945C40.2683 5.45455 40.2845 5.56594 40.2787 5.67728C40.2728 5.78862 40.2451 5.89772 40.1972 5.99836C40.1492 6.09899 40.0818 6.18919 39.999 6.26379L36.5271 9.38995C36.3714 9.53055 36.169 9.60828 35.9592 9.60803C35.8402 9.6082 35.7224 9.58327 35.6137 9.53486C35.5049 9.48646 35.4076 9.41568 35.3281 9.32713ZM21.952 5.06482C22.0266 4.98196 22.1168 4.9146 22.2174 4.8666C22.3181 4.81859 22.4272 4.79088 22.5385 4.78505C22.6499 4.77922 22.7613 4.79537 22.8664 4.8326C22.9715 4.86982 23.0682 4.92738 23.1511 5.002L26.623 8.12815C26.7903 8.27883 26.8909 8.48981 26.9027 8.71467C26.9145 8.93953 26.8364 9.15985 26.6857 9.32718C26.5351 9.4945 26.3241 9.59512 26.0992 9.60689C25.8744 9.61866 25.654 9.54063 25.4867 9.38995L22.0148 6.26379C21.8475 6.11313 21.7469 5.90217 21.7351 5.67732C21.7233 5.45247 21.8013 5.23215 21.952 5.06482ZM41.8987 14.4026L45.4044 17.2204L44.2244 21.5607C44.092 22.048 44.2704 22.5549 44.6793 22.8522C45.088 23.1489 45.6249 23.1619 46.0478 22.8854L49.811 20.422L53.5744 22.8855C53.7705 23.0148 54.0002 23.0839 54.2351 23.0843C54.4896 23.0839 54.7374 23.0027 54.9427 22.8522C55.3516 22.5554 55.5301 22.0484 55.3975 21.5607L54.2176 17.2205L57.7231 14.4029C58.117 14.0865 58.2707 13.5715 58.1145 13.0908C57.9584 12.61 57.5313 12.2837 57.0268 12.2593L52.5344 12.0403L50.938 7.83547C50.7587 7.36312 50.3163 7.0578 49.811 7.0578C49.3057 7.0578 48.8633 7.36301 48.684 7.83536L47.0876 12.0403L42.5955 12.2592C42.0905 12.2836 41.6635 12.61 41.5074 13.0908C41.3512 13.5714 41.5048 14.0864 41.8987 14.4026ZM47.4922 13.7205C47.7265 13.7091 47.9523 13.6296 48.1421 13.4918C48.3319 13.3539 48.4773 13.1636 48.5605 12.9443L49.8109 9.6508L51.0613 12.9442C51.1445 13.1635 51.2899 13.3538 51.4796 13.4916C51.6694 13.6295 51.8952 13.709 52.1295 13.7204L55.6482 13.892L52.9025 16.0988C52.7196 16.2457 52.5835 16.4427 52.511 16.6658C52.4385 16.8889 52.4327 17.1283 52.4942 17.3547L53.4185 20.7542L50.4708 18.8246C50.2746 18.6961 50.0452 18.6276 49.8107 18.6277C49.5761 18.6277 49.3467 18.6961 49.1505 18.8247L46.2031 20.7542L47.1273 17.3549C47.1889 17.1285 47.183 16.8892 47.1106 16.6661C47.0381 16.443 46.9021 16.2459 46.7193 16.099L43.9734 13.892L47.4922 13.7205ZM4.29056 14.4026L7.79631 17.2204L6.61634 21.5607C6.4839 22.048 6.66229 22.5549 7.07118 22.8522C7.48017 23.1489 8.01705 23.162 8.43973 22.8854L12.2029 20.422L15.9663 22.8855C16.1624 23.0148 16.3921 23.0839 16.627 23.0843C16.8815 23.0839 17.1293 23.0027 17.3346 22.8522C17.7435 22.5554 17.922 22.0484 17.7894 21.5607L16.6095 17.2205L20.115 14.4029C20.5087 14.0867 20.6625 13.5718 20.5064 13.0902C20.35 12.6098 19.9229 12.2836 19.4187 12.2592L14.9263 12.0401L13.3299 7.83547C13.1506 7.36312 12.7082 7.0578 12.2029 7.0578C11.6976 7.0578 11.2552 7.36301 11.0759 7.83536L9.47952 12.0403L4.98736 12.2592C4.48253 12.2836 4.05549 12.61 3.89949 13.0902C3.74296 13.5711 3.89652 14.0863 4.29056 14.4026ZM9.88406 13.7205C10.1184 13.7091 10.3442 13.6296 10.534 13.4918C10.7238 13.3539 10.8692 13.1636 10.9524 12.9443L12.2028 9.6508L13.4532 12.9442C13.5364 13.1635 13.6818 13.3538 13.8715 13.4916C14.0613 13.6295 14.2871 13.709 14.5214 13.7204L18.0401 13.892L15.2944 16.0988C15.1115 16.2457 14.9754 16.4427 14.9029 16.6658C14.8304 16.8889 14.8246 17.1283 14.8861 17.3547L15.8104 20.7542L12.8627 18.8246C12.6665 18.6961 12.4371 18.6276 12.2026 18.6277C11.968 18.6277 11.7386 18.6961 11.5424 18.8247L8.59499 20.7542L9.51921 17.3549C9.58076 17.1285 9.57494 16.8892 9.50246 16.6661C9.42999 16.443 9.294 16.2459 9.11117 16.099L6.36525 13.892L9.88406 13.7205ZM58.0406 45.4275C57.4433 43.4985 56.2198 41.7663 54.5954 40.5499C53.8283 39.9748 52.9797 39.5174 52.0775 39.193C53.3161 38.2209 54.1141 36.7118 54.1141 35.0188C54.1141 32.0935 51.7341 29.7136 48.8088 29.7136C45.8834 29.7136 43.5034 32.0935 43.5034 35.0188C43.5034 36.7098 44.2996 38.2174 45.5357 39.1896C43.879 39.7809 42.4113 40.8198 41.2874 42.2198C40.7579 41.4789 40.1503 40.7971 39.4749 40.1863C38.1166 38.9567 36.5064 38.0382 34.7567 37.4946C36.5964 36.275 37.8125 34.1868 37.8125 31.8191C37.8125 28.0667 34.7595 25.0137 31.007 25.0137C27.2545 25.0137 24.2015 28.0667 24.2015 31.8191C24.2015 34.1868 25.4175 36.275 27.2572 37.4946C25.5074 38.0381 23.8972 38.9567 22.5388 40.1863C21.8635 40.7971 21.2559 41.4788 20.7265 42.2197C19.6026 40.8196 18.135 39.7807 16.4782 39.1892C17.7142 38.2171 18.5104 36.7095 18.5104 35.0185C18.5104 32.0932 16.1304 29.7132 13.2052 29.7132C10.2798 29.7132 7.89978 32.0932 7.89978 35.0185C7.89978 36.7114 8.69782 38.2206 9.93627 39.1926C9.03408 39.5171 8.1854 39.9745 7.4183 40.5496C5.79389 41.7659 4.5704 43.4981 3.97304 45.4271C3.69701 46.3181 3.84994 47.2224 4.40358 47.9735C4.95711 48.7245 5.77574 49.1379 6.70856 49.1379H18.445V50.6701C18.445 52.8743 20.2381 54.6674 22.4423 54.6674H39.5715C41.7756 54.6674 43.5688 52.8743 43.5689 50.6701V49.1383H55.3052C56.2381 49.1383 57.0568 48.7248 57.6102 47.974C58.1637 47.2228 58.3167 46.3184 58.0406 45.4275ZM48.8088 31.4115C50.7979 31.4115 52.4161 33.0298 52.4161 35.0188C52.4161 37.008 50.7979 38.6263 48.8088 38.6263C46.8197 38.6263 45.2014 37.008 45.2014 35.0188C45.2014 33.0298 46.8197 31.4115 48.8088 31.4115ZM25.8994 31.8191C25.8994 29.0029 28.1907 26.7117 31.007 26.7117C33.8233 26.7117 36.1146 29.0029 36.1146 31.8191C36.1146 34.6346 33.8248 36.9251 31.0098 36.9266H31.0041C28.1891 36.925 25.8994 34.6345 25.8994 31.8191ZM13.2052 31.4111C15.1942 31.4111 16.8125 33.0294 16.8125 35.0184C16.8125 37.0076 15.1942 38.6258 13.2052 38.6258C11.216 38.6258 9.59774 37.0076 9.59774 35.0184C9.59774 33.0294 11.216 31.4111 13.2052 31.4111ZM18.5552 47.4398H6.70866C6.31792 47.4398 6.00231 47.2804 5.77043 46.9659C5.53845 46.6513 5.47955 46.3026 5.59512 45.9294C6.63342 42.5765 9.69177 40.3238 13.2052 40.3238C15.8628 40.3238 18.2838 41.6079 19.7728 43.7816C19.1811 44.9311 18.7704 46.165 18.5552 47.4398ZM41.871 50.67C41.8709 51.9378 40.8393 52.9693 39.5715 52.9693H22.4423C21.1744 52.9693 20.1429 51.9378 20.1429 50.67V48.335C20.7576 42.7967 25.4189 38.6259 31.0041 38.6246L31.007 38.6247L31.0098 38.6246C36.5949 38.626 41.2561 42.7967 41.871 48.335V50.67ZM56.2434 46.9664C56.0116 47.2809 55.6961 47.4403 55.3052 47.4403H43.4588C43.2435 46.1654 42.8328 44.9314 42.2412 43.7818C43.7303 41.6082 46.1512 40.3242 48.8087 40.3242C52.3221 40.3242 55.3805 42.577 56.4188 45.9299C56.5343 46.3029 56.4753 46.6517 56.2434 46.9664Z" fill="#FFCC00"></path>
</svg>
