<?xml version="1.0" encoding="UTF-8"?>
<svg xmlns="http://www.w3.org/2000/svg" width="63" height="56" viewBox="0 0 63 56" fill="none">
  <path d="M3.28149 42.7744L16.192 55.6848C16.2918 55.7847 16.4104 55.864 16.5409 55.9181C16.6714 55.9722 16.8113 56 16.9526 56C17.0939 56 17.2338 55.9722 17.3643 55.9181C17.4948 55.864 17.6134 55.7847 17.7132 55.6848L24.814 48.5841C24.9139 48.4842 24.9932 48.3656 25.0473 48.2351C25.1013 48.1046 25.1292 47.9647 25.1292 47.8234C25.1292 47.6821 25.1013 47.5423 25.0473 47.4117C24.9932 47.2812 24.9139 47.1627 24.814 47.0628L24.4988 46.7475H40.0075C41.3695 46.7475 42.6693 46.2369 43.6717 45.3064L56.7237 33.0739C57.9731 31.9135 58.3871 30.0702 57.7533 28.4875C57.5283 27.9229 57.1818 27.4147 56.7383 26.999C56.2948 26.5834 55.7653 26.2704 55.1873 26.0824C54.6097 25.8928 53.9975 25.8326 53.3941 25.9062C52.7906 25.9797 52.2108 26.1853 51.6958 26.5081C51.689 26.5123 48.798 28.4094 48.798 28.4094C48.7783 22.5774 45.2535 16.3583 40.4016 13.5586C40.6851 13.2325 40.9004 12.853 41.0349 12.4424C41.5901 10.7533 40.6672 8.92514 38.9757 8.36665C38.9227 8.34901 38.8697 8.33341 38.8168 8.31706L41.5863 3.34201C41.665 3.20078 41.7108 3.04362 41.7204 2.88223C41.7299 2.72084 41.7029 2.55938 41.6414 2.40987C41.58 2.26026 41.4857 2.12643 41.3654 2.01837C41.2451 1.9103 41.102 1.83079 40.9467 1.78576C38.961 1.20833 36.897 0.915375 34.8121 0.915375C32.7276 0.915375 30.6633 1.20833 28.6775 1.78533C28.5221 1.83041 28.379 1.90994 28.2586 2.01801C28.1383 2.12607 28.0439 2.25988 27.9824 2.40949C27.9209 2.55909 27.894 2.72063 27.9036 2.88208C27.9132 3.04353 27.9591 3.20074 28.0379 3.34201L30.8074 8.31706C30.7536 8.33384 30.6998 8.34987 30.646 8.36751C28.957 8.92514 28.0345 10.7528 28.5897 12.4431C28.725 12.8534 28.9412 13.2324 29.2255 13.5577C24.3012 16.3991 20.8257 22.682 20.8257 28.4577C20.8257 28.6153 20.8295 28.7708 20.8346 28.9251C18.9077 29.4507 17.1161 30.4086 15.6095 31.7277L12.3398 34.5885L11.9035 34.1523C11.8037 34.0524 11.6851 33.9731 11.5546 33.919C11.4241 33.865 11.2842 33.8371 11.1429 33.8371C11.0016 33.8371 10.8617 33.865 10.7312 33.919C10.6007 33.9731 10.4821 34.0524 10.3822 34.1523L3.28149 41.2531C3.18157 41.3529 3.1023 41.4715 3.04822 41.602C2.99414 41.7325 2.96631 41.8724 2.96631 42.0137C2.96631 42.155 2.99414 42.2949 3.04822 42.4254C3.1023 42.5559 3.18157 42.6745 3.28149 42.7744ZM30.5981 3.51727C31.9766 3.21796 33.3887 3.06712 34.8121 3.06712C36.2355 3.06712 37.6475 3.21796 39.0265 3.51727L36.6289 7.82355C35.4237 7.65502 34.2009 7.65502 32.9957 7.82355L30.5981 3.51727ZM31.3176 10.4117C33.5253 9.68922 35.9321 9.63457 38.3036 10.4108C38.868 10.5969 39.1761 11.2072 38.9908 11.7704C38.9243 11.9753 38.7974 12.1554 38.6268 12.287C38.4561 12.4186 38.2498 12.4956 38.0346 12.5079C35.9131 11.8333 33.7096 11.8321 31.5891 12.5058H31.5887C31.1465 12.4781 30.7712 12.1889 30.6334 11.7707C30.448 11.2067 30.756 10.5965 31.3176 10.4117ZM31.9126 14.6667C33.7782 13.9948 35.711 13.9788 37.5812 14.6215C42.5799 16.3402 46.6467 22.5472 46.6467 28.4577C46.6467 28.9586 46.6152 29.4361 46.553 29.8824L41.3816 33.2752C40.5812 32.2835 39.3678 31.6853 38.0397 31.6853H35.888V30.4245C37.1403 29.9803 38.0397 28.7842 38.0397 27.3818C38.0397 25.602 36.5919 24.1542 34.8121 24.1542C34.2191 24.1542 33.7362 23.6718 33.7362 23.0784C33.7362 22.4849 34.2191 22.0025 34.8121 22.0025C35.1933 22.0025 35.5954 22.1971 35.9757 22.5648C36.4029 22.978 37.084 22.9666 37.4971 22.5401C37.9103 22.113 37.8989 21.4317 37.472 21.0186C36.926 20.4899 36.3796 20.1912 35.888 20.028V18.7749C35.888 18.1807 35.4063 17.699 34.8121 17.699C34.2179 17.699 33.7362 18.1807 33.7362 18.7749V20.0357C32.4842 20.4799 31.5845 21.676 31.5845 23.0784C31.5845 24.8582 33.0323 26.306 34.8121 26.306C35.4055 26.306 35.888 26.7884 35.888 27.3818C35.888 27.9753 35.4055 28.4577 34.8121 28.4577C34.3524 28.4577 33.8564 28.1685 33.4152 27.6437C33.0327 27.1889 32.3539 27.1301 31.8993 27.5125C31.4445 27.895 31.3856 28.5737 31.7681 29.0284C32.3431 29.7126 33.0197 30.1892 33.7362 30.4296V31.6853H33.3782C32.8495 31.6853 32.612 31.3407 32.2397 31.0999C29.9664 29.3962 27.1508 28.4577 24.3105 28.4577C23.8664 28.4577 23.4213 28.4808 22.9783 28.5258C22.9783 28.5031 22.9775 28.4808 22.9775 28.4577C22.9775 22.6299 26.986 16.4437 31.9126 14.6667ZM17.0267 33.3466C19.0481 31.5765 21.6456 30.6095 24.3105 30.6095C26.6883 30.6095 29.0455 31.3948 30.9477 32.8209C31.222 32.9814 31.9861 33.8371 33.3776 33.8371H38.0397C39.2644 33.8371 40.1914 34.8327 40.1914 35.9888C40.1914 37.1752 39.2261 38.1406 38.0397 38.1406H30.5086C29.9144 38.1406 29.4327 38.6222 29.4327 39.2164C29.4327 39.8106 29.9144 40.2923 30.5086 40.2923H38.0397C40.4125 40.2923 42.3432 38.3617 42.3432 35.9888C42.3432 35.7421 42.3214 35.4988 42.2801 35.2593L52.8452 28.3274C53.0928 28.1741 53.3709 28.0768 53.66 28.0422C53.9491 28.0077 54.2423 28.0367 54.5191 28.1273C54.7976 28.2181 55.0527 28.369 55.2664 28.5694C55.4801 28.7698 55.647 29.0148 55.7555 29.2869C56.0661 30.0618 55.871 30.9297 55.2558 31.5008L42.2041 43.733C41.6075 44.2883 40.8224 44.5967 40.0074 44.5958H22.3471L13.865 36.1132L17.0267 33.3466ZM11.143 36.4343L22.5321 47.8234L16.9526 53.4029L5.56341 42.0137L11.143 36.4343Z" fill="#F23936"></path>
</svg>
